<?xml version="1.0" standalone="no"?>
<!DOCTYPE svg PUBLIC "-//W3C//DTD SVG 1.1//EN" "http://www.w3.org/Graphics/SVG/1.1/DTD/svg11.dtd" >
<svg xmlns="http://www.w3.org/2000/svg" xmlns:xlink="http://www.w3.org/1999/xlink" version="1.1">
<metadata></metadata>
<defs>
<font id="atticregular" horiz-adv-x="1228" >
<font-face units-per-em="2048" ascent="1638" descent="-410" />
<missing-glyph horiz-adv-x="819" />
<glyph horiz-adv-x="0" />
<glyph unicode="&#xd;" horiz-adv-x="819" />
<glyph unicode=" "  horiz-adv-x="819" />
<glyph unicode="&#x09;" horiz-adv-x="819" />
<glyph unicode="&#xa0;" horiz-adv-x="819" />
<glyph unicode="!" horiz-adv-x="573" d="M104 133q0 45 41 115q12 14 41 26q16 6 35 15q4 4 10 4q8 0 24.5 -9.5t24 -6t64.5 -11.5q27 -12 31 -24q6 -20 8 -23q37 -34 37 -104q0 -33 -10 -49q-16 -29 -21 -39q-6 -27 -23.5 -39.5t-33 -23.5t-49.5 -3q-33 6 -67 13.5t-58 39.5q-10 6 -31 37q-23 45 -23 82z M119 1360q0 74 41 145q8 12 24.5 18.5t32.5 10.5q47 20 72 18q45 -2 100 -39q70 -45 70 -122q0 26 -10 -140q-6 -23 -13 -43q-8 -37 -4 -65q8 -59 -14 -107q-2 -23 -23 -80q-37 -96 -32.5 -154.5t-12.5 -92.5q-20 -41 -22 -107q-2 -39 -15 -76q-8 -18 -13 -35.5t-26 -48.5 q-14 -8 -41 31q-10 12 -10 21q0 4 9.5 17t5.5 30q-12 41 -13 71q0 10 2 35q2 18 0 31q-2 16 -10 37q-18 41 -22 76q4 41 -11 139q-8 27 -10 102q-4 63 -35 121q-16 31 -12 98q0 12 -4 49t-4 60z" />
<glyph unicode="&#x22;" horiz-adv-x="720" d="M90 1360q-6 33 0 76q10 59 39 73q31 23 61 23q47 0 74 -49q12 -23 12 -117q2 -14 -6 -39q-8 -31 -8 -49q0 -33 -6 -68q-14 -45 -17 -87t-8 -81q6 -10 -4 -38q8 -55 -28 -56q-20 0 -39 17.5t-19 44.5q0 14 6 28q-10 49 -24 129q4 39 -4 62q-6 12 -15 26q-14 37 -14 105z M397 1331q2 41 4 80q6 29 15 70q10 49 82 47q76 -2 94 -82v-90l-4 -14q-4 -13 -2 -25q6 -47 -19 -107q-14 -31 -10 -53q0 -113 -14 -149q2 -20 -11.5 -39t-31.5 -19q-27 0 -49 37q-8 12 -5 23q4 12 0 22q0 10 -12 26.5t-10 26.5q23 61 2 117q2 33 -14 101q-14 16 -15 28z " />
<glyph unicode="#" horiz-adv-x="1024" d="M23 547q0 37 59 57q0 -8 108 2q25 4 48 0q25 -4 28 -4q0 4 17 49q2 8 2 135q0 41 4 60q6 27 8 47q-14 0 -47 8q-25 4 -35 2q-16 -2 -39.5 6.5t-32.5 8.5q-57 0 -41 -3q-25 4 -28 50q14 70 24 67q33 8 82 10q16 -8 31 -14q10 -2 57 12q14 4 39 -2q-10 63 29 166 q25 68 20.5 121t1.5 76q8 100 82 100q57 0 58 -82q-18 -111 -27 -239q-6 -96 -18 -136q6 -10 71 -2q14 4 27 5q10 0 26.5 -8.5t34.5 -8.5q16 0 41 6q0 49 13.5 84t11.5 80q-2 29 12 74q12 33 25 67q4 14 0 43q-8 37 -8 50q0 27 12 47q33 45 59 45q25 0 45 -39q27 -31 27 -72 q0 -27 -12 -63q-12 -123 -35 -181q-14 -39 -7 -77.5t-5 -67.5q14 0 22 -8q43 8 71.5 2t67.5 2q12 4 32 -18.5t20 -49.5q-1 -69 -50 -69q-8 0 -18 4q-23 8 -39 4t-35 -8q-12 -2 -37.5 11t-33.5 13q-12 0 -15 -20q-12 -135 -28 -187q-14 -39 -17 -110q53 -4 60 -2 q55 8 124 -15q2 0 14.5 3.5t18.5 3.5q25 0 21 -45q-2 -43 -6 -52q-6 -20 -27 -20q-14 0 -39 8t-41 8q-20 0 -45 -10q-18 -6 -47 0q-31 6 -43 4q-2 -70 -16.5 -97.5t-14.5 -53.5q0 -18 2 -48q2 -16 -13 -33.5t-13 -68.5q2 -33 -17 -100q-8 -104 -67 -101q-53 4 -64 25 q-8 12 -8 70q8 20 18 43q14 39 25 155q4 55 20 101q14 37 17 104q-43 12 -60 4q-20 -6 -30 -6q10 0 -31 6q-31 4 -92 -2q-4 -66 -19.5 -101.5t-11.5 -82.5q2 -20 -11 -54t-9 -94q6 -80 -29 -135q-12 -20 -53 -20q-55 0 -51 26q-4 27 -9 51q-2 23 9 58q8 14 15 29.5t15 140.5 q2 39 31 112q2 10 0 35q-4 29 -4 31q-61 -10 -105 8q-8 4 -18 4t-28.5 -4t-26.5 -4q-35 0 -47 55q-2 10 -2 19zM397 612q10 0 29 -4q12 -4 29 0q23 4 41 4q20 0 38.5 -9t28.5 -9q14 0 41 10q2 63 14.5 103.5t16.5 109.5q4 29 4 66q-6 0 -27.5 8t-27.5 6q-14 -2 -25 -2 q-12 0 -29 8q-14 6 -34 0q-39 -10 -62 -6q0 -18 -4 -57q-6 -70 -29 -187q0 -14 -4 -41z" />
<glyph unicode="$" horiz-adv-x="1136" d="M66 451q0 31 14 41q29 18 31 20q23 23 45 23q35 2 34 2q14 12 56 6q20 -16 39 -33q33 -37 24 -94q-8 -49 -47 -82t-47 -58q-4 -12 -4 -22q0 -23 25.5 -51.5t29.5 -38.5q18 -20 78 -21q43 -8 74 -8q94 0 94 80q0 31 -14 76q-6 20 0 96q0 8 -4.5 28.5t-4.5 51.5 q0 29 19.5 67.5t17.5 73.5q-4 80 -51 111q-2 2 -65 22q-59 43 -76 64q-6 8 -31 16q-76 51 -104 113q-4 6 -27 35q-10 16 -12 49t-15.5 67.5t-15.5 47.5q-2 20 11.5 37.5t19.5 39.5q8 39 32.5 58.5t43.5 68.5q14 8 21 23.5t17 23.5q41 35 84 48q35 10 74 55q20 25 55 24 q23 0 29 21q2 12 2 80q0 51 14.5 75.5t22.5 18.5q27 -2 35 -55q10 -66 24 -80q2 -2 25 -31q12 -16 24.5 -16t24.5 -6.5t37 -6.5q78 2 98 -41q8 -14 23 -20q25 -6 39 -16.5t25.5 -33t25.5 -29.5t27.5 -52t7.5 -70q-4 -39 -10 -80q-18 -55 -103 -77q-10 -2 -18 -2 q-16 0 -40 14t-40 16q-23 0 -60 41q-35 29 -26 66q14 12 33 53q2 4 22 41q12 23 8 33q-25 41 -35 45q-6 4 -32 0q-39 -6 -37 -88q4 -119 0 -140q-14 -57 -15 -122q0 -117 31 -129q182 -70 193 -74q106 -49 114 -90q23 -23 60 -86q4 -8 20 -31q10 -14 15 -51q10 -109 0 -209 q-4 -29 -20.5 -43t-20.5 -33q-8 -31 -39 -70q-16 -29 -29.5 -36t-26.5 -21q-63 -82 -110 -96q-55 -20 -68.5 -27.5t-74.5 -40.5q-29 -14 -60 -71q-27 -49 -43 -50q-8 0 -18 9q-20 12 -33.5 57t-44.5 70q-70 12 -121 28q-123 37 -139 82q-16 16 -41 62q-8 18 -20.5 23 t-24.5 11q-4 10 -15 29q-27 31 -30 51q0 2 -2 95q-4 27 -4 43zM303 1165q0 -82 19 -112q12 -12 26 -25q4 -14 41 -41q12 -6 25 -12q4 0 20 8q49 16 51 51q0 12 7 62q6 41 4 61q4 59 -11 150q-35 63 -71 63q-25 0 -80 -70q-31 -18 -31 -135zM621 256q8 -18 16 -39 q16 -27 53 -27q57 0 78 58q14 8 53 76q2 8 21 34q10 16 10 45q0 21 -4 54q-4 25 -14 43q-16 20 -21 37q-16 39 -33 55q-33 35 -90 39q-49 4 -59 -56q-16 -61 -10 -120q4 -12 4 -21q-2 -6 6 -61q2 -10 2 -23q0 -18 -7.5 -51t-4.5 -43z" />
<glyph unicode="%" horiz-adv-x="1466" d="M57 1100q-2 27 0 71q2 57 2 56q0 16 10.5 35.5t12.5 33.5q4 25 33.5 65t47 48t30 30.5t45.5 39.5q10 4 67 43q27 20 80 22q10 0 23 6q8 2 28 0q98 -12 154 -47q45 -33 88 -67q20 -14 27 -29q14 -29 17 -31.5t44 -111.5q14 -35 14 -70q0 -23 -8 -56.5t-8 -47.5 q-2 -55 -29 -93q-43 -55 -53 -82q-37 -31 -74 -63q-68 -53 -164 -51q-10 0 -28 6q-12 6 -23 0q-14 -12 -33 -12q-27 0 -82 25.5t-77 27.5q-76 72 -92 123q-20 59 -34 75.5t-18 53.5zM162 61q2 33 16 50q25 31 33 47q14 29 53 61q47 43 68 68q37 47 57.5 101t44 82t74.5 97 q12 20 108 105q31 37 172 233q59 82 121 152q90 102 95 108q31 37 50 80t50 74q68 72 166 170q23 18 45 18q28 1 57 -24q10 -8 10 -17q0 -10 -20 -34q-35 -45 -49 -68q-12 -14 -22.5 -45t-35 -61.5t-45 -42t-34.5 -29.5q-68 -80 -164 -197q-25 -57 -97 -176 q-45 -51 -184 -229q-20 -29 -74 -76q-45 -43 -71 -82q-6 -10 -146 -178q-20 -27 -32.5 -58.5t-28.5 -46.5q-45 -39 -88 -102q-31 -39 -51 -41q-8 -2 -19.5 -11t-25.5 -7q-25 2 -31 13t-2 66zM254 1169q-8 -31 8 -61q6 -27 4 -74q0 -31 10 -39q18 -16 20.5 -50t18.5 -38 q104 -49 103 -49q12 0 40.5 17.5t35 18.5t8.5 32.5t15 39t14.5 26t9.5 28.5q16 18 16 102q0 119 -25 140q-4 6 -13 56t-25 66q-2 2 -17 48q-10 33 -59 34q-2 0 -39 7q-29 4 -35 0q-49 -55 -55 -89q0 4 0 -51q-16 -41 -25 -110q4 -6 4 -13q0 2 -14 -41zM692 289 q0 27 15.5 55.5t11.5 72.5t12.5 63.5t16.5 23.5q6 39 50 86t93 61q39 12 92 41q33 18 55 13q16 -4 29 -7h51q27 -2 96 -30q14 -2 36 -34t55 -40q16 -6 24 -21q14 -25 28.5 -40t20.5 -31q6 -31 25.5 -64.5t15.5 -101.5v-66q0 -31 -14 -52t-31 -73q-12 -41 -24 -47 q-16 -25 -56 -55q-16 -2 -55 -37q-23 -31 -53 -31q-6 0 -38 2.5t-61 2.5q-41 -2 -81 -7q-25 0 -58 13q-25 10 -63 16q-16 2 -29.5 21.5t-50.5 29.5q-29 8 -43 64q-20 76 -47 116q-23 31 -23 56zM901 246q8 -53 21 -86q18 -16 41 -62q0 -18 3 -18t26.5 -28.5t45.5 -35.5 q23 -6 43 2q29 10 41 45q18 45 66 82q8 6 4 39q-6 51 -6 62q0 37 10 65q8 21 6 27q-27 55 -26 84q0 4 2 14t2 17q0 20 -13.5 51t-37 45t-23.5 18q-4 14 -45 15q-43 2 -70 -13q-18 -14 -43 -53q-2 -4 -18 -20q-6 -8 -7 -38t-14 -120q-10 -78 -8 -92z" />
<glyph unicode="&#x26;" horiz-adv-x="1615" d="M55 500q0 18 15 53q20 45 30 106q14 29 58 66q33 27 65 53q23 20 76 25.5t85 28t32 45.5q0 6 -4 12q-18 37 -50 131q-39 115 -38 158q0 18 12 47.5t14 62.5q4 84 37 105q8 6 35 57q18 41 76 45q33 -2 118 23q66 45 146 45q106 0 215 -76q92 -66 115 -125q8 -20 8 -47 q0 -49 -41 -174q-18 -57 -51 -88q-12 -10 -62 -39q-37 -63 -147 -64q-51 0 -51 27q0 31 83 65q23 8 27 29q4 43 10 84q4 23 4 41q0 31 -16 67.5t-16 65.5q0 57 -49 90q-47 25 -89 25q-90 0 -122 -117q-6 -20 -7 -45q0 -51 27 -125q16 -45 31.5 -92t49.5 -79t34 -38t-15 -28 q-2 -6 45 -76q27 -39 41 -76q10 -27 19 -53q35 -80 69 -121q45 -49 58 -70q25 -18 90 -102q20 -35 38.5 -69t33.5 -27q59 61 71 153q8 86 17 172q20 106 4 127q-27 35 -90 35q-70 -2 -86.5 10.5t-16.5 28.5q0 43 60 66q8 8 45 32q23 8 106 6q86 -4 118 -14t134 -29 q90 -6 111 -34q4 -6 4 -15q0 -18 -39 -69q-12 -20 -45 -33q-43 -18 -68.5 -40t-34.5 -58q-12 -45 -28 -68q-23 -31 -31 -61.5t-17.5 -49t-27.5 -118.5q-8 -45 -68 -117q-18 -23 11 -33q51 -25 125 -61q47 -16 144 -12.5t97 -53.5q0 -23 -14 -43q-37 -39 -182 -43 q-16 0 -95 -39q-39 -18 -98 -18t-133 20q-66 18 -115 58q-25 20 -47 41l-12 -7q-16 -12 -55 -16q-18 -4 -35 -27q-18 -31 -25 -34q-20 -18 -223 -23q-178 -4 -305 80q-100 66 -131 108q-23 29 -29 78q-6 68 -24 113q-6 16 -5 53q4 41 0 60q-6 31 -6 49zM293 547 q6 -53 13 -68.5t13 -29.5q10 -39 21 -78q20 -66 57 -119q41 -61 52.5 -71.5t58.5 -33.5q20 -10 51 -36q20 -16 76 -33q70 -18 106 -19q29 0 55.5 18.5t47.5 22.5q35 9 33 11q-57 78 -152 233q-57 119 -100 154q-18 20 -25.5 46.5t-32 55.5t-39.5 82q-10 43 -65 80 q-6 2 -49 -33q-16 -6 -76 -61q-37 -43 -39 -47q-12 -20 -6 -74z" />
<glyph unicode="'" horiz-adv-x="475" d="M137 1399v33q0 8 15 67q12 51 67 51q84 0 105 -80q14 -53 6 -96q0 -70 -15 -106q-8 -51 -28 -148q-8 -39 -21 -94q8 -25 8 -47q0 -55 -41 -61q-39 -4 -45 45q-10 10 -4 43q4 37 2 45q-4 27 -7 84t-13 87.5t-12 67.5q0 20 -11 51q-6 25 -4 39q0 2 -2 19z" />
<glyph unicode="(" horiz-adv-x="745" d="M166 719q0 74 31 133q8 12 32 127q10 49 21 61q25 29 31 39q16 18 45 78q12 43 38.5 78t45.5 92q14 16 65 47q41 25 62 66q27 55 47 73q29 25 80 21q49 -4 49 -84q0 -17 -4 -37q-14 -84 -54 -104q-47 -25 -63 -74q-6 -20 -43 -65.5t-49 -77.5q-16 -72 -49 -179 q-4 -12 -5 -30q2 -37 -8 -103q-8 -39 -22 -110q-2 -8 -10.5 -30t-8.5 -32q0 -6 11 -53q10 -53 16 -143q4 -70 17.5 -97.5t15.5 -56.5q4 -66 30.5 -104.5t45 -98t40.5 -92.5q23 -23 37.5 -52.5t51 -66.5t36.5 -59q2 -61 4 -68q4 -20 5 -39q0 -27 -31 -65q-10 -8 -25 -8 q-37 0 -96 57q-39 37 -56.5 85t-52.5 87q-86 96 -120 162q-20 35 -27 72q-6 25 -20 36q-8 29 -35 84l-19 15q-8 6 -10 35q-2 18 -13.5 44.5t-8.5 43.5q4 53 -8.5 104t-12.5 72q0 8 3 30.5t3 36.5q0 18 -6 68.5t-6 81.5z" />
<glyph unicode=")" horiz-adv-x="794" d="M37 -303q0 27 12 59q29 72 49 97q12 12 27 24q4 14 37 80q14 27 51 63q29 29 29 46q2 74 34 182q14 47 52 96q33 39 43 107q4 25 -6.5 45t-6.5 47q18 90 4 112q-18 29 -18 88q0 156 2 152q-8 102 -57 190q-14 31 -56 89q-12 14 -45 67q-29 45 -84 98q-16 16 -24 52 t-12 43q-25 27 -11 77q12 45 60 43q25 0 49 -19t51 -40q72 -49 107 -129q18 -43 51 -73.5t61 -86.5q14 -51 31 -100q29 -86 131 -238q6 -10 8 -86q4 -84 6 -98q6 -27 -6 -80q0 -98 -14 -225q-20 -39 -31 -127q-2 -20 -35.5 -60t-38.5 -61q-20 -129 -84 -188q-23 -23 -59 -97 q-10 -41 -27.5 -60t-31.5 -38q-18 -33 -70 -53q-61 -27 -88 -53q-16 -16 -33 -17q-18 0 -33 19q-25 12 -24 53z" />
<glyph unicode="*" horiz-adv-x="753" d="M119 1069q0 31 41 86q33 16 73 55q8 6 -24 39l-47 43q-27 27 -27 54q0 31 29 30q25 0 80 -22q23 -8 35 -8q33 0 40 53q-4 84 15 112q12 20 45 21q31 0 37 -27v-39q-14 -49 16 -92q6 -6 14 -6q6 0 49.5 26.5t86.5 22.5q74 -6 65 -90q-2 -31 -74 -88q-12 -10 -12 -20 q0 -16 55 -56q41 -14 41 -53q0 -20 -10 -43q-35 -53 -82 -53q-18 0 -45 16q-39 23 -43 25q-16 8 -47 -23q-4 -4 -16 -76q-8 -57 -68 -59q-16 2 -24 41q-10 49 -11 49q-10 27 -22.5 58.5t-30.5 33.5q-14 0 -32.5 -22.5t-57.5 -22.5q-49 0 -49 35z" />
<glyph unicode="+" horiz-adv-x="1024" d="M55 571q0 25 22.5 56.5t108.5 31.5q35 0 52 -8q10 -6 61 -2q59 6 66 6q43 -4 73 13q8 68 -2 112q-2 14 -2 25q0 12 10 43q10 23 -2 59q0 41 -4 99q-2 12 -2 20q0 43 72 37q55 -4 55 -55q0 -59 2 -88q2 -12 -4 -26.5t-6 -29.5q0 -20 8 -51q4 -16 0 -39t4 -51q2 -8 -2 -51 q37 4 94 0q27 -14 50 -15q10 0 28.5 5.5t30.5 3.5q59 -4 77.5 -14.5t77 -12.5t54.5 -49q-2 -33 -70 -49q-18 -4 -71 0q-82 6 -86 6q-41 -8 -191 -6q14 -63 14 -103q0 -18 -4 -47t-4 -47q0 -37 10 -90q2 -12 -8 -41t-8 -39q0 -27 -4 -32t-35 -9q-45 -6 -58 8.5t-18 48.5 q-8 70 5 113q4 14 4 29q0 10 -6.5 31.5t-4.5 37.5q2 14 2 27q0 14 -7 33.5t-7 40.5q0 18 4 41q-55 -12 -72 -11q-20 4 -43 9q-6 2 -30.5 -5.5t-42.5 -7.5q-12 0 -41 8.5t-41 8.5q-14 0 -37 -5t-31 -5q-41 0 -41 36z" />
<glyph unicode="," horiz-adv-x="552" d="M117 -305q0 18 41 51q4 2 18 31q16 16 33 47q0 14 7 45t7 47q0 43 -35 82q-14 10 -19 29.5t-11 25.5q-29 27 -29 68q0 31 16 55q10 8 27 49q12 33 34.5 43.5t74.5 12.5q20 6 41 12q16 4 36 -8q55 -31 72 -72q8 -19 14 -82q0 -68 -12 -160q-4 -12 -22 -41q4 -23 -17 -110 q-6 -16 -63 -56q-6 -2 -27 -30q-57 -66 -113 -66q-74 0 -73 27z" />
<glyph unicode="-" horiz-adv-x="706" d="M35 645q0 55 24 72q14 10 62 16q31 6 61 15q47 8 185 4q98 -2 137 7t65 9q37 -2 58 -14q12 -10 24 -21q29 -18 31 -88q2 -82 -41 -90q-18 -6 -111 -8q-12 -4 -81 -12q-14 0 -93 10q-2 0 -9 -4t-34 -6q-43 -2 -131 0q-55 2 -67.5 7t-24.5 11q-33 8 -44 24.5t-11 67.5z" />
<glyph unicode="." horiz-adv-x="526" d="M117 78q0 68 30 119q16 8 26.5 27.5t35.5 31.5q29 29 80 29q27 -2 41 -27q10 -4 28 -27q12 -27 35 -45q16 -12 19 -45l8 -49q0 -27 -6 -39q-6 -55 -19 -76q-29 -43 -110 -49q-6 0 -23.5 3t-23.5 3q-4 0 -16.5 -3t-18.5 -1q-18 6 -29 31q-14 33 -35 49q-23 8 -22 68z" />
<glyph unicode="/" horiz-adv-x="927" d="M14 -133q0 20 19 55q25 47 28 62q16 51 50 108q39 74 53 109q33 88 112 282q63 141 152 283q6 27 59 168q70 174 84 203q25 53 54 92q51 66 59 111.5t12 60.5q8 29 25 55q63 102 110 90q62 -16 62 -143q0 -47 -37 -105q-57 -86 -65 -106q-23 -63 -91 -201 q-18 -20 -57 -78q-16 -29 -26.5 -75.5t-26.5 -77.5q-33 -84 -98 -207q-31 -37 -46 -86q-20 -74 -26 -86q-16 -43 -64 -139q-16 -37 -57 -121q-10 -18 -92 -152q-6 -10 -17 -92q-6 -63 -47 -76q-20 -6 -39 -6q-33 0 -61.5 22.5t-28.5 49.5z" />
<glyph unicode="0" d="M113 762q0 53 8 99t18 120q0 -4 11 47q16 80 39.5 119t46.5 135q8 39 40 55l39 25q29 41 81.5 66.5t68.5 46.5q25 25 57 4q18 -14 33.5 5t40.5 40q20 12 55 12q20 0 47 -12q37 -18 47 -23q45 -16 107 -100q18 -25 63 -55q39 -25 62 -70q31 -61 32 -92t22.5 -84t21.5 -92 q0 -10 -2 -29v-27q0 -45 34 -112q12 -20 13 -66q0 -27 -6 -82q-7 -61 -7 -90q0 -27 2.5 -59.5t2.5 -38.5q0 -41 -39 -74q-23 -20 -31 -51q-4 -20 -8 -43q-10 -12 -35 -82q-10 -43 -49 -84q-29 -27 -60 -55q-18 -18 -20 -28.5t-10 -18.5q-18 -18 -54 -62q-12 -14 -47 -12 q-33 2 -53 17.5t-20 31.5t45 43q6 6 43 137q14 20 45 105q18 76 18 147q-2 90 6 148q18 125 19 116q0 23 -7.5 51.5t-7.5 36.5t19 68q10 37 -13 96q-10 51 -28 115q-45 72 -47 78t-11 69q-8 57 -90 111q-8 12 -45 35q-20 12 -45 28q-16 14 -22 15q-4 0 -8 -6 q-10 -12 -46 -29q-27 -12 -30 -33q-12 -51 -27.5 -82.5t-23.5 -89.5q-10 -14 -25 -137q-4 -131 16 -191q31 -86 0 -129q-8 -27 -5 -92t-3 -88q-10 -41 -8 -53q10 -39 12 -68q2 -59 15 -180q4 -25 19 -50.5t17 -61.5q4 -43 27 -76q14 -23 12 -23q-49 -2 -55 0q-14 4 -82 53 q-55 41 -72 78q-23 55 -26 60q-16 20 -27 49q-10 23 -22.5 35t-42.5 100q-10 31 -11 59q0 14 11 66q6 33 -8 51q-37 51 -37 158z" />
<glyph unicode="1" d="M154 1266q0 14 19.5 49t76.5 37q29 10 98 30q35 8 74 0q27 -6 59 17q6 14 54 59q4 6 40 41q35 27 48 35q23 12 43 14q31 4 51 -10q37 -27 39 -27q33 -12 32 -67q0 -72 11 -92q33 -84 32 -111q0 -6 -5 -28.5t-3 -53.5q4 -72 -12 -90q-31 -33 -41 -61q-12 -37 -12 -70 l20 -104q4 -25 0 -93q-4 -72 2 -112q4 -27 -12 -72q-16 -53 -16 -102q0 -53 16 -125q18 -80 28.5 -88.5t24.5 -18.5q23 -27 29 -30t45 -9q49 -8 51 -8q14 -4 51 -26q55 -33 39 -109q-4 -20 -26 -27q-14 -4 -27.5 -10t-46.5 0t-47 19q-20 16 -41 16q-12 0 -45 -12.5 t-58 -12.5q-16 0 -32 4q-20 4 -43 -6t-29 -10q-4 0 -17.5 9t-31.5 9q-16 0 -62.5 -18t-58.5 -18q-18 2 -57 -2.5t-56 -4.5q-45 0 -69 19q-16 10 -33 18q-20 18 -23 70q-2 51 27 70q25 6 47 12q45 4 92 6q63 8 86 57q10 23 15 93q4 80 10 108q4 18 0 51q-6 41 -2 82t16 68 q8 18 4 33q-27 100 -20 178q6 78 0 102q-4 16 -8 88q-6 104 -101 131q-33 10 -147 11q-33 0 -43 4q-16 8 -35.5 38.5t-19.5 49.5z" />
<glyph unicode="2" d="M90 1065q-8 76 11.5 147.5t58.5 96.5q16 18 82 61q29 14 82 80q18 23 76.5 40t66.5 23q20 20 32.5 25.5t53.5 7.5q59 4 123 -24q27 -2 90 -27q72 -39 117 -29q10 2 18 2q35 0 68 -45q57 -84 82 -108q18 -18 55 -131q20 -61 20 -117q0 -53 -22 -82q-49 -59 -62 -94 q-10 -23 -47 -57q-8 -8 -51 -72q-23 -25 -57.5 -42.5t-63.5 -45.5q-20 -20 -56 -34.5t-50 -37.5q-18 -31 -38 -40t-31 -26.5t-31.5 -26.5t-32.5 -30q-16 -10 -43 -59q-2 -6 -23 -66q-18 -49 -18 -71q0 -14 6 -23q39 -57 86 -47q18 4 237 16q18 2 39 15q25 20 31 22 q80 35 80 107q0 14 20 55q8 16 33 16q16 0 30.5 -15t14.5 -34q0 -14 -14 -49t-14 -57q0 -33 22 -68q16 -20 16 -37q0 -8 -20 -51q-2 -20 -20 -82q-18 -45 -84 -49q-100 -8 -136 -22q-37 -10 -82 12q-16 2 -90 26q-45 12 -90 13q-12 0 -53 -4h-55q-33 2 -68 12q-10 2 -20 2 t-50 -12.5t-86 -14.5q-31 -2 -36 31q-4 16 0 49q2 20 18 35q43 59 123 166q43 61 84 125q20 25 78 33q31 4 37 16q8 23 14 45.5t17.5 30.5t15.5 20q8 25 29.5 42.5t29.5 45.5q6 23 35 52.5t45 78.5q12 33 25 64q12 43 14 94q0 27 18.5 55.5t20.5 42.5q12 47 12 90 q0 55 -24.5 89t-27.5 53.5t-18 44.5q-45 74 -122 80q-78 6 -121 -13q-23 -10 -72 -53t-104 -69q-31 -14 -31 -54q0 -61 67 -133q31 -33 31 -78q0 -49 -35 -104q-41 -66 -98 -66q-45 0 -86 50q-33 37 -40 55t-15 37q-20 37 -27 96z" />
<glyph unicode="3" d="M78 346q-2 43 16 76l25 43q12 49 37 59q41 37 110 37q41 0 72 -37q23 -27 31 -57q4 -14 22.5 -41t28.5 -82v-129q2 -70 63 -68q53 -2 125 -4q41 4 43 7q18 4 31 22q20 23 53 70q12 25 43 57q25 23 27 45q4 39 20.5 67.5t16.5 55.5q0 25 -8 65q2 -8 4 33q0 27 -27 64 q2 14 -49 90q-23 27 -80 51q-47 20 -51 35q-6 23 24.5 47.5t59.5 46.5q25 16 45 66q12 37 25.5 71.5t21.5 128.5q6 61 -37 115q-14 27 -29 53q-25 41 -69 58q-23 8 -86 49q-39 27 -82 33q-18 4 -62 -58q-33 -47 -18 -153q10 -70 8 -91q-2 -14 -20 -47q-23 -41 -115 -43 q-66 -2 -100.5 39t-32.5 99q2 45 24 94q27 41 52 84q37 63 86 88q27 12 86 21.5t92 29.5q49 31 84 31q8 0 51 -8q35 -8 70 0q12 2 22 2q16 0 31 -11q31 -23 37 -26q35 -20 106 -51q84 -37 137 -154q4 -10 31 -37q18 -18 19 -45q0 -14 -7 -37q-14 -53 -77 -194 q-12 -29 -57.5 -53.5t-61.5 -57.5q-29 -57 -2 -111q10 -20 41 -57q10 -12 127 -84q39 -25 45 -172q4 -94 -43 -162q-16 -23 -33 -67q-10 -31 -59 -78q-125 -117 -205 -150q-29 -12 -79 -14t-95 -2q-35 -2 -67 5t-91 3t-73.5 12.5t-55.5 22.5q-31 4 -37 6q-16 6 -41.5 27.5 t-40.5 50.5q-18 43 -33 61q-35 49 -45 68q-23 45 -24 92z" />
<glyph unicode="4" d="M111 575q0 12 16 47t16 89q0 18 20.5 38.5t26.5 36.5q12 27 29 39q10 6 23 15q25 29 47 30q53 0 59 -8q4 -6 -24 -98q-6 -20 -7 -41q0 -59 64 -92q49 -27 96 -25q23 2 39 10q23 16 45 31q14 6 27.5 13.5t19.5 33.5q-2 33 2 84q20 88 11 152q-2 20 -23 39q-29 27 -31 30 q-14 20 -51 9q-20 -2 -67 -13q-23 -8 -23 70q0 20 31 55q0 10 20 39q29 31 68 133q18 49 57 109q33 51 76 63q37 10 59 49q18 33 51 35q35 2 62 -39q8 -6 39 -45q23 -33 14 -153q0 -39 -2 -80q-2 -47 -18.5 -75t-16.5 -48q0 -6 23 -55q10 -20 6 -84q-4 -119 -4 -109 q0 -33 -9.5 -56.5t-9.5 -31.5q0 -20 19 -65q2 -16 2 -33q4 -23 16 -31q31 -12 82 -47q16 -18 33 -37q20 -24 18 -63t-34 -66q-4 -4 -62 -39q-16 -8 -35 -16q-8 -8 -18 -60q-6 -33 -6 -57q0 -57 26 -74q23 -23 66 -55q61 -20 57 -57t-53 -70q-10 -6 -20 -6t-29 9t-27 9 q-14 0 -49 -2t-47 -2q-6 0 -34.5 4t-47.5 4q-20 0 -43 -12q-29 -14 -33 -16q-31 4 -118 -6q-49 -12 -60 -4q-35 41 -16 79q4 10 22.5 17.5t24.5 15.5q23 14 57 49q4 8 27.5 28.5t23.5 34t5.5 23t9.5 37.5q6 35 -11 72q-12 29 -26 37q-4 8 -43 47t-209 26q-14 -2 -54 -15 t-63 -13q-39 0 -67 31q-6 12 -33 75q-12 33 -12 51z" />
<glyph unicode="5" d="M59 350q0 78 27 113q20 31 39 61q20 23 76 19q37 -4 45 -6q31 -6 39 -25q27 -35 55 -90q4 -35 -27.5 -104.5t-31.5 -100.5q0 -16 6 -31q25 -57 53 -57q-8 0 33 8q20 4 35 -14q31 -39 63 -39q25 0 45 22q10 4 37 21q31 29 102 47q76 53 84 86q18 68 58 129q18 29 18 53 q0 10 -6 37t-6 49q0 14 9 56.5t9 58.5q0 39 -29.5 73t-29.5 52q-8 39 -32.5 65.5t-49.5 53.5q-29 39 -68 39q-10 0 -27.5 -5.5t-23.5 -5.5q-18 0 -35.5 15.5t-21.5 15.5q-12 2 -33 -10q-37 -25 -53 -33q-68 -35 -90 -84q-27 -55 -95 -96q-33 -20 -51 -10q-49 27 -49 57 q0 16 8 43q18 23 39 80q4 66 25 127q16 47 16 82q0 10 -6 47q-4 27 2 47q20 72 21 129q0 18 -3.5 45t-3.5 35q0 45 54 102q12 14 47 35q51 14 78 -2q27 -33 63 -33q14 0 44 8.5t38 8.5q16 0 33 -13q27 -18 43 -26q25 -10 43 -10q8 0 39 10q23 10 51 2q12 -4 24 -4 q31 0 78 34.5t80 30.5q66 -8 66 -78q0 -33 -17.5 -63.5t-48.5 -50.5q-45 -29 -57 -39q-43 -39 -105 -45q-96 -6 -118.5 -12.5t-40.5 -6.5q-27 0 -86 19q-47 12 -80 0q-35 -4 -84 -23q-8 -18 -39 -58t-31 -91q0 -63 55 -82q33 -10 64 -10q41 0 84 20q25 12 49 27h51 q10 0 34 -20.5t50 -22.5q39 -2 101 -13q25 -12 102 -90q23 -10 82 -59q35 -37 40 -60.5t77 -93.5q28 -28 36 -100q4 -33 -4 -55q-12 -35 -14 -43q-14 -96 -67.5 -141.5t-59.5 -79t-14 -48.5q-16 -23 -33 -43q-41 -59 -133 -112q-76 -41 -137 -58q-10 -2 -27.5 -19t-52.5 -20 q-133 -10 -250 39q-29 12 -102 29q-47 10 -62 33q-27 33 -59 96q-10 37 -33 75t-23 101z" />
<glyph unicode="6" d="M121 621q0 20 12 61t6 92q-4 37 7.5 79t11.5 60q0 31 12 72q16 53 25 129q12 121 43 174q16 29 53 51q10 6 45 56q31 43 65 53q14 12 50 25q23 2 69 -11q41 -10 45 -8q10 18 80 82q18 14 47 14q47 2 82 9q23 4 39 4q35 0 72 -37q47 -43 108 -60q39 -10 39 -129 q0 -139 -53 -168q-82 -43 -125 -43q-35 0 -70 15q-63 27 -75 51q-6 8 -4 43q0 6 4 21.5t4 27.5q0 27 -17.5 68t-33.5 49q-29 12 -31 14q-23 23 -53 29q-18 4 -41 -21q-14 -20 -76 -67q-31 -25 -37 -99q-14 -158 -8 -200q6 -47 22.5 -64.5t30.5 -29.5q8 -8 53 -45 q37 -27 37 -39q0 -8 -43 -31q-51 -29 -78 -66q-53 -72 -53 -108q0 -8 3 -25.5t3 -32.5q-2 -20 -14 -49q-16 -41 -4 -127q-6 -37 2 -90q37 -49 58.5 -95t41 -69.5t41.5 -23.5q-4 0 51 10q39 6 76 -6q23 -2 54.5 36t50.5 44q27 8 55 44t28 70q0 8 -3 21.5t-3 21.5q0 10 5.5 42 t3.5 51q-4 27 -21 49q-12 16 -16 53q-4 45 -13.5 68.5t-76.5 107.5q-27 37 -31 39q-14 12 -37 34.5t-23 45.5q0 35 41 43q23 4 37 4q20 0 41 -15.5t47 -19.5q39 -8 56 -18q39 -25 53 -33q53 -27 74 -45q4 -4 45 -57q57 -55 65 -99q6 -49 10 -100q4 -23 5 -37 q0 -14 -8.5 -30.5t-8.5 -36.5q-2 -51 -16 -89q-12 -20 -23 -41q-14 -37 -45 -69q-25 -25 -26.5 -51.5t-26.5 -46t-35 -52.5q-12 -41 -63 -65q-12 -4 -84 -27q-39 4 -66 4q-35 0 -74 -12t-106 -12q-51 0 -76 24q-14 20 -26 39q-31 45 -82 74q-57 35 -91 73t-40 78 q-6 33 -39 60q-18 14 -19 51q0 139 -7 173t-7 61z" />
<glyph unicode="7" d="M150 1075q4 53 4 68q4 29 6 104q-2 63 14 187q6 39 49 55q16 6 49 37q27 27 52 26q10 0 22 -4q51 -16 79 -10t69 -4q90 -20 88 -21q12 0 20 7q31 20 94 20q20 0 49 -19.5t70 -19.5q33 0 80 10q16 4 29 5q10 0 34.5 -9.5t63.5 -5.5q23 2 45.5 -24.5t24.5 -51.5 q2 -16 -11 -41q-16 -31 -20 -55q-14 -66 -51 -100q-33 -25 -64 -51l-53 -33q-20 -12 -31 -12q-8 0 -28 36q-27 43 -86 64q-37 12 -66 12q-12 0 -59 -8q-35 -6 -70 0t-64 6q-106 0 -170 -82q-27 -20 -51 -69q-27 -59 -51 -84q-8 -8 -18 -9q-23 0 -43 31q-10 16 -6 45z M393 201q0 29 6 88q2 29 38 74t48 135q6 39 30 65.5t22 59.5q-2 59 24 98q37 57 45 84q10 35 33 51q10 18 35 51q33 25 41 57.5t26 51.5t45 -8q10 -18 -8 -101.5t-18 -152.5q0 -29 7 -59.5t7 -43.5q0 -18 -10 -38.5t-21 -39.5q-14 -35 -22 -178q-2 -47 -2 -80q0 -57 8 -80.5 t8 -33.5q0 -23 -10 -82q-6 -31 -39 -62q-2 -2 -14 -30q-8 -20 -37 -23q-43 -4 -66.5 -16.5t-33.5 -12.5q-6 0 -19 2q-20 0 -53 15q-16 18 -23 53q-6 29 -12 55.5t-25 51.5q-10 16 -10 49z" />
<glyph unicode="8" horiz-adv-x="1253" d="M86 389q-6 16 10 64q27 76 27 77q4 18 41 50q23 23 45 46t43 50q27 43 27 102q0 23 -4.5 48.5t-28.5 56.5q-33 41 -56 100q-16 47 -20 100l-4 70q-6 29 -6 61q0 123 65 187q29 39 74 92q14 14 90 39q98 33 150 33q55 0 125 -31q63 -29 133 -23q27 2 47 -10q70 -39 69 -39 q111 -53 107 -194q-2 -82 -8 -103q-10 -37 -54 -80q-25 -25 -69 -79q-49 -61 -49 -111q0 -51 51 -92q2 -2 16 -27q6 -10 36 -16t56 -29q20 -16 42 -32.5t26 -69.5q4 -59 17.5 -89t13.5 -40q0 -11 -4 -29q-18 -88 -45 -119q-35 -37 -43 -61q-6 -16 -23.5 -32.5t-19.5 -22.5 q-27 -86 -103 -136q-29 -23 -55 -43q-37 -29 -57 -30q-33 -2 -89.5 -17.5t-85.5 -15.5q-16 0 -104 24q-53 12 -104 25q-74 23 -97 59q-20 16 -63 70q-45 39 -52.5 74t-37.5 61q-14 12 -19.5 37t-9.5 45zM291 424q14 -20 28 -84q2 -88 17 -113q53 -90 131 -90q12 0 25 4 q45 8 71 -6q10 -4 21 -4q10 0 30.5 10.5t32.5 10.5q39 2 43 2q20 4 55 22q57 29 64 35q25 18 49 68q29 59 29 98q0 22 -10 55q-6 18 -18.5 27.5t-29.5 58.5q-14 41 -114 98q-8 4 -99 35q-31 10 -77 11q-20 0 -37 12t-27 12q-16 2 -19 -1t-7 -3q-25 -2 -35.5 -7t-28.5 -38 q-25 -37 -53 -94q-2 -12 -23.5 -40t-17.5 -79zM324 1245q10 -45 8 -82q-2 -41 -2 -47q4 -27 37 -45q47 -25 57 -37q14 -20 61 -57q14 -10 30.5 -20.5t45.5 -10.5q14 0 37 2q84 12 90 15q31 8 41 36q16 47 59 76q29 18 23 88q0 45 -2 90q-4 68 -39 101q-76 74 -117 73 q-6 0 -33.5 -8t-39.5 -8q-137 14 -181 -45q-27 -27 -53.5 -52.5t-21.5 -68.5z" />
<glyph unicode="9" d="M51 1036v84q0 14 16.5 27.5t19.5 27t38 76.5q16 45 51 105q18 18 39 51q14 27 51 49q59 37 153.5 62.5t145.5 58.5q6 0 39 -12.5t70 -12.5q18 0 37 -6q29 -10 51 -15t42.5 -9t26.5 -21q14 -27 54.5 -77t56.5 -60q33 -20 35 -55q2 -47 27 -86q31 -47 42 -81t21 -52 q31 -53 37 -91q2 -47 6 -92q4 -51 0 -84q-4 -43 -4 -41q0 -100 -33 -146t-31 -183q0 -18 -24 -39q-37 -31 -66 -82q-37 -63 -39 -105q0 -39 -2 -43q-6 -23 -37 -61q-12 -14 -51 -41q-6 -12 -39 -31q-59 0 -149 -8q-14 -4 -35.5 -17.5t-36.5 -11.5q-47 8 -78 9 q-33 0 -54 -9.5t-32 -9.5q-39 10 -129 31q-33 6 -50 24.5t-34 38.5q-33 33 -32 86q0 31 10 72q6 27 14 53q-4 23 8 72q16 25 28.5 36t29.5 11q63 0 108 -25q61 -35 72 -36q33 -6 43 -25q27 -49 27 -88q0 -10 -2.5 -25.5t-2.5 -21.5q0 -31 31 -68t70 -41q37 -12 63 4 q35 20 52 56q25 45 40 63q2 12 25 84q12 37 27.5 53.5t17.5 20.5q6 31 12 61q8 53 9 95q0 88 -45 118q-2 2 -60 -2q-49 -2 -49 17q0 4 4 12q16 25 27 74q12 35 35 57q16 16 24 82q2 23 17.5 49.5t15.5 40.5q0 10 -15.5 42t-15.5 52.5t-9 52t-7 93.5q0 25 -12.5 41t-26.5 32 q-29 45 -84 101q-6 4 -17 4q-14 0 -57 -12q-55 -14 -84 -19q-29 -18 -31 -18q-23 -18 -24.5 -46t-18 -54.5t-20.5 -51.5q-14 -109 -14 -156q0 -23 7 -52t5 -77q-2 -90 18 -124q16 -43 39 -107q2 -4 12.5 -19.5t10.5 -23.5q0 -12 -25 -16q-27 -4 -41 0q-23 8 -45 8 q-68 2 -102 43l-66 106q-29 29 -56.5 59.5t-37.5 106.5q-2 14 -19.5 44t-17.5 44z" />
<glyph unicode=":" horiz-adv-x="573" d="M117 899q2 10 23.5 32.5t34.5 51.5t38 41q43 20 70 20q59 0 77 -32q12 -18 33 -29q14 -10 29 -41q10 -4 33 -76q6 -37 -19 -59q-6 -6 -55 -33q-18 -10 -29.5 -26.5t-25.5 -18.5q-59 -10 -60 -10q-29 0 -55 14q-41 23 -49 50.5t-10 29.5q-39 31 -35 86zM150 174 q2 125 110 125q63 0 117 -29q18 -10 54 -48t43 -41t11 -27q2 -31 -12 -66q-23 -57 -49 -59q-12 -4 -16.5 -13.5t-10.5 -13.5q-51 -37 -71 -35q-12 2 -119 62q-59 25 -57 145z" />
<glyph unicode=";" horiz-adv-x="567" d="M121 887q0 23 14 74q23 53 58 65l36 18q12 6 62.5 -13t68.5 -40q14 -12 48 -55q23 -47 22 -51q0 -18 -8 -41q-12 -33 -27.5 -47.5t-29.5 -26.5q-33 -31 -76 -29q-68 2 -78 0q-29 -6 -41 9.5t-35 52.5q-16 27 -14 84zM127 139q0 33 18 58q2 23 17 61q18 33 47 43 q37 10 72 18q8 2 33.5 -9t35.5 -13q41 -8 49 -37q16 -49 41 -76q17 -16 13 -190q0 -35 -13.5 -55.5t-25.5 -36.5q-20 -35 -39 -52q-14 -47 -35 -62t-33 -58q-6 -20 -16 -31q-16 -16 -25 -29q-12 -20 -49 -28q-31 -6 -41 0q-18 12 -18 49q0 51 24 90q23 27 43 51q31 41 31 86 q0 23 -6 45q-4 16 -41 45q-25 18 -47 37q-35 53 -35 94z" />
<glyph unicode="&#x3c;" horiz-adv-x="1024" d="M47 596q0 23 41 57q2 6 25 2q12 18 22 23q16 16 88 49q27 8 56 25q20 14 36 14q41 0 85 34t79 36q29 2 64 28.5t45 26.5q37 -2 64.5 23.5t45.5 31.5q43 14 90.5 49t102.5 47q20 4 47 -10t31 -45q6 -14 6 -24q0 -23 -31 -43q-43 -25 -84 -50q-27 -4 -82 -28 q-31 -27 -90 -55.5t-80 -45.5q-20 -25 -51 -28q-37 -8 -57 -21q-29 -6 -86 -26q-12 -2 -51 -33t-89 -43q2 -8 37 -27q6 -2 105 -41q4 -2 33 -26q20 -16 57 -15q31 2 59 -24q20 -20 39 -40t43 -28q37 -10 62 -24q16 -12 33.5 -23.5t74.5 -13.5q31 -2 52.5 -25.5t33.5 -26.5 q49 -16 60 -34q12 -27 22 -54q4 -8 4 -22q0 -78 -47 -68q-31 12 -117 66q-29 14 -68.5 20t-54.5 21q-43 39 -110 65q-59 23 -76.5 45.5t-58.5 31.5t-49 15q-29 25 -74 38.5t-62 25.5q-39 23 -100 53q-39 10 -94 39q-16 6 -19 27q-2 29 -7 37t-5 14z" />
<glyph unicode="=" horiz-adv-x="1024" d="M20 399q-2 61 58 74q27 6 61 6q29 0 90 -6q55 -6 78 -4q35 0 111 8q12 2 100 0q29 6 94 0q20 -6 43 -4q20 4 29 0q94 4 217 0q23 -8 43 -16q29 -17 23 -58q-10 -57 -72 -57q-6 -2 -66 4q-16 -2 -77 0q-53 8 -103 -4q-106 0 -88 2q-31 -6 -115 0q-14 6 -42.5 1t-43.5 -1 q-23 8 -51 2q-31 -6 -47 -4q-16 6 -51 1t-49 -1q-51 0 -105 2q-35 6 -37 55zM33 702q8 53 69 54q4 2 64 -4q20 4 84 8l98 -4q88 -8 141 -2q43 4 64 0q16 -6 41 -2q31 6 41 6q37 4 110 0q37 0 105 -10q12 0 49 2h55q25 0 31 -10.5t8 -47.5q4 -43 -28 -57q-20 -4 -43 -10 q-68 -14 -111 -4q-41 10 -96 8q-74 -4 -113 0q-16 2 -61 -4q-51 -6 -80 -7q-16 0 -50 7.5t-46 7.5q-10 0 -28 -6t-26 -2q-20 -4 -92 2q-35 8 -76 2q-41 -4 -45 -4q-39 14 -43 18q-29 18 -22 59z" />
<glyph unicode="&#x3e;" horiz-adv-x="1024" d="M45 1012q0 78 47 67q33 -10 117 -65q29 -14 72 -23q37 -4 51 -18q43 -39 110 -66q59 -23 77 -45t58.5 -31.5t49.5 -15.5q29 -25 73.5 -38t61.5 -25q39 -23 100 -54q41 -10 94 -39q16 -6 19 -26q2 -29 10 -39q2 -6 2 -12q0 -23 -41 -58q-2 -6 -24 -2q-12 -18 -23 -22 q-16 -16 -88 -49q-27 -8 -55 -25q-20 -14 -37 -14q-41 0 -85 -34t-76 -36t-66.5 -28.5t-45.5 -26.5q-37 2 -61 -21q-31 -29 -49 -35q-43 -14 -90 -49t-103 -47q-20 -4 -46.5 10.5t-30.5 44.5q-6 14 -7 25q0 23 31 43q43 25 84 49q27 4 82 29q31 27 90.5 55.5t79.5 44.5 q20 25 54 31t55 18q29 8 86 27q12 2 51 32.5t88 43.5q-2 8 -37 26q-6 2 -105 41q-4 2 -32 27q-20 16 -54 14t-63 25q-20 20 -38.5 39.5t-43.5 27.5q-37 10 -61 25q-16 12 -34 23.5t-75 13.5q-31 2 -52.5 25.5t-33.5 25.5q-49 16 -59 35q-13 26 -23 53q-4 8 -4 23z" />
<glyph unicode="?" horiz-adv-x="905" d="M84 1352q0 35 20 78q18 37 62 94q16 18 143 39q33 -6 111 -7q35 4 57 5q23 0 82 -29q49 -20 101.5 -43t64.5 -59q6 -18 46 -66.5t50.5 -75.5t16.5 -117q0 -10 -16.5 -52t-12.5 -66q6 -25 6 -35q0 -6 -10 -17.5t-17 -50.5q-8 -57 -32 -82q-31 -25 -60 -51 q-53 -78 -110 -100q-14 -12 -78 -49q-29 -16 -39 -39q-14 -35 -20 -43q-23 -27 -27 -35t-6 -31q-27 -61 -27 -90l-14 -39q-10 -23 -8 -47q2 -43 36 -63q66 -37 76 -48q31 -20 37 -45q2 -12 2 -71q4 -47 -3 -63.5t-34 -37.5q-43 -63 -119 -63q-45 0 -118 35q-23 10 -34 30.5 t-19.5 39t-8.5 28.5q0 6 6.5 27.5t6.5 48.5q0 43 38 76q33 29 74 32q35 4 35 64q0 43 -14 86q-8 25 -2 55q6 43 6 51q-2 20 8 50t12 42q8 61 27 89q43 63 55 86q29 55 94 159q18 23 31 84q14 72 8 142q-4 47 2 79l6 41q0 25 -24 74q-33 63 -90 86q-33 8 -64 15 q-10 4 -16 -27t-2 -57l4 -35q0 -8 -23 -64q-31 -78 -104 -78q-25 0 -51 9q-121 41 -121 131z" />
<glyph unicode="@" horiz-adv-x="1523" d="M-8 715q0 113 84 223q41 53 43 117q4 98 12 131q14 53 57 92q35 23 70 47q90 55 313 184q35 18 66 19q18 0 58 -12.5t67 -12.5q47 0 97 14.5t81 14.5q37 0 88 -12q168 -74 250 -160q39 -41 78 -123t63 -109q91 -94 107 -219q2 -18 2 -35q0 -31 -10 -75q-12 -57 -15 -84 q-8 -14 -26 -45q-6 -8 -17 -23q-20 -33 -30 -82q-2 -8 -29 -21l-27 -14q-33 -27 -45 -49q-16 -31 -33.5 -49t-81.5 -55q-72 -41 -84 -51q-51 -29 -88 -29q-43 0 -94 27q-12 6 -49 38q-29 27 -49 27q4 0 -57 -18q-27 -8 -84 -54q-45 -35 -95 -34q-16 0 -36 4q-66 12 -72 39 q-2 8 -53 45q-20 18 -27 55q-8 45 -45 94q-20 27 -26.5 57.5t-10.5 34.5q-10 16 6 54q8 12 27.5 102t32 113.5t57.5 56.5q59 43 76.5 80t19.5 39q27 43 78 88q33 -12 156 -19q18 -4 55 -2q14 4 27 4q10 0 33.5 -7t43.5 -3t46 23.5t63 25.5q25 -12 59 -14q25 0 50.5 -27.5 t25.5 -74.5q0 -53 -49 -90q-23 -16 -35 -52q0 -4 -12 -23.5t-12 -30.5t-9.5 -45t-9.5 -46q2 -12 2 -21q0 -23 -25.5 -56.5t-27.5 -82.5q-8 -12 -18 -78q-2 -35 6 -47q4 -4 24 -10q27 -14 53 -14q47 0 52 34q6 25 30 48q18 10 37 18q37 23 49 59q18 55 66 127q12 55 12 103 q0 78 -43 186q-18 49 -35 100q-25 47 -86 80q-27 14 -77 62q-41 39 -82 49q-23 6 -52 6q-23 0 -62.5 -6t-53.5 -6q-39 0 -109 31q-78 33 -104 36q-94 -45 -185 -135q-113 -111 -168 -248q-39 -96 -47 -192q-4 -57 2 -199q8 -188 76 -297q76 -121 240 -178q72 -27 137 -27 q8 0 203 23q244 27 325 147q12 18 47 39t48.5 42.5t70 53t95.5 31.5q49 0 49 -59q0 -20 -29 -43q-45 -33 -59 -51q-41 -74 -68 -99q-51 -49 -182 -108q-96 -43 -156 -88q-37 -27 -72 -53q-37 -4 -65 -4q-80 0 -145.5 29.5t-133.5 62.5q-33 14 -135 37q-76 16 -123 55 q-29 25 -108 149q-47 76 -121 150q-57 57 -95 140t-38 155zM539 520q10 -18 30 -57q10 -23 33 -31t45 -16q12 -6 29 0q18 8 22 18q12 25 33 39t27 33q14 41 37 63q16 18 18 37q14 25 31 70q0 4 10 49q6 35 4 50.5t7.5 29.5t11.5 43q4 70 -15.5 94.5t-42 51t-49.5 26.5 q-61 0 -96 -94q-4 -27 -25 -76q-16 -39 -16 -35q-16 -49 -37 -78.5t-23 -38.5q-2 -63 -22 -114q-18 -41 -12 -64z" />
<glyph unicode="A" horiz-adv-x="1910" d="M-12 78q-3 14 -3 28q0 19 5 39q2 12 53 45q27 14 82 21q47 6 78 33q10 8 63 30q37 14 76 74q33 37 78 117q4 16 17.5 32.5t13.5 32.5q0 10 6 22.5t8 29.5q6 41 19.5 56t17.5 43t17 45t13 26q4 20 27 45.5t29 42.5q16 20 34.5 44.5t24.5 76.5q4 37 22.5 57t22.5 29 q8 25 29.5 46t26 31.5t10.5 42.5q2 57 23.5 91t21.5 94q0 37 5 54t5 21q2 31 16.5 41.5t21.5 22.5t23 35q20 33 39 37q47 6 93 12h8q28 0 53 -25q12 -18 25 -34q27 -31 36 -89q8 -45 52 -75q33 -23 39 -56q16 -66 28 -94q6 -12 4 -31q-4 -31 -2 -57q6 -29 13 -84 q2 -29 20 -60.5t27 -74.5q0 -14 18 -51q14 -18 18.5 -51t28.5 -66q6 -37 23.5 -60.5t25.5 -54.5q0 -27 13 -86q0 -10 20 -39q18 -14 23 -47q8 -43 24 -71q-4 -10 29 -56q10 -10 16 -57q4 -39 49 -57q4 -8 35 -19q135 -2 184.5 -7t57.5 -5q27 0 51 -23q14 -13 13.5 -32 t-13.5 -43q-23 -43 -50.5 -48.5l-57.5 -11.5q-20 -12 -39 -6q-12 4 -23 10q-14 3 -32.5 3t-41.5 -3q-18 -3 -35 -3q-22 0 -40 5q-29 4 -58 -2q-18 -4 -44.5 3.5t-37.5 5.5q-29 -4 -43 -5q-14 0 -39.5 11.5t-83.5 11.5q-20 0 -35.5 -8t-24.5 -7t-23.5 -5.5t-28.5 -6.5 q-35 0 -65.5 -11t-51.5 -9q-16 0 -41 18q-2 2 -63 2q-23 0 -43.5 12.5t-30.5 12.5q-14 0 -37 -16q-39 -2 -106 -11q-16 -2 -42 -14t-57 -12q-16 0 -39 2q-29 4 -59.5 -6.5t-48.5 -10.5q-33 10 -115 15q-18 3 -53.5 3t-87.5 -3q-10 -2 -17 -2q4 0 -32 8q-12 3 -31 3 q-25 0 -62 -5q-25 -4 -34 0l-22.5 10t-28 12.5t-27.5 28.5t-6 37zM604 238q10 -25 41 -35q39 -12 57 -35q12 -16 31 -16q20 2 41 2q39 -2 86 -33q20 -12 33 -12q12 0 30.5 21.5t41.5 21.5q16 0 96 -7q15 -1 26 -1q32 0 43 8q12 18 44 49q10 8 9 18t3 14q10 28 10 89 q0 49 -7 64t-7 22q0 53 -105 104q-8 6 -47 10q-28 4 -47 4q-13 0 -22 -2q-35 -4 -48 -4q-31 0 -49 -11t-35 -11q-18 0 -49 6q-18 4 -37 -8q-23 -18 -49 -21.5t-58 -38.5t-32 -67v-131zM719 725q0 -14 6 -23.5t12 -16.5t27 -9l80 -10q-10 2 47 6q10 0 41 14q25 14 46 30.5 t23 57.5q1 33 1 57q0 41 -4 49q-7 14 -25 38q-6 10 -10 36q-2 20 -11.5 26.5t-31.5 31.5q-14 18 -37 18q-12 0 -31 -6q-27 -23 -34 -47.5t-17 -32.5q-27 -25 -29 -40t-2 -30q-10 -25 -10 -49t-17 -47q-25 -33 -24 -53z" />
<glyph unicode="B" horiz-adv-x="1619" d="M18 31q0 12 21.5 32.5t32.5 24.5q37 0 106 2q16 6 47 21q72 31 90 102q0 20 9 61q2 4 2 97q0 25 26.5 58.5t26.5 64.5q0 8 -6 32.5t-6 38.5q0 31 -7 84q-4 9 -4 31q0 28 6 76q4 31 5 59q0 27 -5.5 78t-5.5 82q0 41 6 82q4 25 -2 55.5t-6 44.5q0 27 -14 55q-10 18 -21 37 q-12 31 -22 62q-18 35 -57 45q-27 18 -97 43q-90 12 -90 57q0 33 29 51q18 14 49 31q7 1 21 1q29 0 90 -3q26 -1 52 -1q51 0 101 5q9 1 17 1q29 0 55 -11q33 -14 43 -14q16 0 37 10q27 12 89 12h19q23 0 65 4t50 4q16 0 51 -20.5t60 -20.5q12 0 22 2q25 6 43 2q20 -2 25 -2 q23 4 42 4q12 0 23 -2q37 -8 58 -8q18 0 34.5 7.5t24.5 7.5q27 -4 70 -43q72 -63 118 -99q4 -4 89 -39q39 -16 61 -82q11 -32 11 -82q0 -14 -1 -30q-2 -68 -14 -97q-18 -29 -52 -48t-57 -64q-6 -12 -29.5 -20.5t-42 -11.5t-46.5 -17q-42 -65 -42 -96q0 -5 1 -9 q12 -47 81 -63q104 -25 124 -35t40 -35q27 -31 43 -45q37 -31 43 -96q11 -123 11 -172v-13q-4 -63 -9 -75q-2 0 -34 -33q-27 -16 -68 -59q-6 -10 -33 -29q-27 -29 -53 -57q-39 -33 -135 -39q-35 -2 -54.5 -22.5t-44.5 -20.5q-6 0 -16 -4.5t-12 -4.5q-23 12 -74 37 q-18 2 -43 19q-2 8 11 19l14 11q35 16 104 64q45 31 100 72q16 14 25 47q12 49 25 75q14 31 14 103v18q0 27 -16 56l-15 30q-6 45 -45 99q-23 12 -69 41q-10 12 -31 34q-4 2 -49 2q-18 0 -82 21.5t-92 21.5q-12 0 -23 -4q-33 6 -45 -2q-23 -12 -37 -12q-6 0 -22.5 8t-38.5 4 q-8 -6 -35 -26q-31 -35 -35 -119q-2 -55 -2 -113q-4 -19 -4 -37q0 -22 6 -43q4 -78 8 -155q12 -113 78 -150q23 -12 55 -33q10 -8 11 -18q0 -18 -22.5 -35.5t-51.5 -21.5q-10 -2 -19 2q-14 2 -32 2t-29.5 -5t-26.5 -5q-20 2 -49 -5q-35 -6 -51 -6q-29 0 -63 11 q-35 -8 -72 -8q-15 0 -31 1q-51 4 -61 2q-23 -6 -84 -12q-23 0 -46.5 -11t-33.5 -11h-6q-41 -1 -71 27q-28 26 -28 54v7zM641 1075q0 -84 8 -114q8 -10 27 -62q16 -72 45 -82q10 -2 35 6q33 8 78 8t65 11q10 8 23.5 18t31.5 2q41 -10 43 -10q92 27 117 61q8 20 39 76 q5 7 5 30q0 17 -3 42q0 4 -6 69q-4 49 -33 127q-37 96 -74 105q-59 14 -110 39q-43 20 -49 20q-41 0 -76 11q-27 6 -35 2q-12 -6 -16 -14.5t-8 -16.5q-10 -8 -35 -35q-53 -53 -54.5 -83t-7.5 -97q-8 -33 -10 -113z" />
<glyph unicode="C" horiz-adv-x="1529" d="M55 702q0 16 8.5 56.5t8.5 85.5t15 71.5t22 67.5q4 25 17 43t26.5 36.5t35.5 43.5q23 14 31 43q10 39 21 53q23 31 24.5 54.5t20.5 50.5q31 33 114 94q37 12 74 24.5t51 30.5q27 35 57.5 43t49.5 29q23 31 61 33q16 -1 36 -1t44 1q23 4 39 4q23 0 46.5 -10.5t35.5 -12.5 q57 -10 88 -108q2 -7 2 -13q0 -62 -217 -71q-16 -2 -33.5 -6.5t-41 -27t-44.5 -50.5q-8 -10 -33 -19q-14 -33 -28.5 -41t-34.5 -39q-49 -76 -49 -188q0 -37 8 -121q5 -36 5 -58q0 -17 -3 -26q-20 -80 -20 -131q0 -29 12 -85t12 -71v-26q-2 -14 -2 -21q0 -27 14 -55 q33 -66 56 -154q6 -23 14 -24.5t14 -3.5q31 -45 101 -76q27 -14 55.5 -27.5t80.5 -13.5t80.5 -5t31.5 -5q18 0 69 20q61 25 74 27q4 0 43 8q14 4 23.5 -8.5t9.5 -28.5q0 -39 -46.5 -79t-91.5 -40q-18 0 -43.5 7.5t-33.5 5.5q-37 -23 -99 -47q-14 -2 -38.5 4t-39.5 6 q-29 -4 -78 -4q-32 0 -73 2q-55 10 -96 46t-62 40q-27 6 -84 69q-66 74 -102 95q-16 8 -47 45q-23 25 -47 49q-33 37 -45 96q-12 16 -31 64q-14 74 -30.5 97t-26.5 77q-10 45 -11 75zM1169 1282q0 25 21 64q20 33 37 45q12 25 35 69q29 39 65 49q33 4 43 0q23 -8 37 -47 q14 -38 14 -106q0 -44 -7 -101v-10q0 -37 18 -127q1 -4 1 -8q0 -33 -42 -109q-6 -10 -33 -2q-31 6 -60 43q-4 27 -24 74q-41 37 -86 88q-8 20 -19 78zM1245 176q-5 17 -5 33q0 37 26 67q23 25 22 41q-2 8 17 41q12 8 35.5 59.5t37.5 51.5q6 -2 26.5 -20t9.5 -41 q-10 -35 -36 -115q-10 -23 -10 -57q0 -27 -18.5 -51.5t-46.5 -28.5q-11 -2 -20 -2q-31 0 -38 22z" />
<glyph unicode="D" horiz-adv-x="1763" d="M10 1466q0 12 8 21q18 14 23 20q16 23 49 29h3q15 0 87 -12q46 16 71 16h5q35 -4 68 -8q8 0 71 10q33 -8 56 -4q33 6 45 6q16 0 47 -8h-1q0 2 76 8q12 0 156 -12h-1q0 2 116 8h3q27 0 83 -35q8 -4 44 6.5t54 10.5t33 -9q55 -36 94 -36h6q33 2 45 -4q20 -8 82 -25 q18 -4 45 -43q31 -45 84 -78q8 -4 15.5 -21.5t35.5 -33.5q10 -6 15.5 -28.5t7.5 -24.5q29 -27 41 -66t27 -47q10 -20 38 -59q18 -18 29.5 -59.5t44.5 -74.5q14 -14 15 -118q0 -2 4 -68q0 -10 1 -21q0 -33 -5 -79q-2 -23 -11 -35q-12 -23 -16 -37q-33 -88 -81 -134t-56 -69 q-2 -4 -37 -51q-4 -8 -35 -43q-14 -14 -25 -39q-12 -31 -14 -33q-29 -41 -88 -73q-104 -57 -106 -60q-40 -28 -88 -28h-3q-70 0 -94 45q-4 8 -4 15q0 20 33 36q20 18 65 53q14 16 43 51q6 -2 25 33q18 49 78 119q45 51 45 112q0 25 -6 58q-4 22 -4 40q0 23 6 40q6 29 6 131 q0 81 -4 209q-2 88 -31 116q-2 12 -16 50q-10 25 -46 55.5t-44 44.5q-12 39 -29 86q-2 10 -20 18q-31 12 -44 21q-8 0 -24 -2t-23 -2q-12 0 -38.5 8t-49.5 8q-16 0 -34 -4q-7 1 -19 1q-30 0 -94 -7q-14 -2 -25 -2q-25 0 -40 13t-21 13q-12 0 -31 -14q-29 -18 -63 -33 q-16 -6 -28.5 -33.5t-18.5 -70.5q-8 -51 -25 -100q-2 -6 -2 -15q0 -6 14 -49q11 -32 11 -64q0 -11 -1 -22v-8q0 -18 5 -60q8 -59 8 -110t-6 -109q-4 -41 -23 -78q-4 -8 -4 -18q0 -6 7 -34.5t5 -53.5q-2 -16 8 -59q8 -31 15 -60q-1 -12 -1 -32.5t1 -51.5q2 -33 4 -100 q2 -45 31 -64q41 -25 84 -47q2 -2 25.5 4.5t58.5 6.5t65 -37q4 -6 20.5 -15.5t18.5 -11.5q6 -2 -7 -18.5t-24 -20.5q-23 0 -86 -20q-14 -6 -22 -6q-2 0 -26.5 9t-69.5 9q-20 0 -40 -4t-28 -4q-2 0 -84 10h-5q-24 0 -96 -14q-59 -12 -112 -13q-19 0 -37 2q-18 6 -47 7 q6 0 -74 8q-12 2 -26 -4q-20 -6 -31 -9q-14 -2 -57 27q-31 16 -31 53v9q20 41 68.5 51t99.5 20q41 10 45 74q4 76 24 96q12 12 21 96q5 65 5 116q0 26 -1 48q-1 26 -1 43.5t1 26.5q9 55 9 104q0 34 -4 65q-6 40 -6 78q0 34 5 66q4 29 4 59q0 42 -8 85v21q0 42 -6 91 q-31 45 -39 99q-6 39 -39 61q-20 14 -39 12q-27 -2 -53 -4q-39 0 -49.5 5t-28.5 32q-2 4 -27 31q-10 10 -8 24z" />
<glyph unicode="E" horiz-adv-x="1636" d="M2 1442q2 41 59 71q47 25 105 31q18 0 63 -13t58 -13q23 -2 56.5 11t57.5 13q23 0 52 -8q18 -4 57 3t43 5q35 -18 90 -47q16 -6 33 -6l53 10q15 2 30 2q26 0 54 -6q10 -2 31 2q29 6 49 6q31 0 74 14.5t59 14.5q20 0 74.5 -17.5t89.5 -19.5h6q23 0 66 12q66 16 71 17h7 q50 0 116 -51q25 -21 25 -80q0 -24 -4 -54q1 -26 1 -57.5t-1 -69.5q-1 -8 -1 -16q0 -38 17 -62q20 -28 20 -73q0 -55 -22 -94q-6 -8 -37 -9q-27 -4 -35 19q-6 16 -37 57q-10 14 -17 50t-26 57q-63 37 -82 88q-10 29 -75 71q-2 2 -45 52q-15 17 -61 17q-9 0 -19 -1 q-9 -1 -19 -1q-20 0 -45 3q-16 -4 -47 -4t-78 4q-35 8 -52 8q-9 0 -13 -2q-45 -14 -93 -29.5t-73 -54.5q-10 -16 -16 -149q-2 -25 -14.5 -59.5t-12.5 -49.5q0 -25 19.5 -50.5t25.5 -92.5q2 -25 17.5 -32t29.5 -13q2 -1 5 -1q18 0 73 19q25 20 149 70q41 12 41 90q0 35 9 49 q10 23 12 29q14 55 35 72q10 10 14 8q12 -8 25 -17q29 -14 43 -75q2 -12 2 -27q0 -33 -13 -76q-16 -53 -16 -55q0 -18 -10 -98q-4 -31 0 -41q4 -18 10 -35q6 -29 20 -99q6 -29 6 -51q0 -31 -12 -47q-12 -18 -59 -8q-16 0 -33 22q-37 61 -74 80q-25 8 -46 19.5t-50 40.5h-63 q-23 4 -45 18q-14 10 -52 6q-10 0 -26 -30q-12 -23 -23 -43q-10 -10 -10 -27q0 6 -16 -90q-4 -25 -4 -43q0 -35 18 -73t20 -68q4 -68 35 -127q10 -14 21.5 -46t42.5 -63q23 -18 131 -18q12 0 33.5 7t35.5 3q14 -3 28 -3q37 0 71 23q20 10 45 11q45 27 60.5 31.5t56.5 6.5 q8 2 30 29q29 35 70 60q18 10 27 38q14 39 45 78q12 18 28 43q29 27 42.5 66t17.5 43q14 14 45 8q16 -2 59 -57q14 -18 19 -54q4 -51 12 -79q2 -9 0 -54q-2 -74 -21 -114q-31 -74 -41 -113q-8 -27 -24 -49q-23 -27 -35 -58q-8 -1 -17 -1q-37 0 -75 28q-53 39 -80 39 q-18 0 -41 -10q-14 -6 -29 -2q-25 8 -26 8q-18 -1 -47 -13q-22 -9 -51 -9q-9 0 -19 1q-2 0 -21.5 14.5t-44.5 10.5q-33 -6 -61 -6q-27 0 -52.5 6t-27.5 6q-6 0 -21.5 -11t-20.5 -13t-13 -2q-6 0 -35 4t-49 2q-31 0 -57 -13q-18 -8 -44 -8q-47 0 -129 31q-10 4 -79 4 q-12 0 -39 5t-31 5q-20 1 -59 -29q-34 -26 -66 -26h-8q-39 8 -111 16q-20 2 -63 31q-23 18 -17 35q2 8 22.5 25.5t35.5 19.5q70 12 164 45q10 8 18 39q4 23 8 45q18 57 19 59q0 6 -11 52v5q0 26 16 60q15 31 16 97q0 14 -1 30q-3 78 -3 142.5t3 115.5q0 33 -10 64.5 t-10 48.5q0 12 4 28q16 82 16 123q0 43 -33 119q-12 37 -30 86q-18 41 -39 55q-27 12 -54 25q-10 6 -51 -12q-16 -8 -56 12q-38 19 -38 73v5z" />
<glyph unicode="F" horiz-adv-x="1642" d="M20 102q0 31 31 58q27 16 86 18q37 2 107 25q27 4 63 14q8 2 35 47q16 29 33 58q8 18 8 40q0 23 -11.5 68t-11.5 70q0 14 2 26q4 18 0 31l-4 12v9q0 29 12 62q14 38 15.5 53.5t7.5 76.5q2 10 -4 33.5t-6 30.5q-2 18 8 63q12 57 12 107q-2 49 0 59q9 73 9 93q0 75 -23 140 q-14 41 -50 55.5t-169 22.5q-102 6 -123 51q-4 10 -4 23q0 31 29 61q23 23 39 31q2 2 61 -6h6q24 0 90 12q69 -15 98 -15q6 0 11 1q29 5 53 5q12 0 23 -1q47 -6 71 -6q14 0 46 -9.5t51 -9.5q16 0 81 11q42 7 75 7q13 0 24 -1q100 -8 145 -39q12 -10 15 -23q2 -18 -31 -22 q-45 -6 -70 -43q-6 -8 -30.5 -17.5t-34.5 -25.5q-16 -27 -31 -109q-16 -57 -16 -98t-13 -82q-10 -14 -10 -51q0 -23 4 -49q6 -41 96 -82q10 -7 53 -7q17 0 40 1q23 4 81 55q10 4 23 31q6 14 14 30q16 10 43 52q14 23 25 24q2 0 33 -8q63 -18 67 -80q2 -27 2 -53 q0 -91 -22 -166q-6 -18 -6 -33q0 2 8 -45q4 -18 4 -42t-4 -54q-4 -35 -4 -60v-16q2 -23 14 -72q12 -41 8 -55q-6 -25 -51 -18q-39 0 -84 84q-20 39 -51 159q-8 33 -17 45q-14 20 -59 60q-52 42 -110 42q-20 0 -41 -5q-37 -10 -66 -117q-9 -25 -9 -100q0 -57 5 -142 q2 -23 14 -41q16 -25 19 -28q20 -59 59 -95q14 -10 48 -17t71 -32q20 2 59 -2q59 -27 70 -59q1 -9 1 -17q0 -38 -30 -57q-47 -29 -149 -29q-30 0 -66 3q-33 2 -78 2q-2 2 -55 6q-12 2 -35.5 7t-25.5 5t-23.5 -6t-34.5 -6q-20 0 -48 8t-38 8q-12 0 -22 -8q-29 -23 -76 -27 q-66 -6 -119 -24q-2 0 -51 12q-10 2 -47 0q-31 0 -78 19.5t-61 60.5q-4 10 -5 22zM1085 1456q-4 6 2.5 24.5t12.5 20.5q29 20 51 21q41 0 49 2q30 5 62 5q16 0 32 -1q37 -6 74 -10q12 -2 51 7t51 9h5q34 0 59 -23q16 -25 45 -63q14 -18 16 -66q2 -38 2 -65q0 -39 -4 -51 q-3 -12 -3 -26q0 -22 7 -52q4 -17 4 -33q0 -36 -18 -72q-12 -27 -51 -39q-3 -1 -5 -1q-25 0 -52 71q-16 25 -48 76q-6 16 -30.5 44t-32.5 32q-27 12 -70 49q-53 47 -102 80q-10 10 -35 26q-2 0 -35 9q-20 6 -37 26z" />
<glyph unicode="G" horiz-adv-x="1697" d="M43 707q0 94 20 114q10 35 33 90q12 14 29 37q-1 17 -1 34q0 96 48 167q20 35 43 70q31 45 74 69q8 4 24.5 25.5t36.5 32.5q12 20 70 59q74 33 112 82q23 20 68 33l98 8q96 8 135 33.5t60 25.5q8 0 25.5 -8t33.5 -10q10 -2 40 -27.5t65 -38.5q20 -8 44.5 -28.5 t51.5 -28.5q15 -12 34 -12q30 0 70 30q104 60 124 60h1q27 -2 52 -54q20 -40 26 -77q2 -11 2 -34.5t-2 -58.5q-4 -63 -10 -79.5t-20 -73.5q0 -61 -17 -152q-10 -16 -25.5 -26.5t-23.5 -3.5q-37 23 -54.5 76t-56.5 75q-2 2 -22 47q-6 16 -33 35q-53 39 -90 96q-31 49 -88 80 q-61 23 -92 23t-70 -17q-4 -2 -17.5 4.5t-21.5 6.5q-12 0 -22 -7q-23 -10 -39 -10q-2 0 -19 2q-10 2 -22 -2t-33 -16q-47 -31 -55 -46.5t-31 -31.5q-41 -31 -51 -49q-8 -10 -17 -47q-6 -23 -26 -68q-16 -31 -17 -69q0 -16 2 -37q2 -14 -14 -62q-16 -53 -20 -100 q-8 -101 -8 -175q0 -100 14 -151q14 -53 14 -80q0 -12 -3 -22t-3 -14q0 -18 37 -89q23 -31 53 -92q8 -29 15.5 -36t74.5 -62q45 -28 158 -28q20 0 43 1q14 0 35.5 5.5t33 3t35 7t47.5 9.5q16 0 35 -4q16 -2 41 0q12 2 13 -6q0 -6 -5 -23q-12 -57 -84 -104q-68 -18 -151 -43 q-60 -17 -60 -20q0 -1 3 -1q-31 0 -93 37q-41 16 -79 35q-31 10 -107 22q-29 12 -82 35q-4 2 -41 35q-33 23 -59.5 75t-116.5 111q-70 59 -84 107q-2 29 -39 82t-37 147q0 10 -7 50t-5 47zM999 676q-1 2 -1 3q0 17 53 54q18 13 38 13q15 0 31 -7q23 -20 47 -20q23 0 59 21.5 t46 25.5q3 1 8 1q25 0 96 -28q4 0 23.5 5.5t34.5 5.5q-10 0 53 -9q39 -4 57 9q47 18 84 18q12 0 45 -21.5t37 -29.5q16 -25 16 -49q0 -31 -22.5 -44.5t-126.5 -23.5q-35 -4 -49.5 -17.5t-28.5 -27.5q-37 -37 -37 -84q0 -14 4 -34.5t4 -24.5q0 4 -11 -45.5t-12 -105.5 t-11 -128q-35 -35 -56 -43q-12 -4 -57 -8h-10q-28 0 -55 9q-23 8 -64 8q-15 0 -33 -1q-39 -2 -51 29q20 74 20 104q0 12 8.5 52.5t8.5 44.5t-2 24q-2 14 0 27l12 49q10 39 6 55q-2 23 -37 52q-16 33 -63 83q-31 18 -64 58z" />
<glyph unicode="H" horiz-adv-x="1800" d="M4 102q0 29 37 58q31 18 74 18q20 0 58 -6t54 -6q23 4 68 49q20 23 41 43q26 34 26 99q0 19 9 63q3 16 3 38t-3 50q-8 51 -19 133q-1 11 -1 21q1 50 17 90q18 44 17 95v11q-2 35 -19.5 97.5t-19.5 91.5q6 25 10 98q-2 61 -34 110q-8 23 -35 72q-12 18 -41 27 q-18 6 -37 12q-14 14 -59 43q-16 8 -39 8q-37 0 -33 0q-33 8 -49 49q-6 16 5 36t25 26q72 35 113 35q43 0 158 -35q37 -10 53 -12q10 0 52 -2.5t116 -8.5q33 -10 111 -20h4q28 -1 64 27q40 30 65 30q104 -10 120 -61q1 -2 1 -5q0 -20 -41 -66q-46 -52 -80 -52q-8 0 -27.5 11 t-24.5 11q-43 0 -57 -14t-31 -94q-12 -27 -24 -88q0 -20 8 -56q10 -41 10 -53q-1 -5 -1 -12q0 -36 18 -113q20 -51 59 -73q16 -10 31 -11q23 2 18 2q37 -6 72 -22q23 -10 61 -6q4 0 16.5 8t24.5 8q4 0 34 -7t48 -9q43 -3 78 -3q46 0 82 5q60 8 82 47q12 23 18 80q2 12 6 43 q6 25 7 32q0 6 -4.5 28t-4.5 34q0 10 3 36.5t3 43.5q0 61 -39.5 102t-99.5 94q-10 10 -45 37q-23 10 -51 41q-6 23 37 39q57 23 104 23q-4 0 37 -4q25 -3 46 -3q14 0 28 1q47 2 86 14q14 4 33.5 0t52.5 0q14 2 33 0q23 -4 32 -4q12 0 32 6t52 6q72 -2 99 -70q4 -12 4 -22 q0 -16 -60 -88q-37 -33 -84 -94q-14 -41 -36 -72q-8 -14 -9 -45q2 -57 2 -51q-2 -32 -2 -55q0 -33 4 -49q4 -20 4 -69q0 -18 -1 -40q-2 -49 -2 -81q0 -48 4 -59q8 -23 8 -120q0 -16 -6 -29q-12 -23 -17 -33q-8 -20 -8 -61q0 -74 23 -160q25 -92 57 -127q16 -23 41 -33 q18 -8 33.5 -13t44.5 -24q18 -12 37 -22q28 -19 28 -50q0 -37 -43 -59q-6 -4 -22 0q-20 4 -27 4q-10 0 -27.5 -4t-25.5 -4l-55 6q-2 0 -105 -14q-10 0 -52 9t-48 7l-58 -16q-57 -14 -82 -14q-6 0 -65 24q-29 4 -76 19q-23 12 -8 34q14 25 58 41.5t57 38.5q18 14 45 60 q8 23 8 92q0 20 18.5 92t18.5 98q0 16 -4 25l-11 108q-6 84 -49 113q-23 14 -55 14q-29 0 -76 -10q-59 -14 -67 -16q-14 -2 -33 12t-33 19.5t-86 5.5q-43 -20 -82 -21q-8 0 -39 2q-18 2 -30 0q-16 -4 -31 -18q-10 -6 -43 -27q-12 -12 -19 -84q-6 -31 -14 -76q0 -4 6 -28.5 t6 -50.5q0 -129 19 -246q6 -45 18 -59.5t25 -28.5q14 -20 43 -21q37 0 35 -26q-2 -25 -50 -25q-4 0 -53 -31q-35 -23 -79 -23q-8 0 -17 1q-16 2 -37.5 15.5t-28.5 13.5q-16 2 -57 -12.5t-82 -14.5q-14 0 -37.5 -10.5t-29.5 -10.5q-8 0 -23.5 8.5t-24.5 6.5q10 0 -47 -15 q-29 -4 -61 9q-53 16 -100 24q-10 8 -36 29.5t-26 64.5z" />
<glyph unicode="I" horiz-adv-x="925" d="M25 1452q2 33 14 43q28 35 54 35h5q4 0 24.5 -8.5t33.5 -8.5q66 8 71.5 8.5t37.5 6.5t40 6q10 0 63.5 -9t80.5 -12h7q24 0 64 11l47 14q5 0 51 -12q37 -10 59 -11q5 0 9 1q18 6 37 10q33 10 59 10q43 0 74 -25q23 -16 29 -43q8 -24 -2 -36q-14 -18 -30.5 -39t-43.5 -23 q-16 -2 -53 -18q-18 -8 -54 -29q-14 -4 -38 -29q-18 -37 -23 -59q1 -8 1 -23q0 -31 -5 -92q-8 -49 -8 -73q0 -14 11 -47q7 -21 7 -62q0 -22 -2 -49q-4 -47 -17.5 -85t-13.5 -56q-14 -37 -14 -148q0 -2 4 -24.5t2 -49.5q-5 -46 -5 -80t5 -55q0 -55 6 -135l36 -72 q36 -73 79 -73q8 -2 28.5 7t22.5 9q8 0 23 -10q18 -16 18 -41q0 -16 -10 -39q-18 -37 -78 -37q-61 0 -86 8q-25 4 -50.5 -9t-66.5 -13q-27 0 -50 14t-66 18l-31 -16q-25 -13 -56 -13q-8 0 -16 1q-10 2 -26.5 -2t-28.5 -4q-29 0 -68 12t-49 12q-41 -4 -43 0q-20 16 -20 49 q0 31 20 56q14 2 47 6q18 4 49 20q23 12 58 13q12 6 26 45q14 68 35 153q10 31 23 60q12 41 12 116q0 18 -9 75.5t-9 74.5q0 6 5 33.5t5 52.5q0 57 -8 76q-22 46 -22 68q0 4 1 7q0 6 21 95q1 13 1 33q0 40 -5 108q-2 29 -12.5 54.5t-10.5 27.5q0 39 -6 53q-45 57 -88 64 q-59 2 -113 24q-23 6 -59 25q-12 20 -10 55z" />
<glyph unicode="J" horiz-adv-x="1394" d="M39 305q0 59 20 105q8 20 47 47q31 20 62 41q23 18 53 20q6 0 35 7t53 7q55 -2 92 -51t37 -112q0 -47 -24 -84q-27 -51 -31 -90t-21.5 -68t-5.5 -43q12 -27 41 -66q42 -28 79 -28h3q25 0 53.5 15t34.5 15q4 0 24.5 -2t35.5 -2q76 0 118 56q6 8 35 32q8 8 17 48 q4 20 -4.5 40.5t-8.5 34.5q0 4 7.5 26.5t7.5 45.5t-9.5 70t-7.5 59q12 20 31 70q4 23 4 51q0 27 -5 77t-5 72q0 25 4 43q0 12 -6 33q-1 9 -1 27.5t1 46.5q1 16 1 30q0 66 -15 111q-12 40 -12 62q0 4 1 8q7 37 7 66t-7 49q-8 27 -16 77q-4 31 -25 54q-43 51 -164 73 q-25 10 -59 15q-41 4 -57 8q-23 12 -27 47q0 27 27 45q51 18 100 23q20 2 39 -15q14 -8 24.5 -15t20.5 -7q18 0 49 10q45 16 48 17t55 5q8 0 47 12.5t49 14.5q20 4 58 -17.5t69 -21.5q10 0 50 13.5t50 13.5q4 0 27.5 -8.5t32.5 -8.5q25 0 69 21q14 4 58 6h5q44 0 52 -35 q4 -18 4 -35q0 -29 -12 -53q-8 -20 -41 -35q-47 -20 -94 -41q-55 -27 -62 -49q-10 -37 -14 -41q-29 -33 -29 -69q0 4 6 -41q2 -23 -5 -38.5t-19.5 -50t-12.5 -55.5q0 -12 6.5 -39.5t6.5 -54.5v-16q0 -62 -13 -172q-4 -12 0 -33q5 -22 5 -47q0 -8 -1 -17q-1 -13 -1 -29 q0 -54 10 -145q4 -35 4 -67q0 -84 -27 -144q-23 -39 -45 -77q-20 -10 -61 -74q-18 -12 -32.5 -38t-31.5 -34q-39 -51 -69 -51q-6 0 -20.5 7t-25.5 7q-18 0 -40 -14q-37 -23 -66 -23q-8 0 -31 7q-18 2 -33 0q-23 -8 -43 -17q-27 -6 -63 2q-8 2 -23.5 -17.5t-29.5 -19.5 q-8 0 -31 11q-33 16 -57 26q-20 0 -74 10q-12 6 -41 21q-20 14 -55 39q-37 16 -75 62t-42 79q2 14 -12 39q-33 39 -33 131z" />
<glyph unicode="K" horiz-adv-x="1740" d="M8 1442q-2 33 17 57q16 18 34 21q35 0 64 8q12 4 20 4q10 0 35 -12.5t55 -14.5q12 -2 56.5 11.5t46.5 13.5q8 0 27.5 -8.5t25.5 -8.5q8 0 31.5 5.5t44.5 5.5q18 0 37.5 -5.5t40.5 -5.5q20 0 79.5 12.5t82.5 12.5q51 0 107 -17.5t60 -17.5q16 0 39 13.5t47 13.5 q35 -2 56 18q23 10 63 15h3q19 -1 92 -17q81 -18 83 -18q16 -4 29.5 7t24.5 11q14 0 37 -10q16 2 51 0q16 -3 37 -3q36 0 84 9q9 2 18 2q30 0 55 -22q27 -23 29 -47q2 -12 -10 -23q-14 -16 -23 -33q-37 -61 -86 -69q-8 -2 -37.5 2t-40.5 4q-18 2 -31.5 -21.5t-47 -23.5 t-75.5 -44t-59 -46l-30 2q-23 2 -31 -13q-23 -39 -41 -26q-10 8 -25 53q-12 82 -108 149q-15 12 -69 38q-51 24 -64 24h-2q-18 -2 -47 -25q-37 -27 -93 -41q-102 -27 -104 -112q0 -33 -2 -47q-6 -33 -29 -70q0 -20 5 -47t5 -45q0 -29 -10 -72q-2 -8 -2 -17q0 -28 19 -63 q23 -39 45 -53q8 -8 24 -4q31 8 60 16q88 18 114 64q37 61 62 78q16 16 65 53q18 12 31 8l27 -19q28 -18 34 -53q10 -59 25 -88v-5q0 -18 10 -62q12 -41 23 -82q6 -16 53 -76q33 -23 66 -47q55 -39 65 -102q10 -53 35 -82q12 -29 25 -60q16 -37 69 -69q10 -6 21 -33 q14 -33 18 -39q29 -18 70 -55q16 -29 54 -43.5t50 -24.5q16 -16 60 -31q28 -9 28 -43q0 -47 -49 -47q-23 0 -39 13q-29 20 -41 10q-50 -36 -92 -36q-8 0 -16 1q-16 2 -72 22q-43 14 -94 15q-10 0 -30.5 -10.5t-27.5 -10.5q-6 0 -23.5 5.5t-21.5 5.5q-27 -6 -51 -7 q-43 0 -121 35q-23 10 -12 35q35 25 74 72q2 15 2 28q0 52 -25 84q-27 27 -35 63t-12 42q-10 16 -49 33q-27 12 -50.5 76.5t-72.5 113.5q-29 25 -59 49l-13 23q-8 14 -17 14t-21.5 3t-16.5 3t-20 -30q-23 -41 -78 -87q-18 -14 -24.5 -44.5t-10.5 -57.5q-14 -47 -14 -74 q0 14 4 -39q2 -23 -8 -59q-5 -21 -5 -37q0 -20 8 -32q15 -22 31 -68q6 -14 16.5 -18.5t20.5 -8.5q56 -34 56 -66v-5q-6 -39 -125 -68q-28 -7 -56 -7t-55 7q-39 10 -80 10t-96 15q-29 5 -48 5q-15 0 -24 -3q-12 -4 -67 -25q-27 -8 -50 -8q-14 0 -34 2q-50 16 -50 48q0 3 1 7 q4 16 51 41t94 31q27 4 55 37q37 29 66 57q10 10 10 51q0 55 6 78q2 16 -2 47t-4 35q0 2 8 43q4 16 4 39.5t-4 56.5q-4 35 -12 57.5t-8 36.5q0 6 4 34t4 42q0 20 -12 70q-10 34 -10 70q0 9 1 18q0 10 -7 53t-7 55q0 14 8 45t8 66q0 55 -16 145q-22 115 -173 115h-15h-3 q-58 0 -61 70z" />
<glyph unicode="L" horiz-adv-x="1581" d="M8 1423q-1 8 -1 16q0 32 28 42q25 14 82 16q23 2 55.5 20.5t48.5 18.5q-8 0 58 -18q16 -6 54 -3q11 1 23 1q26 0 50 -5q8 -1 18 -1q35 0 90 16h10q35 0 119 10q18 4 41 -11.5t27 -15.5q8 0 59 9q20 3 36 3t28 -3q51 -4 129 -17q25 -10 30 -28q8 -29 31 -50q12 -29 -2 -47 t-32.5 -40.5t-39.5 -22.5q-23 0 -47 8t-45 8h-3q-31 0 -128 -33q-33 -10 -43 -28q0 -2 -6 -33q-6 -39 -6 -64q0 -2 10 -69q2 -14 2 -31q0 -40 -10 -98q-4 -27 -4 -43q0 -14 6 -37q4 -16 0 -37v-48q0 -81 -4 -212q-2 -39 -2 -74q0 -72 14 -127q8 -33 16 -63q-6 -14 -2 -60 q35 -129 146 -129q-4 0 63 4q14 0 46 9.5t57 9.5l30 -8q20 -4 31 0q10 8 68.5 16t74.5 25q6 6 50 32q12 27 43 86q16 68 49 160q12 12 33 53l10 41q8 18 20 25q7 4 16 4q22 0 52 -25q12 -8 16 -51q4 -51 13 -67q12 -25 12 -103q0 -39 -5 -65.5t-5 -32.5q0 -16 10 -55 q4 -16 0 -31q-6 -25 -8 -41q-2 -29 -3 -54.5t-12 -31.5q-74 -47 -133 -51q-35 -8 -125 -21q-31 -2 -56.5 9.5t-29.5 11.5q-29 7 -75 7q-30 0 -68 -3q-9 -1 -18 -1q-31 0 -66 11q-45 14 -86 14q-33 0 -76 -6q-49 -12 -86 -12q-18 0 -53 6q-27 4 -45 0q-10 0 -25.5 -8 t-23.5 -8q-10 0 -21 6q-47 29 -188 29q-37 0 -74 -15.5t-55 -15.5h1q0 2 -71 18q-4 -1 -9 -1q-23 0 -59 16q-16 18 -4 45q8 16 62 37q25 0 61 10q16 14 72 39q39 18 41 39q0 4 31 71q6 14 6 62q0 6 6 49q10 53 10 108q0 37 -4 76q-2 14 1 37t3 33q0 39 -22 80 q-10 20 -10 57.5t10 93.5q0 4 15 62.5t15 101.5v30q0 113 -14 124q-31 23 -35 57q-2 29 -20 35q-6 2 -35 28.5t-94 32.5q-31 2 -105 23q-41 10 -45 63z" />
<glyph unicode="M" horiz-adv-x="2082" d="M6 29q-1 8 -1 16q0 26 15 47q18 18 35 37q8 10 36 24.5t82 14.5t101 47q20 14 28.5 26.5t12.5 49.5t62 176q16 41 16 162q0 25 7.5 72t7.5 75q0 8 -25 48t-25 63q0 33 37 51q14 8 27 8q43 0 49 -141q2 -41 22.5 -79t20.5 -52q1 -19 1 -37q0 -36 -5 -66q-6 -37 -6 -70 q0 -26 4 -50q1 -20 1 -39q0 -47 -7 -86q-6 -31 0 -45q10 -33 14 -58q6 -41 20.5 -61.5t28.5 -38.5q25 -45 74 -60t49 -32q0 -7 -4 -15q-8 -14 -26 -14t-46 14q-14 6 -26 0q-16 -8 -25.5 -9t-68.5 -15q-51 -12 -88 -12t-62 -7q-37 -12 -39 -12q-23 -4 -41 2q-25 10 -29 10 q-47 -16 -112 -26q-45 12 -64 22q-45 25 -51 60zM27 1438q0 37 43 65q14 5 65 5q17 0 39 -1q53 0 86 6q25 6 53 5q14 -4 84 -5q51 0 146 -47q12 -6 47 -2q47 8 72 9q63 0 98 -23q20 -14 39 -70l24 -86q10 -25 11 -45q0 -31 2 -43q4 -25 31.5 -56.5t27.5 -45.5 q4 -51 26.5 -84t22.5 -70q0 -43 43 -106q20 -47 72 -125q14 -14 22 -14q6 0 17.5 9t25 12t33 18.5t25.5 15.5q20 0 22 -37q0 -10 -24.5 -40t-34.5 -62q-8 -25 0 -60q4 -27 -19 -53q-6 -20 -34 -57q-35 -25 -35 -60q0 -8 2 -16q8 -32 8 -84v-21q-2 -170 -23 -196 q-40 -36 -66 -36q-7 0 -13 3q-53 23 -70 68q-8 25 -12 86t-13 77q-12 70 -61 195q-18 27 -25.5 78t-15.5 61q-29 35 -35 45q-25 37 -31 68q-16 88 -37.5 127t-29.5 76q-29 129 -109 129q-18 0 -39 -9q-10 -4 -23 -20t-22 -10q-8 39 -59 149q-68 119 -152 170q-16 10 -53 10 q-8 0 -20 -1q-15 -1 -28 -1q-31 -1 -43 5q-17 8 -21.5 13t-28.5 48q-10 16 -10 33zM1286 1092q0 8 9.5 36.5t11.5 53.5q12 111 39 172q6 23 14 45q12 43 31 57q35 35 92 35q18 0 42.5 -12.5t35.5 -12.5q16 0 45 11q41 16 51 18q74 20 141 20q37 0 72 -6q59 -2 139 -12 q45 -10 45 -55q0 -19 -10 -31q-41 -53 -55 -63q-6 -4 -45 -1t-61.5 -7.5t-55.5 -82.5q-8 -18 -4 -41.5t-4 -48.5q-23 -61 -23 -109v-7q3 -77 3 -144q0 -89 -5 -158q-5 -81 -5 -128q0 -24 1 -39q3 -27 3 -51q0 -12 -1 -23q-7 -84 -7 -118q0 -14 1 -19q12 -55 12 -129 q0 -41 39 -68q33 -23 68 -45q10 -10 100 -57q36 -19 36 -47q0 -12 -7 -27q-2 -4 -6 -4h-11q-31 0 -86 -8q-29 -4 -139 -19q-23 -4 -41 -4q-43 0 -70.5 16.5t-38.5 16.5q-6 0 -73 -10q-26 -5 -46.5 -5t-33.5 5q-20 7 -41.5 7t-44.5 -7q-8 -2 -17 -2q-37 0 -83 34 q-31 23 -11 48q39 12 107 63q57 78 57 162q0 10 -2 16q-4 10 4 41q10 45 12 62q2 13 2 27q0 20 -4 40q-8 53 -8 68v9q0 32 12 86q14 62 13 77v14q0 71 -19 117q-3 8 -3 31.5t3 62.5q1 9 1 16q0 35 -15 52q-6 10 -53 -11q-20 -16 -53 -34q-10 -2 -24.5 32.5t-33.5 85.5 q-2 4 -2 9z" />
<glyph unicode="N" horiz-adv-x="1837" d="M37 1432q6 94 94 104q8 1 16 1q30 -1 73 -11q56 -14 65 -13q12 0 58 18.5t58 14.5q68 -20 201 -45q43 -2 98 -35q6 -2 28 8.5t28 10.5q8 0 41 -19q12 -8 12 -55v-13q-1 -51 13 -89q16 -43 48 -72q59 -49 64 -53q10 -12 20 -66q8 -45 43 -65q59 -35 84 -68q14 -20 29 -43 q16 -14 32.5 -30.5t24.5 -41.5q16 -57 70 -112q14 -16 41 -29q28 -17 54 -17q17 0 34 7q16 8 45 8t25 27q0 4 -14 43q-13 34 -13 63v8q5 39 5 72q0 43 -9 72q-10 35 -6 59q8 43 8 49q8 31 20 99q1 5 1 10q0 43 -48 82q-33 27 -63 30q-43 4 -96 33q-39 20 -47 27 q-14 10 -33 39q-14 20 -15 35q0 20 31 53q8 10 27 8l94 -4q66 -2 111 -13.5t59 -11.5q29 -2 59.5 10.5t32.5 12.5q8 0 25.5 -6t31.5 -6q70 0 109 19t45 19q16 2 51 -31.5t39 -58.5t-10 -50t-47 -32q-76 -12 -135 -57q-68 -49 -84 -119q-8 -33 -6 -45q2 -33 2 -61 q-2 -43 -12.5 -69.5t-10.5 -41.5q2 -39 31 -129q7 -39 7 -78q0 -48 -11 -96q-3 -12 -3 -40q0 -14 1 -32q3 -61 3 -110q0 -94 -10 -150q-4 -25 -4 -108q0 -8 -3 -26.5t-1 -28.5q2 -14 13 -29q10 -17 10 -36q0 -25 -17 -52q-10 -18 -22 -19q-4 0 -84 23q-51 14 -69.5 30.5 t-35.5 34.5q-23 18 -45 39q-33 31 -43 64q-20 74 -65 92q-37 16 -62 92q-10 31 -67 98q-8 16 -45 54q-29 18 -64 80q-37 70 -61 90q-18 14 -51 49q-14 27 -60 76q-6 6 -63 73q-14 18 -43 19q-25 0 -62 -17q-20 -8 -26 -28q-2 -6 -13 -64q-4 -22 -4 -48q0 -17 2 -36 q4 -35 9 -67q0 -14 17 -73.5t17 -100.5q0 -4 11 -115q-1 -11 -1 -27q0 -32 3 -84q10 -55 25.5 -73.5t17.5 -26.5q14 -63 88 -64q7 1 15 1q43 0 81 -20q41 -22 41 -56v-6q-10 -80 -121 -82h-23q-53 0 -128 -7q-20 -6 -55.5 -1.5t-45.5 -2.5q-39 -20 -86 -20q-12 0 -33.5 8 t-37.5 6q-117 -11 -117 -12h2q-31 0 -46.5 8t-35.5 8q-27 0 -43 4q-23 6 -38 27t-15 35q6 55 45 94q51 51 115.5 51t76.5 6q33 23 66 43q41 36 41 78v8q-3 43 -3 72t3 43q2 8 33 57q12 20 12 39q1 4 -7 40q-5 26 -6 54q0 11 1 23q1 13 1 26q0 41 -10 72q-6 25 -14 50 q-2 16 6 38.5t10 54.5t9 60q4 18 2 35q-18 57 -43 154q-14 35 -41 104q-12 31 -68 66q-10 6 -20 6q-4 0 -31 -6q-20 -4 -40 2t-40 4q-25 -4 -37 -2q-23 6 -53 30q-43 38 -43 85v8z" />
<glyph unicode="O" horiz-adv-x="1683" d="M49 788q2 33 19 72q20 51 28 92q4 18 19.5 35t19.5 25q16 45 31 92q25 59 72 100q31 27 53 76t80 96q23 8 92 68q16 12 40.5 19t47.5 14q35 6 64.5 31.5t76.5 35.5q41 8 66 8q14 0 41.5 -5t60.5 -3h7q25 0 75 -12q70 -18 70 -19q25 -2 47 -4q35 -4 63 -32q35 -35 121 -76 q68 -33 125 -117q8 -12 49 -39.5t55.5 -58.5t36.5 -56q31 -37 37 -45q31 -45 33 -98q0 -59 31 -117q15 -26 15 -50q0 -20 -11 -38q-12 -20 -19.5 -65t-9.5 -49q-8 -10 -16 -66q-6 -31 -18.5 -105.5t-37.5 -127.5q0 -16 -22 -47q-45 -35 -74 -76q-25 -33 -56.5 -52.5 t-45.5 -39.5q-20 -23 -53 -48q-39 -29 -99 -88q-16 -16 -41 -24q-41 -14 -68.5 -27.5t-52.5 -15.5q-18 -2 -42.5 2t-32.5 4q-16 0 -59.5 5t-59.5 3q-15 -1 -29 -1q-57 0 -94 20q-45 24 -86 51q-10 6 -25 6q-10 0 -32.5 -5t-32.5 -3q-86 23 -107 35q-33 16 -92 77 q-12 23 -41 72q-39 33 -96 80q-25 20 -41 88q-25 86 -55 141q-14 27 -15 47q0 10 19 54q12 29 -12 59q-20 25 -20 82q0 9 1 20zM453 768q8 -82 8 -160q0 -49 16 -110q20 -70 25 -144q4 -63 59 -151q20 -20 62 -74q46 -72 140 -71q14 0 28 1q20 8 98 17q41 0 76.5 -6.5 t44.5 -6.5q29 0 84 31q43 23 51 31q25 20 40 56t40 134q6 47 14 150q2 45 6.5 66.5t16.5 46.5q10 24 10 50q0 28 -12 58q-12 29 -21 127q-6 61 -8 176q-2 70 -10.5 92.5t-30.5 77.5q-18 37 -49 139q-16 49 -46 61.5t-81 47.5q-39 37 -64 37q-8 0 -14 -6q-20 -16 -43 -17 q-4 0 -24.5 6.5t-30.5 4.5q-66 -29 -108 -29t-59.5 -9.5t-31.5 -14.5t-18 -21q-10 -39 -36 -64.5t-28 -54.5q-27 -78 -86 -285q-19 -116 -19 -167q0 -11 1 -19z" />
<glyph unicode="P" horiz-adv-x="1628" d="M-18 1425q-2 5 -2 11q0 26 42 61q52 43 166 43q37 0 78 -4t58.5 -12t25.5 -11q16 1 60 15q39 13 106 12h19q43 -2 64.5 -14.5t53.5 -14.5q18 -2 44 -9t32 -7q35 6 71 27.5t81 23.5q31 2 59.5 -9t53 -20.5t37.5 -22.5t24 -13q27 0 45 13t53 13q23 0 49.5 -3t37.5 -13 t28 -14q47 -18 155 -41q23 -2 68 -54q37 -41 74 -79q39 -47 39 -105q0 -10 5 -34.5t5 -37.5q0 -23 -10 -41q-25 -43 -72 -79q-10 -8 -24.5 -34t-22.5 -32q-14 -20 -49 -55q-27 -23 -64 -29q-78 -12 -155 -25q-8 1 -17 1q-27 0 -67 -5q-49 -26 -97 -26h-4q-47 0 -57 14 q12 6 39 29l73 37q14 14 39 37q61 41 82 98q16 43 21 155q2 33 -12.5 62t-26.5 55.5t-49 57.5q-18 25 -64 73q-25 31 -39 27q-20 -6 -34 -6q-8 0 -33 6q-18 6 -39 0q-78 -20 -101 -21q-45 0 -59 -8q-14 -14 -32.5 -29.5t-26.5 -37.5q-12 -33 -24.5 -66t-33.5 -133 q-3 -31 11 -55q12 -21 13 -56q0 -5 -1 -10q-1 -12 -1 -24q-1 -70 21 -120q24 -58 25 -77q0 -31 -38 -80t-40 -115q0 -25 17 -108q4 -35 8 -88q16 -14 39 -49q4 -8 4 -82v-37q4 -27 28 -49q33 -31 106 -57q73 -28 89 -38q16 -11 16 -30q0 -36 -63 -66q-31 -14 -62 -10 q-59 6 -67 6q-43 0 -85 -7t-65 -7q-37 0 -96 10q-31 6 -59 2q-41 -6 -37 -6q-10 0 -37 7t-37 5q-12 0 -62.5 -17.5t-84.5 -17.5q-14 0 -29 2q-27 6 -53 11q-37 12 -62 35q-18 16 -18 36q0 25 24 45q14 12 19 15q14 6 44 8t60.5 19.5t38.5 19.5q35 8 39 12q23 12 51 60 q14 25 19 90q2 76 4 82q7 26 7 57t-7 68q4 37 4 129q-1 11 -1 24q0 29 6 69q9 58 9 74q0 10 -9 45t-9 70v15q0 39 8 83q8 41 4 54q-8 63 -18 127q-18 88 -86 108q-23 2 -76 8q-14 3 -40 3t-65 -3h-2q-40 0 -77 84z" />
<glyph unicode="Q" horiz-adv-x="1734" d="M53 774q0 51 16.5 74.5t21.5 66.5t40 84q6 6 21.5 52.5t58.5 103.5q37 45 74 88q16 20 14 53q8 27 34.5 43.5t33.5 28.5q2 4 47 49q63 63 248 70q25 0 43 16q29 23 32 25q80 37 92 37q16 0 48 -15q16 -8 55 -2q29 0 100 2q11 1 22 1q58 0 95 -29q55 -49 111 -62 q20 -4 41.5 -22.5t62.5 -37t66 -69.5q27 -61 50 -77.5t48 -32.5q33 -23 39 -62t22 -61q29 -35 33 -45q10 -23 13 -68t14 -59q29 -42 29 -94q0 -10 -1 -19q-10 -94 -41 -147q-41 -70 -53 -117q-6 -33 -41 -111q-33 -51 -47 -96q-10 -33 -35 -59q-12 -6 -22 -15 q-16 -10 -23.5 -33.5t-22 -35t-18.5 -19.5q-26 -41 -26 -109v-5q0 -72 32 -119q20 -29 97 -56q25 -8 47 -26q8 -8 55 -6h16q42 0 56 -9q8 -6 12 -26q1 -5 1 -10q0 -34 -48 -66q-39 -27 -74 -74q-25 -31 -63 -36q-23 6 -68 8q-49 -12 -99 -12q-27 0 -55 4q-8 0 -43 34 q-45 43 -124 78q-18 10 -26.5 44t-10.5 36q-10 12 -27 43q-14 45 -54 67.5t-44 47.5q-2 14 28 39q39 29 43 36q47 82 48 158q0 18 -5 29q-22 60 -22 91q0 32 27 32q8 0 20 -12.5t27 -16.5q33 -8 75 -45q37 -31 54 -29q16 0 39.5 6.5t33.5 53.5q4 20 25 176q2 16 -16.5 42.5 t-16.5 51.5q4 23 8 64q0 -4 -4 120v29q0 74 -8 178q-4 25 2 53.5t6 40.5q-2 68 -32 109q-10 31 -43 74q-14 14 -48 35q-10 6 -36 34q-14 14 -41 19q-51 31 -142 71h-3q-20 0 -124 -20q-25 -6 -53 -2q-29 4 -35 2q-4 -2 -55 -43q-18 -12 -35.5 -58t-62.5 -65 q-25 -10 -35 -25.5t-21 -31.5q-25 -35 -24 -49q-2 -41 -23 -113q-12 -43 -8 -55q6 -23 4 -45q-2 -23 -29 -134q-4 -16 -4 -34q0 -37 17 -84q6 -16 0 -47q-4 -29 4 -45q23 -41 24.5 -98.5t36.5 -110.5q18 -27 19.5 -49.5t13.5 -40.5q41 -61 80 -72q59 -14 141 -70 q14 -10 27.5 -48t13.5 -66q0 -12 -2 -19q-10 -27 -14 -31q-10 -10 -45 -14q-33 -4 -50.5 7t-33.5 22q-18 2 -96 30q-31 14 -47.5 31t-36.5 23q-49 12 -74 51q-35 51 -80 74q-39 16 -53 49q-29 33 -66 98q-12 53 -47 84q-29 25 -31 55q-4 55 -26 82q-29 33 -41 76 q-23 76 -23 133zM719 291q-12 25 8 47q12 14 28.5 31.5t31 18.5t22.5 4t18 3q25 1 23 -22q0 -8 -47 -56q-14 -18 -49 -26q-31 -6 -35 0z" />
<glyph unicode="R" horiz-adv-x="1771" d="M2 1477q-4 14 13.5 30.5t29.5 16.5q31 -2 55 -2q40 0 63 6q36 10 46 10q41 -4 61 0l45 8q10 0 28.5 -9t29.5 -9q6 -2 51 2q63 6 145 6q18 0 39 -7t31 -7q12 -2 31.5 7t25.5 9q27 -7 48 -7q14 0 24 3q39 10 49 10q29 0 78 -14q25 -2 70 -10q25 -6 39 -7q12 1 44 15 q29 13 76 12h13q63 -2 90 -45q39 -59 89 -73.5t103 -26.5q41 -12 56 -66q6 -23 34 -61q23 -35 27 -80q-4 -20 -2 -58q4 -12 -8.5 -54t-24.5 -59.5t-65 -33.5q-18 -6 -67.5 -50t-55.5 -54q-10 -16 -33 -33q-12 -12 -51 -45q-16 -2 -51 -15q-14 -8 -15 -20q0 -16 21 -29 q23 -4 59 -30q25 -39 64 -74q33 -33 34 -37q8 -41 45 -90q20 -35 31 -90q8 -47 49 -105q8 -10 8.5 -27.5t9.5 -36t58 -36.5q39 -16 55 -16q6 0 51.5 24.5t55.5 26.5t25.5 -16.5t15.5 -45.5q-2 -63 -51 -82q-33 -12 -62 -51q-23 -31 -80 -37q-14 -2 -39.5 -12t-41 -10 t-47 -9.5t-38.5 -9.5q-39 4 -88 39q-37 12 -77 33q-55 53 -56 53q-18 23 -24 64q-10 27 -21 84q8 20 13 90q-2 39 -23 84q-13 31 -13 87q0 14 1 30v6q0 37 -23 59q-31 31 -41 80q-4 18 -22.5 26.5t-36.5 14.5q-10 8 -47 13q-36 6 -58 24q-32 27 -32 59q0 25 71 47 q41 12 74 13q23 0 59 -9q23 -6 33 5.5t47 39.5q8 6 31 52q0 2 29 37q6 6 14 52q6 37 6 62v12q-8 111 -63 142q-20 18 -66 55h-1q-12 0 -95 43q-12 8 -42 9t-54 16q-39 22 -77 22h-3q-37 0 -64 -22q-16 -18 -47 -56q-23 -25 -45 -47q-10 -16 -11 -52t-7 -57.5t-6 -27.5 q0 -12 14 -43q10 -12 29 -65q3 -24 3 -41.5t-3 -28.5q-4 -14 8 -59q14 -29 30 -74q2 -14 -18 -38t-20 -73q0 -18 -6.5 -36.5t-4.5 -34.5q4 -31 4 -54q0 -29 -9 -54.5t-11 -45.5q-2 -16 6 -47q10 -39 12 -58q3 -28 3 -54.5t-3 -51.5q-1 -10 -1 -20q0 -28 8 -58q6 -25 21 -40 t30 -27q14 -20 69.5 -34t55.5 -57q0 -41 -35 -45q-68 -8 -105 -8q-33 0 -65.5 10.5t-63.5 12.5q-5 1 -73 -13q-59 -12 -120 -12h-18q-14 0 -41.5 5t-40.5 5q-35 0 -59 -24q-1 -1 -4 -1q-14 0 -59 15q-16 6 -27.5 19.5t-15.5 15.5q-37 25 -37 49q0 18 18 33q8 8 35 1t61 7 q29 12 43 33q18 29 58 53q27 18 30 23q10 18 13 79q1 25 1 46q0 31 -2 53q-3 36 -3 31q0 12 3 65t3 62.5t8 69.5q6 48 6 64v7q-3 20 -3 37.5t3 31.5v5q0 25 -16 79q-18 60 -17 86q8 39 17 154q-2 70 -29 115q-4 16 -24 65q-8 18 -20.5 27.5t-16.5 17.5q-14 41 -49 45 q-8 0 -45 9.5t-48 9.5q-6 0 -21.5 -4t-27.5 -2q-37 6 -49 84z" />
<glyph unicode="S" horiz-adv-x="1329" d="M84 1145q0 33 14 55q14 14 27 29q12 45 27 88q23 70 90 106q29 16 98 76q35 31 98 31q33 0 47.5 5t38.5 5q57 0 109 14q33 10 57 11q47 0 79 -51.5t67 -61.5q20 -5 43 -5q38 0 82 15q14 4 53 15q25 18 63 39q8 0 17.5 2t21.5 2q27 0 35 -56q4 -23 10 -42t6 -29t-10 -50 q-10 -47 -14 -86q0 -80 -10 -186q-10 -51 -50 -96q-16 -18 -39 -19q-33 0 -35.5 14.5t-2.5 28.5q-29 158 -84 232q-45 61 -142 96q-23 8 -40 26.5t-33 18.5q-27 0 -76 10q-23 6 -44 6q-25 0 -50 -8q-166 -51 -181 -110q-8 -35 -8 -62q0 -33 13.5 -57.5t25.5 -44.5 q25 -51 113 -68q31 -6 42 -1t21 1q14 -4 30.5 -28.5t29.5 -30.5q37 0 153 -41q64 -33 126 -33h7q23 2 43 4q25 2 47.5 -7t40 -37.5t31.5 -37.5q80 -35 100 -65q12 -10 43 -84q23 -56 46 -111q2 -5 3 -16q1 -19 -7 -55q-10 -56 -20.5 -114t-35.5 -126q-6 -33 -26 -49 q-29 -23 -46 -55q-12 -10 -32 -37q-10 -16 -59.5 -48t-121.5 -67q-39 -2 -174 -10q-17 -1 -34 -1q-72 0 -129 21q-18 6 -34 29.5t-26 26.5q-74 20 -94 20q-16 0 -68 -12q-74 -18 -127 -68q-35 -33 -63 -33q-20 0 -33 23q-8 10 -9 21.5t-1 13.5q-14 23 -29 71q-6 20 -6 37 q0 20 27 58q13 18 13 44q0 16 -5 35q-8 30 -8 66t8 78q6 63 12 125q12 90 60 110q12 6 24 7q23 0 57 -35q12 -12 25 -49q20 -66 25 -74q23 -33 61 -133q16 -78 68 -107q74 -41 88 -59.5t32.5 -20.5t35 -5t67.5 -34q39 -24 65 -24h2q25 0 50 20q8 6 66.5 12.5t86.5 30.5 q33 14 78 54q16 23 45 67q16 34 16 79q0 27 -6 58q-6 37 -45 66q-68 51 -73 57q-33 33 -152 58q-76 16 -152 53q-63 33 -118 37q-31 10 -76 20q-2 0 -33 -7t-45 -3q-29 8 -92 14q-39 0 -47 29q-23 70 -53 121q-27 37 -54 76q-12 18 -14 46.5t-14 37.5q-23 16 -27 38 q-2 8 -2 60z" />
<glyph unicode="T" horiz-adv-x="1554" d="M74 1030q0 18 4 41q2 10 2 98q6 16 12 60q0 12 -5 57t-5 82q0 92 43 127q27 33 82 33q4 0 30.5 -9.5t151.5 -9.5q84 0 135 4q66 6 80 7q12 0 125 -4q8 4 96 8q68 -2 92.5 -8.5t28.5 -6.5q10 0 79 17.5t124 17.5q29 0 81 -8t66 -8q12 0 19 2q37 18 78 18q57 0 90 -39 q19 -20 39 -53q2 -19 2 -33q0 -21 -4 -32q-8 -25 -9 -41q1 -11 1 -20q0 -28 -5 -44q-6 -27 -6 -33q0 -12 -6 -60t-6 -65q0 -4 4 -34q4 -23 0 -45q-12 -55 -37 -56q-6 0 -18.5 -4t-20.5 -4q-18 0 -37 37q-6 10 -34 41q-20 20 -29 63q-2 14 -15.5 27.5t-19.5 30.5 q-12 31 -37 53q-23 16 -31 51q-4 14 -20 27q-25 16 -29 22q-14 18 -30 19q-14 0 -49 -19.5t-58 -21.5q-59 -8 -63 -68q-3 -45 -3 -84q0 -59 7 -105q12 -76 12 -118q0 -18 -8 -72q-4 -27 -4 -60q0 -22 2 -48q-2 -24 -2 -57q0 -50 4 -119q2 -27 12 -68t10 -74q0 -43 -12 -108 q-6 -35 2 -58q10 -29 19 -57q14 -39 36 -51q14 -10 29.5 -22.5t26.5 -10.5q8 0 39.5 8.5t62.5 12.5q14 2 26 2q31 0 44 -15q47 -53 47 -82t-34 -54t-71 -25q-18 0 -74 11q-41 8 -74 8q-12 0 -22 -1q-20 -4 -41 -10q-35 -6 -59 -2q-31 2 -90 10q-27 4 -48.5 17.5t-37.5 13.5 q-12 0 -31 -4q-27 -6 -58.5 -31t-70.5 -25q-25 -4 -80 -8q-16 0 -65 16q-25 6 -62 21q-14 12 -39 33q-34 24 -34 55q0 41 59 41h6q8 0 52 10t85 10q49 0 58 11q10 4 37.5 21.5t31.5 70.5q0 -6 -1 -6t-1 90q0 6 4 45q2 29 0 53q-2 18 -2 37q0 41 13 86q16 57 16 59 q-6 14 -8 58q6 20 12 43q2 12 -4 41q-14 37 -14 63q0 10 4 41t4 60q0 8 -27 186q-2 51 -16 119q-74 98 -127 100h-14q-63 0 -127 -33q-37 -23 -72 -73q-41 -57 -53 -115q-23 -109 -74 -135q-16 -14 -39 -15q-53 0 -53 76z" />
<glyph unicode="U" horiz-adv-x="1513" d="M25 1389q-1 11 -1 22q0 42 19 76q20 35 39.5 39t38 7t37.5 3q27 0 68.5 -11.5t66.5 -11.5q12 0 40.5 6.5t72.5 6.5q41 0 64.5 -12.5t41.5 -12.5q25 0 39 8.5t29 8.5q16 0 36.5 -24t36.5 -21q12 0 37 17t37 17q20 0 31 -39q4 -17 4 -34q0 -20 -6 -39q-12 -41 -45 -41 q-7 0 -15 2q-19 4 -32 4q-22 0 -34 -8q-20 -14 -71 -52q-45 -40 -45 -85v-7q10 -27 23 -110q4 -117 20 -238q6 -39 6 -67q0 -20 -7 -81q-5 -47 -5 -100v-30q2 -150 33 -246q12 -39 41 -70q12 -14 47 -47q23 -12 39 -29q10 -12 28 -18q66 -20 103 -20q33 0 51 6q49 18 53 18 q72 20 107 60q10 6 32.5 24.5t34.5 95.5q6 55 19 160q4 25 16 133v12q0 39 -10 105q-7 41 -7 84q0 17 1 35q2 27 14 84t12 69q-4 102 -13 122t-9 30q2 6 -10 55q-20 66 -93 96q-80 35 -100 76q-10 14 -6 33q4 14 10 18q53 35 146 72q10 0 61 -9t66 -11q16 -2 38.5 14 t51.5 16q16 0 36.5 -8t26.5 -8l57 6h2q18 0 46 -41q25 -36 25 -62q0 -5 -1 -10q-14 -72 -53 -77h-68q-31 -8 -41 -74q-18 -111 -18 -170q0 -72 18 -174q10 -57 11 -88q0 -16 -5.5 -51t-5.5 -76q0 -25 4 -80v-16q0 -26 -4 -62q-8 -59 -16 -84q-18 -47 -25 -65 q-10 -74 -22 -152t-92 -129q-61 -39 -138 -109q-10 -10 -57 -45q-17 -12 -35 -12q-20 0 -41 14q-25 15 -69 15h-6q-27 -2 -43 -10q-29 -12 -37 -15.5t-19 -3.5q-10 0 -35 10q-31 10 -53 17q-39 6 -78 14t-67 29q-37 27 -103 39q-45 8 -104 51q-10 10 -26.5 46t-36 49 t-27.5 42q-8 41 -17 82q-9 38 -9 80t9 88q2 70 13 184q2 14 2 30t-2 34q-10 33 -10 104q0 141 22 268q5 26 5 49q0 35 -11 62q-29 74 -53 78q-12 2 -36 -4t-34 -6q-12 0 -23 4q-25 10 -38 76z" />
<glyph unicode="V" horiz-adv-x="1738" d="M41 1442v7q0 38 43 54q41 16 72 17q49 0 86 -11q23 -6 41 0q34 10 63 10q6 -1 12 -1q34 -2 56 8q25 4 78 16q17 4 32 4q19 0 35 -6q18 -6 76 -10q47 -4 84 -27q4 -4 57 -14q6 0 60 -33q28 -17 28 -47q0 -14 -6 -31q-16 -49 -98 -59q-35 -4 -53 -35q-31 -49 -31 -51 q0 -14 45 -127q4 -10 27 -47q14 -23 20 -66t21.5 -64.5t17.5 -41.5q8 -72 31 -101l20 -16q12 -14 16.5 -42t18.5 -46t16 -29q14 -53 25 -53q10 -1 18 -1q49 0 56 48q2 16 27.5 44t35.5 69q10 8 27 35q8 18 28 55q21 41 21 64q0 43 4 59q2 14 30.5 69.5t32.5 96.5q4 25 9 47 q4 33 -2 53q-19 63 -111 99q-96 38 -96 98q0 42 73 75q10 4 25 2q18 -4 25 -4q14 0 34.5 9.5t28.5 11.5q45 10 76 10q23 0 44 -7t30 -7q6 0 17 2t32 2q18 0 28.5 -2t28.5 -2q14 0 59.5 4t71.5 4q84 0 129 -35q25 -18 25 -59q0 -31 -12 -47q-33 -39 -97 -62q-31 -18 -90 -41 q-18 -2 -57 -22q-12 -4 -33 -23q-18 -27 -37.5 -42t-21.5 -19q-16 -25 -33 -78q-25 -82 -31 -100q-12 -20 -47 -76q-53 -90 -63 -170q-8 -12 -17.5 -23.5t-7.5 -25.5q0 -12 9 -33q11 -26 11 -37q0 -25 -22 -72q-6 -16 -12 -32.5t-23 -26.5q-23 -14 -39 -51q-25 -70 -80 -193 q-18 -33 -26 -82q-12 -20 -29 -67q-20 -111 -88 -140q-8 -4 -14 -4q-12 0 -35 31q-14 16 -29.5 32.5t-25.5 67.5q-6 14 -19 58q-4 25 -19.5 51.5t-17.5 65.5q0 16 -12 24l-35 25q-35 31 -57 151q-8 29 -41 62q-10 10 -12.5 27.5t-6.5 23.5q-18 25 -39 78q0 20 -8 90 q-18 29 -36.5 71.5t-51.5 92.5q-37 57 -41 63q-10 23 -14 51q-2 20 -16.5 40t-59.5 71q-14 14 -20 36.5t-19 31.5q-16 23 -49 57q-35 8 -98 33q-31 18 -45 63q-14 8 -33 72z" />
<glyph unicode="W" horiz-adv-x="2199" d="M-16 1415q0 16 7 34.5t42 31.5q27 6 53 14q10 4 49 0q6 -1 12 -1q29 0 59 16q36 20 75 20q16 0 77.5 -21.5t184.5 -21.5q14 0 47 14.5t47 16.5t31 -15q23 -23 43 -33q14 -6 24 -6q12 0 26.5 7.5t22.5 7.5q80 4 148 22q61 16 100 17q8 0 34 -4.5t46 -4.5q8 0 49 -8 q20 -4 41 -4q14 0 29 2q24 3 51.5 3t58.5 -3q20 -1 41 -1q41 0 84 5q10 2 38 -9t65 -13h7q33 1 82 17q54 18 79 20q66 4 114 22q12 8 33 6q27 -4 33 -4q16 1 30 1q25 0 45 -4q32 -7 69.5 -7t101.5 -39q48 -22 48 -74q0 -6 -1 -12q-6 -61 -53 -90q-6 -4 -20.5 -21.5 t-27.5 -17.5q-6 0 -12 4q-6 2 -14 2q-21 0 -55 -16q-14 -6 -28.5 -26.5t-27.5 -31.5q-25 -20 -37 -80.5t-57 -85.5q-18 -10 -37 -40q-20 -39 -26 -43q-25 -23 -25 -60q0 -6 4 -37q2 -25 0 -39q-4 -20 -14 -39q-14 -33 -39 -84q-16 -29 -17 -57v3q2 0 13 -70q1 -5 1 -11 q0 -34 -22 -67q-14 -23 -19 -64t-18 -59q-12 -35 -50 -89.5t-44 -101.5q-6 -53 -29 -92q-2 -4 -18 -51q-12 -33 -29 -41q-30 -13 -51 -13q-10 0 -18 3q-14 8 -25.5 18t-17.5 44t-28.5 60.5t-33.5 90.5q-10 29 -35 137q-6 39 -20 73t-16 62.5t-31 84.5t-31 77q-2 29 -47 115 q-2 4 -18 65q-12 47 -45 80t-35 100q-2 90 -21 134q-23 31 -69 133q-20 55 -66 67q-20 6 -110 6q-27 0 -66 9q-20 2 -39.5 -9.5t-28 -48.5t-16.5 -73q-4 -16 -4 -31q0 -16 7 -40t7 -36q0 4 19 -119q6 -35 23.5 -67.5t19.5 -67.5q4 -57 8 -68q6 -29 26.5 -47t27.5 -50 t25.5 -50t28.5 -18q8 0 18.5 10t16.5 14q20 12 33.5 40t38.5 48q16 12 41 27q31 0 31 -41v-9q0 -126 -56 -218q-12 -27 -16 -60q-6 -41 -13.5 -62.5t-15.5 -86.5q-4 -55 -20 -76q-23 -33 -33 -83t-45 -103q-25 -37 -27 -39q-8 -8 -32 -9q-25 0 -31 15q0 4 -12 65 q-6 31 -24.5 51.5t-26 54.5t-27 59.5t-23.5 51t-26 84.5q-31 51 -37 95q-10 70 -29 124q-23 70 -51 187q-4 49 -30.5 72.5t-33.5 70.5q1 6 1 15q0 22 -7 65q-33 98 -71 150q-6 8 -78 79q-41 20 -74 78q-6 12 -36 28.5t-56 18.5q-94 10 -94 76zM1356 1108q4 -33 18 -51 q18 -25 19 -27q6 -14 22 -74q16 -31 35 -98v-12q0 -46 12 -123q23 -57 40.5 -72.5t47.5 -9.5q23 4 41 39q16 12 39 41q8 20 37 63q12 14 25 86q12 82 14 86q10 18 23 62q10 33 22 129q1 8 1 17q0 50 -21 110q-4 12 -24.5 20.5t-29.5 16.5q-14 27 -63 63h-70 q-14 0 -39.5 -17.5t-42.5 -17.5q-72 1 -94 -71q-15 -49 -15 -107q0 -25 3 -53z" />
<glyph unicode="X" horiz-adv-x="1538" d="M-2 1370q-10 11 -10 27q0 22 18 53q31 59 89 59q11 0 22 -2q86 -14 125 -14q23 0 55.5 8t77.5 8q10 0 21.5 4.5t23.5 4.5h-2q0 -1 74 -7q7 -1 14 -1q30 0 61 14q8 4 19.5 -4.5t19.5 -3.5q8 4 96 8q25 0 47.5 -20.5t18.5 -35.5q-10 -51 -53 -69q-16 -8 -29 -2q-12 6 -16 4 t-45 -6q-31 -2 -41 -29l-14 -12q-13 -13 -13 -37q0 -33 23.5 -63.5t33.5 -55.5q12 -35 21 -49q18 -33 41 -49q37 -29 41 -33q18 -18 28 -51q8 -25 30 -34t38 -9q23 0 55 37q25 23 35 51q12 37 45 80q16 16 17 37q12 18 41 63q20 35 6 55q0 16 -23 45q-9 2 -65 35 q-48 28 -48 70q0 7 1 14q6 49 90 49q27 0 44 11.5t42 11.5q8 8 55 18q37 -10 121 -14l55 -10q12 -2 32.5 -7.5t26.5 -5.5q16 1 29 1q26 0 37 -5q25 -10 31 -10q61 -4 61 -65q0 -57 -49 -62q-16 -8 -47 -16q-37 -4 -54.5 -24.5t-27.5 -20.5t-25.5 4t-21.5 4q-2 0 -20.5 -16.5 t-73.5 -20.5q-18 -2 -23 -8q-12 -16 -18 -23q-12 -8 -41 -51q-10 -6 -28.5 -23.5t-24.5 -41.5q-8 -31 -31 -66t-41.5 -48t-24.5 -22q-20 -12 -53 -57q-6 -10 -27 -47q-4 -10 -8 -96v-11q0 -83 58 -106q20 -8 33.5 -28.5t20.5 -23.5t33.5 -34t34.5 -53q14 -41 29 -54 q29 -20 59 -69q16 -27 39 -44.5t29 -33.5q10 -23 29 -35q8 -6 9 -17t5 -14q12 -8 21.5 -37.5t15.5 -35.5q8 -16 31 -37q12 -10 104 -37q49 -10 53 -12q31 -12 41 -51q2 -10 2 -19q0 -33 -79 -55q-23 -6 -33 -4q-18 6 -29 6q-14 0 -35.5 -8.5t-27.5 -8.5t-19.5 8.5t-36.5 8.5 q-18 0 -47 -6q-16 -4 -55 12t-53 14q-14 6 -45 9q-16 -12 -54 -25q-31 8 -73 14q-2 0 -22.5 -10t-37.5 -10q-16 0 -33 6q-8 4 -21 -2t-24 -6q-44 0 -44 50q0 6 1 13q3 45 47 45q10 0 21 -2q10 -2 47 10.5t47 24.5q25 29 25 62q0 18 -17.5 74.5t-74.5 107.5q-51 43 -54 80 q-8 16 -22 59q-6 29 -39 53q-6 6 -12 6q-10 0 -56 -32q-16 -12 -21 -38t-17.5 -33t-22.5 -25.5t-24.5 -28.5t-21.5 -29.5t-14 -26.5q-12 -51 -43 -63q-8 -4 -16 -4q-16 2 -43 -8q0 -12 -4 -43q-4 -16 2 -48t36 -52.5t60 -41.5q23 -10 44.5 -20t21.5 -29q0 -12 -8.5 -29.5 t-57.5 -9.5q-23 0 -69 2q-20 -6 -64 -8q-8 4 -39 -6q-18 -6 -35 -6q-12 0 -30.5 4t-24.5 4q-8 0 -16 -4q-35 -18 -51 -14q-18 -2 -56 8q-29 10 -57 22q-37 16 -37 49q0 14 4 29q12 43 64 62l84 20q12 4 39 23q6 4 55 14q41 8 71 43q14 10 33 27q4 4 5 31.5t22 58.5 q23 47 59 61q31 10 45 60q8 29 17.5 37t11.5 12q6 16 39 42.5t33 49.5v48q0 47 -56 83q-10 12 -20 27q-14 23 -14 59q0 16 2 35q2 16 -25 33q-41 27 -54.5 44t-43.5 50q-31 20 -33 24q-8 10 -41 84q-23 35 -47 84q-14 10 -33 45q-17 64 -89 64h-13q-18 8 -36 14t-54 4h-4 q-35 0 -68 39z" />
<glyph unicode="Y" horiz-adv-x="1474" d="M33 1415q0 66 45 109q16 16 49 14q16 0 31.5 -6t21.5 -6l29 6q5 1 13 1q18 0 52 -7q11 -3 30 -3q34 0 92 9q91 14 118 14q59 0 102 -20q31 -14 89 -25q8 0 38.5 -12t61.5 -10q11 -5 36 -5q18 0 44 3q12 3 37 3q12 0 28 -1h6q25 0 56 15q35 17 61 17q6 0 43 9.5t49 9.5 q16 0 34 -3t22 -3q16 2 30 2q31 0 58.5 -16.5t48.5 -14.5q14 0 23.5 5t25.5 5t44 -18.5t89 -26.5q12 -2 19 -20q4 -18 -1.5 -32.5t-34 -27t-34.5 -22.5q-16 -23 -45 -45q-6 -10 -51 -39q-23 -10 -62 -49t-49 -56q-27 -45 -33 -119.5t-28 -105.5q-6 -4 -21 -29q-8 -8 -29 -30 q-6 -20 -18 -56q0 -4 -23 -31q-20 -24 -20 -64v-7q-10 -23 -35 -94q-2 -6 -41 -86q-12 -27 -12 -86q0 -26 2 -58q6 -18 23 -81q4 -35 22 -119q4 -12 17.5 -22.5t26.5 -28t46 -54.5q8 -8 34 -10t35 -13.5t5 -31.5q-4 -23 -21 -27q-47 -10 -43 -10q-12 0 -40.5 11.5t-43.5 9.5 q-8 -2 -37.5 -14.5t-54.5 -12.5q-20 10 -43 23q-39 22 -93 22h-5q-45 0 -100 -14q-20 -4 -99 -45q-28 -14 -56 -14q-22 0 -44 8q-49 18 -53 22q-31 20 -33 74v10q0 44 16 76q4 6 37 49q12 16 45 33.5t46.5 31t41.5 52.5q6 10 33 57q11 19 11 66q0 13 -1 28q-2 66 -12 85.5 t-29 101.5q-4 31 -43 88t-45 84.5t-25.5 53.5t-23.5 34q-23 45 -43 67q-23 33 -49 92q-31 72 -94 119q-27 20 -59 20q-12 0 -25 -3q-12 0 -82 14q-31 4 -49 31q-25 29 -51 55q-33 43 -33 94zM700 1149q8 -59 11 -64q8 -35 33.5 -62.5t62.5 -82.5q12 -14 37 -74 q16 -59 37 -80q4 -4 14 -28q6 -14 33 -27q4 -2 49 -29q16 -8 24 -4q20 12 46 43q0 39 24 121q68 127 82 180q5 21 5 51q0 15 -1 33q-4 47 -12 60q-16 16 -43 53l-45 45q-20 4 -52 25.5t-53 21.5q-10 2 -46 -11t-44 -13t-21.5 4t-23.5 2q-18 0 -49 -13q-41 -14 -51 -34 q-19 -40 -19 -87q0 -14 2 -30z" />
<glyph unicode="Z" horiz-adv-x="1339" d="M59 68q0 39 16.5 76.5t33.5 50.5q25 23 38 48t46 52q25 20 49 41q8 10 26.5 88t53.5 115q18 16 96 67q41 29 57 60q23 49 27 53q35 33 102 104q8 10 16.5 44t8.5 36q16 18 43 70q10 16 39 127q10 37 49 74q45 45 53 59q14 19 14 43q0 20 -10 43q-6 18 -88 63 q-35 20 -51 76q-4 18 12 33q12 8 22.5 18.5t67.5 14.5q6 2 41 18q29 14 47 12q23 -2 43.5 -12t26.5 -10q2 0 37 11q26 8 61 8q13 0 27 -1q49 -4 90 -37q51 -51 51 -135v-12q-4 -92 -53 -180q-12 -18 -46 -33.5t-42 -28t-27 -24.5q-27 -18 -34 -25.5t-39 -85.5 q-6 -20 -22.5 -41.5t-25 -43t-81.5 -118.5q-31 -39 -72 -139q-23 -23 -51 -63l-54 -76q-39 -53 -41 -86q0 -8 -32 -66q-23 -41 -23 -92q0 -47 9.5 -60.5t70.5 -54t107 -40.5q33 0 112 49q57 35 123 82q14 25 47 57q8 6 35 51q20 18 59 121q20 86 47 94q8 4 58 -6 q14 -4 28 -41q4 -14 9.5 -58t7.5 -50q0 -6 -2 -29q-4 -29 -4 -47v-152q0 -68 -25 -96q-25 -35 -78 -82q-8 -4 -125 -4q-14 0 -46.5 -5t-39.5 -5q-4 0 -54 13t-95 13q-57 0 -119 -20q-35 -12 -65 -12q-33 0 -64 14q-37 16 -41 16q-8 1 -26 1q-35 0 -105 -5q-27 -12 -102 -26 h-9q-25 0 -62 8q-44 10 -52 10l-39 -8q-20 -4 -33 6q-29 25 -29 70zM61 1217q-2 17 -2 38q0 52 11 127q6 43 47 84q29 23 55 45q20 8 39 11q4 0 45 11t53 11q12 2 40 -13t38 -15t29.5 5t36.5 5q51 -2 55 -43q0 -10 -14 -51q-8 -25 -30 -43.5t-28 -30.5q-8 -20 -55 -53 q-25 -16 -64 -50q-12 -16 -43 -34q-20 -16 -38.5 -55.5t-29.5 -53.5t-61 -49q-49 -20 -43 -21q-20 0 -30 37q-2 33 -11 138z" />
<glyph unicode="[" horiz-adv-x="706" d="M197 1313q-2 72 18 135q20 51 38.5 61.5t81 25.5t89.5 15l86 -2q88 10 100 -4q20 -23 21 -37q0 -41 -123 -69q-61 -14 -86 -60q-14 -27 -23 -92q-2 -78 17 -203q2 -10 -8 -59q-12 -55 -13 -94q0 -27 4 -49q18 -121 11 -172q-8 -20 -4 -117q4 -72 6 -143q0 -8 -9 -130 q-4 -86 7 -114q4 -12 4 -31q0 -18 -5.5 -56t-5.5 -50q0 -14 5 -21q0 -51 16 -209q16 -102 113 -135q37 -12 69.5 -24.5t32.5 -32.5q0 -49 -80 -49q-18 0 -35.5 -5.5t-34.5 -3.5q-164 12 -231 47q-51 27 -35 158q12 96 -2 160q-10 47 -4 88q6 39 2 53q-6 29 4 78q14 57 15 78 q0 20 -10.5 70.5t-10.5 78.5q0 16 2 31q8 39 4 121q-4 76 0 88q10 25 10 45q0 14 -6 34.5t-8 31.5q-4 31 -2 114q4 84 10 119q4 25 -2 63.5t-2 45.5q12 31 2 67q-12 27 -28 154z" />
<glyph unicode="\" horiz-adv-x="573" d="M-49 1460q0 55 37 60q27 6 61 -9q43 -18 66 -59q6 -29 14 -55q12 -47 51 -111q31 -49 35 -96t12 -64q23 -33 31 -55q18 -37 25 -86q6 -41 35.5 -80t33.5 -71q6 -49 31 -96.5t29 -69.5q23 -125 73 -230q4 -8 21 -84q14 -63 41 -98q14 -18 24 -82q12 -72 20.5 -89t8.5 -44 q0 -86 -51 -82q-88 8 -109 96q-10 43 -18 58q-14 23 -26.5 46t-19.5 78.5t-26 86.5q-23 39 -44 76.5t-25.5 80.5t-23.5 89t-24 71q-10 49 -34 104q-23 47 -31 111q-4 31 -26.5 60.5t-28.5 80.5q-4 29 -25 62q-31 49 -53 104q-12 57 -45 156q-39 84 -39 141z" />
<glyph unicode="]" horiz-adv-x="677" d="M59 1499q0 20 31 31q68 25 209 24q80 0 104 -10q2 0 50 -33q29 -20 32 -94q0 8 -4 -96q-12 -385 2 -442q6 -23 -2 -76q-8 -61 -8 -74q2 -70 -6 -190q20 -176 20 -195q0 -29 -4 -51q-4 -104 -22 -412q-4 -63 -4 -90q0 -29 10 -38t16 -50q14 -98 -116 -113q-82 -8 -158 13 q-55 16 -66.5 24t-17.5 27q0 8 20.5 18.5t30.5 30.5q6 12 39 29q41 23 56.5 37t39.5 18q18 4 19 14q-20 98 -37 226q-10 100 -17 227q29 41 13 98q-29 106 -27 205q0 4 8 59q6 43 0 78q-14 90 -4 148q14 94 4 184q-10 82 -4 113q6 47 6 69q0 74 -32 119q-14 18 -76 70 q-37 29 -71 57.5t-34 44.5z" />
<glyph unicode="^" horiz-adv-x="1024" d="M51 696q-4 -20 8 -43q16 -31 47 -35q14 -6 25 -6q23 0 43 31q25 43 49 84q4 27 29 82q27 31 55.5 90t48 80.5t25.5 50.5q8 39 20 57q6 29 27 87q2 12 33 51t43 88q8 -2 26 -37q2 -6 41 -105q2 -4 27 -32q16 -18 14 -58q-2 -31 25 -59q20 -18 39.5 -37.5t28.5 -42.5 q10 -39 24 -63q12 -16 25 -31q10 -20 12 -78q2 -29 25.5 -51.5t25.5 -34.5q16 -49 35 -59q26 -11 53 -23q8 -4 23 -4q78 0 67 47q-12 33 -65 117q-16 29 -23 72q-6 37 -18 51q-39 43 -66 110q-23 59 -45 77t-31.5 58.5t-15.5 49.5q-25 29 -38 73.5t-25 61.5q-23 39 -54 100 q-10 41 -39 94q-6 16 -26 19q-29 4 -37 9t-14 5q-23 0 -58 -43q-6 -2 -2 -24q-18 -12 -22 -23q-16 -16 -49 -88q-8 -27 -23.5 -51.5t-15.5 -40.5q0 -39 -34 -84t-36 -77t-28.5 -66.5t-26.5 -45.5q2 -35 -21 -59q-29 -33 -35 -51q-14 -43 -49 -90t-47 -103z" />
<glyph unicode="_" horiz-adv-x="1024" d="M-68 -219q-8 59 70 76q53 12 88 12q14 0 68 -10q41 -6 94 0q16 6 119 16q27 2 56.5 -4t49.5 -6q41 2 109 8q188 -39 309 -10q68 10 129 -6q39 -10 43 -13q31 -18 27 -63q-4 -53 -70 -55q-37 0 -109 -2q-18 -4 -61 2t-63 0q-37 0 -121 -5q-18 -2 -45 4.5t-37 6.5 q-12 0 -25 -4q-37 -10 -61 -7q-53 6 -76 7q-102 0 -129 -2q-45 -4 -111 -7q-27 0 -56.5 7.5t-47.5 3.5q-27 0 -80 -4q-61 0 -70 55z" />
<glyph unicode="`" horiz-adv-x="663" d="M115 1483q4 18 28.5 51t34.5 31q6 0 24.5 -10.5t28.5 -12.5q23 -10 56 -41q20 -41 63 -80q16 -14 22.5 -46t21 -48t25.5 -41.5t26.5 -42t24.5 -35t13 -26.5q18 -84 2 -113q-10 -25 -24 -25t-43 25q-10 12 -41 37q-4 2 -41 53q-2 -4 -74 47q-10 8 -39 92q-6 18 -30.5 40 t-44 42.5t-29.5 54t-4 48.5z" />
<glyph unicode="a" horiz-adv-x="1161" d="M51 141q12 80 58 129q10 10 16 27q10 29 16 41q12 23 37 41q18 14 39 29q4 2 35 38q16 20 65 43q23 0 58 15q4 4 57 31q18 12 75 12h17q37 0 51 8q8 8 19.5 15.5t28 18.5t53.5 62q12 18 12 49q0 18 -5 47t-5 31q-10 20 -37 76q-14 33 -39 47q-16 10 -51 23h-10 q-79 0 -125 -29q-29 -18 -33 -86q0 -12 -27 -82q-43 -115 -131 -115q-12 0 -16 2q-20 0 -64 56q-23 30 -23 95q0 12 1 26q0 4 -4 23.5t-4 35.5q0 35 20.5 60.5t112.5 62.5q20 6 43 33q39 16 108 55q45 26 66 26h2q14 2 55 -5t62 -7q12 0 24 2q10 2 32 -14t28 -20.5t49 -2.5 q51 2 57 0q12 -2 45 -49q18 -33 39 -63q4 -6 18.5 -23.5t14.5 -25.5q0 -35 20 -82q12 -31 13 -76q-4 -23 -9 -78q-1 -10 11 -39q9 -22 9 -55q0 -12 -1 -25q-2 -35 -14.5 -61.5t-14.5 -50.5q-2 -31 11.5 -53.5t13.5 -39.5q0 -18 -6 -34.5t-6 -24.5q0 -20 20 -61q6 -23 27 -58 q14 -14 53 -2q18 8 35 84q2 31 49 96q8 10 55 11q31 -4 31 -47q-1 -33 -19 -70q-6 -10 -22 -74q-8 -31 -17.5 -38t-19.5 -13q-12 -14 -20.5 -48t-26.5 -48l-92 -6q-8 -4 -41 -13q-12 -2 -23 -2q-30 1 -50 13q-28 16 -62 53q-27 31 -66 43q-12 18 -51 18q-31 0 -70 -32 q-51 -45 -121 -68q-23 -6 -65 -23q-31 -2 -90 -14q-55 -18 -80 -20q-6 0 -33 18q-33 20 -51 27q-35 12 -74 51q-10 10 -27.5 52t-15.5 52zM338 276q-2 -20 -2 -38q0 -87 57 -113q12 -6 33 -6q45 0 111 22q59 23 79 41q29 29 52 66q6 12 14 57q7 24 7 50q0 32 -11 67 q-6 20 -44 39.5t-67 19.5q-10 0 -25 -9l-14 -9q-39 -23 -84 -34t-57 -34q-25 -43 -30 -48t-19 -71z" />
<glyph unicode="b" horiz-adv-x="1245" d="M6 1389q2 49 70 71q25 10 82 25q14 0 47 4q27 4 39 4q12 2 47 -2l57 2q23 0 47 -43q16 -10 41 -55q6 -29 16 -90v-93q0 -12 8.5 -22t14.5 -33q2 -10 4 -65q2 -47 21 -84q6 -10 24.5 -17.5t20.5 -11.5q4 -6 -4.5 -16.5t-10.5 -12.5q-12 -8 -32 -47l-23 -209 q-8 -25 -23 -76q-2 -18 0 -40q4 -31 5 -48q0 -41 -13 -106q-2 -12 -2 -23q0 -25 23 -63q10 -14 14 -67.5t23 -73.5q29 -18 28 -52v1q3 0 37 -60q8 -16 8 -29q-1 -31 -29 -42q-15 -6 -38 -6q-22 0 -51 5q-2 0 -49 41q-9 11 -24 11q-17 0 -42 -13q-6 -2 -23.5 -24.5 t-27.5 -20.5q-78 8 -86 45q-2 6 5 26.5t9 33.5q0 8 -6 53t-6 57v18l-6 151q0 25 16 112q2 12 -4 44t-6 42q0 12 3 47t3 45q0 18 -14.5 73.5t-14.5 84.5q0 14 2 26q2 29 23 95q18 34 17.5 69.5t-17.5 73.5q-2 20 -4 59q-2 16 -39 90q-8 18 -43 33q-5 4 -63 8q-54 4 -54 84v11 zM584 997q12 51 84 52q24 -7 24 -23q-2 -12 -15 -17t-24 -10q-39 -20 -43 -20q-25 4 -26 18zM659 33q2 10 26 24.5t36 14.5q51 0 59 4q18 6 43 16q12 20 31.5 27.5t30 24t22.5 65.5q16 66 33 102q6 14 8 25v21q0 42 4 151q1 13 1 25q0 36 -9 61q-12 27 -24 51q-4 20 -17 82 q-18 37 -39 100q0 53 -22 84q-16 16 -33 35q-63 43 -64 86q0 10 8.5 18.5t31 26t46.5 17.5q23 0 58 -19q14 -16 41 -49q4 -4 50 -17.5t69.5 -35t25.5 -88.5q2 -37 25 -72q35 -51 51 -98q8 -41 29 -115q6 -16 10 -57q0 -6 8 -31t8 -43t-12 -35q-14 -25 -16 -31q0 -20 -11 -77 q-8 -35 -30.5 -65t-32.5 -73q-20 -23 -45 -69q-10 -55 -35 -63.5t-51 -16.5q-35 -8 -60 -33q-23 -8 -86 -57q-12 -12 -59 -12q-21 0 -49 2q-16 2 -27 22q-20 37 -22 39q-16 20 -11 33z" />
<glyph unicode="c" horiz-adv-x="1075" d="M41 563q0 27 4 62q6 53 45 114q16 27 31.5 38t30.5 28q31 37 68.5 102.5t46.5 74.5t26 11q25 2 33 5t45 26q37 4 63 16q20 10 41 9q8 -1 16 -1q29 0 49 12q26 15 38 13q31 -4 53 2q31 10 90 10q63 0 90 -53q12 -27 25.5 -36t19.5 -14t41 -42q8 -10 29 -61q35 -86 35 -129 q0 -29 -9 -56q-4 -14 -23.5 -32.5t-25.5 -28.5q-8 -16 -39 -35q-8 -14 -41 -35q-14 -4 -57 8.5t-60.5 24.5t-23.5 34.5t-10 41.5q-4 10 -4 53q0 14 14 35.5t14 50.5q0 18 -4 40.5t-33 39.5q-37 18 -71 35q-10 6 -37 -4q-43 -8 -109 -25q-31 -8 -36 -35q-6 -14 -29 -41 q-14 -18 -21 -65q-4 -27 -14 -52.5t-10 -44.5q0 -16 6 -41q4 -16 4 -96q0 -90 27 -149q6 -14 10 -72q6 -6 12 -53t49 -64q14 -4 38 -23.5t44 -27.5q12 -6 25 -6q12 0 47 9t61 7q12 -2 29 7q25 10 27 10q14 23 65 76q4 10 21 30q37 37 51 68q39 55 57 65q10 6 45 2 q12 0 56 -32q23 -16 22 -45q0 -16 -18 -67t-41 -69q-12 -10 -21.5 -32.5t-42.5 -44.5q-6 -14 -39 -48q-43 -14 -114 -38q-35 -18 -72 -37q-57 -27 -94 -27q-35 0 -58 12q-45 23 -63 29q-141 49 -166 72l-63 43q-37 23 -48 59q-18 20 -45 64q-2 10 -22.5 29.5t-26.5 43.5 q-8 39 -23.5 48.5t-15.5 23.5q0 6 2 30.5t2 39.5q0 10 -9 40.5t-9 67.5z" />
<glyph unicode="d" horiz-adv-x="1277" d="M53 539v17q-1 32 5 50q8 24 14 47q0 2 18 41q12 29 14 51.5t18.5 42t27.5 50.5q18 53 34 69q10 18 43 58q4 4 88 63q39 27 103 29q31 0 64.5 12t58.5 12q18 0 39 -4q12 -2 24 -21.5t19 -19.5q4 -2 18 7.5t25 9.5q10 0 50 -34q31 -26 51 -26q6 0 11 2q61 43 62 103 q0 16 -4 63q-2 25 -2 64q-2 10 -58 51q-20 18 -44.5 40.5t-59.5 33.5q-53 16 -64.5 30.5t-15.5 53.5q-4 31 28.5 51t61.5 20h-1q0 -1 91 -12q18 -2 37.5 7t71.5 9q23 0 43 -6t39 -8q27 -2 32 -6q16 -10 31 -21q55 -33 57 -110q2 -33 10.5 -65.5t8.5 -53.5 q-2 -20 -11.5 -42.5t-9.5 -49.5q0 -25 6.5 -43.5t6.5 -30.5q-10 -43 -25 -133q-3 -25 -3 -53q0 -61 15 -133v4q-1 0 -4 -84v-15q0 -36 8 -61q12 -35 12 -86q0 -11 -1 -23q-2 -34 -2 -58q0 -37 4 -55l6 -30q-4 -23 -10 -45q-5 -21 -5 -42q0 -16 3 -32q6 -41 37.5 -72.5 t64.5 -37.5q12 -2 27 0l16 4q14 0 27.5 -31.5t13.5 -56.5q0 -35 -20.5 -50.5t-39 -28.5t-38.5 -13q-41 0 -117 20.5t-102 20.5q-37 0 -95 26q-12 10 -26.5 21.5t-40.5 9.5q-35 -2 -62.5 -19.5t-95.5 -17.5q-33 0 -33 4t6 14q8 18 82 78q14 12 56 15q29 3 39 35q8 26 8 57v12 q-2 37 2 51q10 35 10 81v16v9q1 30 11 71q10 38 10 82q0 11 -1 22q-2 55 -6 67q-10 20 -18 93q0 37 -35 88q-20 23 -39 77q-12 41 -49 54q-25 8 -46.5 36.5t-49.5 26.5q-27 -2 -74 -12q-20 -2 -51 -10q-6 -4 -13.5 -29t-31.5 -51q-8 -8 -37 -84q-14 -31 -33 -86v-12 q0 -22 4 -66l-6 -42q-4 -32 -4 -90v-42q2 -37 8 -60.5t8 -37.5q-6 -12 -6 -62q8 -10 23 -94q4 -45 37 -111q10 -14 10 -43q0 -43 -27.5 -51t-44.5 -8q-6 0 -45 20q-29 25 -92 76q-70 47 -92 90q-14 27 -21 93q2 13 2 32q0 27 -4 66q2 12 -18 43q-20 18 -25 37q0 4 -2 82z " />
<glyph unicode="e" horiz-adv-x="1126" d="M74 535v10q0 39 14 71q25 53 31 82q14 25 57 119q8 23 22.5 35t23.5 34.5t81 82.5q25 25 78 69q18 12 47 17q16 2 35 4q20 12 61 26h-2q0 -1 82 -10q27 -6 99.5 -11t130.5 -38q49 -20 114 -59q14 -43 56 -105q14 -10 16 -18q6 -14 22 -33q37 -43 37 -121 q0 -86 -26.5 -143.5t-65.5 -57.5q-14 0 -53 11.5t-43 11.5q-6 0 -23 -4q-12 -4 -26 0q-31 8 -60 8q-33 0 -68.5 -12t-43.5 -12q-6 2 -28 2t-60 -2q-14 1 -29 1q-38 0 -84 -4q-6 -4 -35 -43q-14 -12 -33 -51q-6 -55 -6 -92q0 -51 14.5 -73.5t28.5 -43.5q8 -23 33 -57 q8 -8 33 -35q8 -10 24 -10q62 -2 106 -2q66 0 89 4q82 27 115 61q18 23 37.5 44.5t27.5 41.5q12 29 17 35q63 88 92 88q4 0 17 7.5t20 3.5q49 -16 49 -63q0 -46 -51 -99q-12 -29 -41 -76q-12 -16 -86 -98q-39 -43 -57.5 -48.5t-37.5 -9.5q-10 -8 -112 -32q-6 -1 -13 -1 q-30 0 -55 24q-29 27 -77 26h-7q-12 -1 -24 -1q-66 0 -129 19h-2q-12 0 -74 23q-35 14 -47 32q-23 33 -31 41q-16 16 -35 52q-14 29 -24 39q-20 20 -33 36q-29 39 -33 85t-9 95.5t-25.5 70t-20.5 53.5zM395 719q0 -49 8.5 -60.5t36.5 -23.5q70 -27 80 -27q41 0 68.5 13.5 t52.5 13.5q139 0 147 92v8q0 34 -30 109q-20 49 -23 51q-18 29 -67 45q-20 6 -37 21q-10 8 -43 6q-51 -2 -72.5 -23.5t-44.5 -42.5q-12 -8 -22.5 -28.5t-20.5 -38.5q-33 -55 -33 -115z" />
<glyph unicode="f" horiz-adv-x="886" d="M2 41q-1 8 -1 14q0 39 40 39q16 0 72 33q31 10 73 39q12 20 17 51q6 45 18 84q10 33 10 66q0 25 -8 65q-6 35 -4 45q9 39 9 70q0 23 -5 41q-16 42 -16 81v9l2 49q-8 26 -8 53v11q2 37 0 43q-8 35 -17 51q-20 37 -59 47q-63 18 -84 69q-4 8 -4 17q0 18 41 37q72 23 86 61 q10 29 45 64q29 35 63 131q14 23 47 84q14 27 54 51q33 20 57 24q37 4 61.5 23.5t28.5 19.5q26 7 81 7q28 0 63 -2q14 0 32.5 4t26.5 4q16 0 61 -21q8 -4 35 -8q18 -2 39 -20q47 -45 53 -121v-12q0 -46 -26 -87q-35 -53 -90 -53q-12 0 -23 2q-86 16 -114.5 58.5t-71.5 50.5 q-29 6 -38 -22.5t-18 -57.5q-8 -29 -8 -56t8 -51q20 -59 68 -59q14 0 33 4q33 8 43 6q16 -6 35 -12q43 -16 43 -45q0 -10 -7.5 -25.5t-14.5 -29t-34 -15.5q-20 -2 -53 2t-45 4q-59 0 -90 -69q-2 -4 -21 -51q-12 -33 -12 -45q1 -27 1 -52q0 -86 -11 -147q-2 -10 -2 -72 q0 -174 4 -221t37 -98t43 -121q2 -11 2 -20q0 -74 -94 -87q-33 5 -82 5q-37 0 -84 -3q-21 -5 -39 -5q-28 0 -51 12q-84 43 -101 43q-12 0 -34.5 -8.5t-30.5 -8.5q-27 0 -31 31z" />
<glyph unicode="g" horiz-adv-x="1202" d="M47 248q-2 25 13.5 38t28.5 26.5t32.5 61.5t19.5 81q0 18 -19.5 44.5t-25.5 65.5q-12 20 -23.5 68.5t-11.5 75.5t16.5 54.5t18.5 82.5q6 31 26.5 54.5t24.5 33.5q12 29 60 51q72 35 96 53q18 6 53 29q22 24 57 24q13 0 29 -4q29 -6 60 -2q27 4 37 0q23 -8 86 -10 q12 0 31.5 -26.5t41.5 -30.5q10 -2 52 -19q35 -12 53 -12q51 0 85 37t70 37q87 3 87 4h-13q29 0 72 -23q23 -14 45 -28q33 -27 33 -90q0 -51 -6 -62q-10 -23 -21 -43q-18 -31 -70 -53q-31 -14 -51 -14q-12 0 -41 16q-23 10 -51.5 -1t-30.5 -14t-14 -40q-4 -10 -4 -19 q-2 -4 0 -47q0 -27 -12.5 -45t-20.5 -61q-6 -35 -18 -43q-20 -14 -64 -68q-31 -39 -66.5 -45t-47.5 -18q-25 -29 -41 -31q-8 -2 -45 4q-27 4 -42 16l-14 13q-6 -4 -41 -4q-33 8 -6 36q2 2 6 2q6 0 21 -10l14 -10q12 0 19.5 13.5t58.5 54.5q41 35 43 69q1 12 1 30q0 36 -3 93 q0 14 8 44t8 46q0 27 -18 49q-20 35 -53 86q-12 14 -80 43q-33 27 -64 27q-25 0 -47 -16q-47 -35 -47 -84q0 -8 4 -50q4 -33 0 -57q-4 -35 -21.5 -68.5t-17.5 -58.5t39 -90q20 -32 20 -68q0 -23 -8 -47q-14 -43 -51 -55q-20 -6 -42.5 -16.5t-49.5 -34.5q-15 -25 -15 -47 q0 -20 13 -37q12 -25 111 -43q6 -2 20 7t35 11q10 2 56 -12t83 -14q18 0 57 9t52 9q4 0 53 -6q11 -1 22 -1q22 0 43 5q50 15 86 15q21 0 37 -5q18 -2 86 -55q61 -47 78 -66q25 -29 25 -102q0 -25 -6 -39q-2 -6 -13 -47q-4 -25 -26 -49q-31 -43 -58 -64q-8 -6 -8 -34 q0 -37 -13 -63.5t-21.5 -35t-37.5 -14.5q-20 -4 -39.5 -30.5t-37.5 -30.5q-33 -6 -61.5 -20.5t-37.5 -14.5q-20 0 -42.5 -9.5t-61.5 -7.5q-41 2 -84 19q-49 20 -61 22q-29 4 -54 43q-18 29 13 39q4 2 32 21q23 16 33 14q4 0 39 -6t55 -6h-2l70 -2q43 -2 53 8q20 18 103 27 q27 2 32 12q14 18 27 37q4 4 39 34q20 16 16 27q-6 18 -10 66q-4 35 -17.5 48t-23.5 9q-9 -2 -20 -2q-19 0 -44 6q-42 10 -139 27h-19q-58 0 -157 10q-25 0 -98 16q-47 16 -55 17q-4 0 -52 -33q-25 -14 -47 -29q-14 -14 -16 -57v-8q0 -32 14 -60q27 -49 33 -73 q18 -66 61 -80q18 -6 23 -21q2 -12 -6 -17t-13 -5q-2 0 -32 12q-25 10 -49 -2q-14 -8 -52 0h-45q-29 2 -45 33q-31 57 -30 59q-12 29 -15 88v7q0 44 23 73l49 49q43 45 43 58q0 12 -8 41q-10 37 -25 49q-4 2 -41 18q-31 10 -45 158z" />
<glyph unicode="h" horiz-adv-x="1269" d="M2 1389q0 49 123 88h86q23 0 67 14q38 12 69 12h9q61 -2 82 -41q14 -18 31 -39q20 -29 18 -57q0 -8 3 -152q0 -31 -12.5 -57.5t-10.5 -42.5q20 -145 55 -145q10 0 27 14q41 23 102 61q88 46 131 46h2q10 0 32 4t26 4q2 0 41 -10.5t67 -10.5q41 -6 94 -30q25 -12 35 -39 q6 -16 15 -35q57 -76 55 -113q6 -35 10 -108q0 -23 -8 -60t-8 -117q0 -23 10 -54.5t10 -108.5q8 -47 15 -138q0 -14 -4 -55q-4 -31 -3 -55q2 -20 34 -52t34 -57v-9q0 -50 -63 -50q-10 0 -34 3t-34 3q-16 0 -50 -4t-54 -4q-43 0 -93 14q-98 27 -98 64q0 10 4 22q20 16 55 76 q4 12 5 84q0 18 9 34.5t9 35.5q0 4 2 11t4 19q0 6 -6 41q-2 23 6 60q11 51 11 103q0 42 -7 85q-6 31 -16 51q-18 33 -21 39q-10 25 -13 76t-7 61.5t-17 18.5q-18 10 -24 16q-33 25 -76 25q-18 0 -53 -12l-45 -13q-12 -2 -29 -20q-14 -27 -102 -111q-41 -33 -58 -82 q-8 -23 -8 -49q0 -23 7 -60.5t6 -52.5q-3 -28 -2 -64q0 -48 4 -108q2 -35 15 -57t17 -47q8 -53 43 -88q8 -16 43 -84q10 -18 11 -37q0 -45 -48 -72q-16 -12 -32 -10q-55 4 -66 4q-41 0 -60.5 15.5t-27.5 15.5q-10 0 -44 -17.5t-69 -17.5q-43 0 -102 23q-14 6 -14 28 q0 18 6 29q16 14 37 53q4 29 18 62q12 25 10 57q0 6 15 94q1 2 1 16q0 27 -3 101q8 29 16 182q0 82 3 121t3 29q0 8 -2 17t-2 20l6 45v9q0 23 -8 60q-6 25 -6 41q0 6 6 49q5 28 5 63q0 12 -1 25q-2 55 -2 62q-4 25 -20 47q-8 12 -33 68q-8 23 -55 39q-29 8 -68 24 q-41 35 -41 62z" />
<glyph unicode="i" horiz-adv-x="673" d="M61 997q0 14 18.5 35t33.5 23q10 2 51 -4.5t55 -6.5q45 12 107 25q16 0 32.5 -3t28.5 -3q61 -2 76 -47q4 -49 8 -101q2 -20 15.5 -48.5t13.5 -55.5q0 -25 -9.5 -61.5t-9.5 -61.5q0 -23 8.5 -47.5t6.5 -60.5q-2 -35 -13.5 -59.5t-11.5 -59.5q0 -29 17.5 -68t17.5 -94 q0 -74 6 -98.5t33 -42.5q69 -47 69 -94q0 -32 -12 -41q-18 -12 -37 -25q-37 -27 -69 -27q-18 0 -56 15q-14 6 -55 2q-16 4 -37 4q-14 0 -31 -2q-31 -19 -94 -19h-6h-43q-25 0 -35 13q-16 6 -41 45q-4 20 14.5 35.5t39.5 29.5q45 35 69 137q2 43 16.5 77t16.5 77 q-6 10 -8 129q2 27 -5.5 55.5t-7.5 34.5q0 10 7.5 45t7.5 62q0 82 -66 174q0 2 -14 33q-4 10 -39 26q-68 31 -68 53zM211 1454q6 76 90 84q23 2 42 11.5t34 6.5q68 -6 82 -38q4 -10 28 -35q18 -20 18.5 -42.5t2.5 -45.5q-2 -25 -23.5 -67t-64.5 -85q-31 -31 -68 -31 q-18 0 -57 11q-87 25 -87 174q0 27 3 57z" />
<glyph unicode="j" horiz-adv-x="790" d="M-25 -307q4 27 9 53q2 35 26 51l37 17q4 2 39 26q23 16 45 17q25 0 59.5 -16.5t75.5 -82.5q45 -72 49 -73q8 0 20.5 8t16.5 8q12 2 23.5 10t32.5 43q30 64 30 139q0 48 -10 106t-10 71q0 20 14 65q0 41 6 150q0 10 13 106q8 58 8 94v13q-2 31 -9.5 72.5t-7.5 56.5v-1 q1 0 13 109q0 27 -11 39q-16 25 -32 47q-33 49 -82 66q-63 20 -90 43q-16 12 -40 19t-41.5 20.5t-17.5 27.5q0 12 39 45q16 14 80 39q12 4 25 4q20 0 53 -14t47 -14q4 0 42 7t73 7q49 0 75 -18q18 -12 62 -64q27 -33 27 -51q0 -4 -3.5 -16.5t-1.5 -24.5q-1 -27 -1 -62.5 t1 -80.5q2 -29 -4 -54q-6 -31 -6 -43q0 -35 21 -100q8 -29 8 -57q0 -31 -13.5 -86.5t-13.5 -83.5q0 -14 2 -29q5 -30 5 -58q0 -14 -1 -28q-4 -68 -4 -59q1 -68 17 -140q8 -18 8 -53q0 -78 -21 -123q-14 -14 -30 -69q-43 -150 -172 -215q-68 -35 -119 -35q6 0 -64 12 q-18 6 -49 -8q-7 -1 -15 -1q-47 0 -116 21q-47 14 -62.5 27.5t-35 57.5t-19.5 63zM369 1415q6 39 35.5 70t62.5 31t63.5 18t63.5 18q29 0 61 -22q50 -60 50 -104q0 -55 -46 -83q-12 -18 -65 -63q-23 -14 -49.5 -16t-32.5 -7q-6 -3 -14 -3q-25 0 -66 32q-41 27 -53 45 q-11 21 -11 60q0 11 1 24z" />
<glyph unicode="k" horiz-adv-x="1339" d="M4 1438q0 53 43 88q32 24 95 24h14q31 -2 63.5 -15t46 -13t41.5 -4q37 -8 72 -11q51 -4 104 -43q23 -12 44.5 -25.5t21.5 -37.5v-18q-1 -64 -13 -112q-14 -54 -14 -65q0 -33 25 -96q10 -25 10 -55q0 -27 -27 -133q-8 -32 -8 -57q0 -32 14 -52q23 -34 22 -64q0 -35 3 -38 q16 -45 55 -109q8 -6 23 -6q6 0 98 29q16 6 41 32.5t35 32.5q16 14 35.5 51t21.5 60v6q0 46 -53 94q-63 55 -67.5 67.5t-4.5 22.5q0 23 29 39q10 8 21 17q6 4 24 0q13 -1 31 -1q36 0 92 3h6q20 -1 58 -11q44 -12 53 -12q2 0 41 12.5t69 12.5q39 0 72 -19q12 -8 59 -26 q33 -14 33 -29q0 -8 -14 -23q-23 -23 -41 -28q-37 -14 -49 -21q-63 -35 -99 -35q-23 0 -38 -12t-29 -22q-61 -33 -76.5 -58.5t-30.5 -50.5q-27 -23 -43 -76q-20 -66 -20 -78q0 -18 8 -36q12 -31 43 -82q12 -23 53 -64q16 -18 68 -65q39 -35 57 -70q14 -27 37 -43 q16 -8 51 -42t80 -52q53 -23 53 -70q-2 -14 -38.5 -28.5t-73.5 -28.5q-14 -6 -29 -6q-10 0 -31.5 8t-37.5 4q-5 -2 -37 -2t-92 2q-41 2 -62 -6q-27 -8 -65 -10h-11q-38 0 -69 12q-14 10 -26.5 19.5t-25.5 9.5q-10 0 -32 -5q-12 -2 -41 -18q-29 -23 -33 -25q-10 -4 -37 -2 q-4 -1 -11 -1q-27 0 -91 14q-7 2 -35.5 2t-77.5 -2q-29 -2 -54.5 5t-37.5 7q-10 0 -40 -13.5t-69 -15.5q-33 -2 -41 6q-10 16 -20 31q-27 33 -27 57q0 17 68 58q45 29 92 55q35 23 45 135q1 6 1 13q0 21 -5 51q-3 18 -3 37.5t3 42.5q6 49 6 100q0 66 -12 156q-8 63 -8 82v6 q8 41 8 354q0 74 -70 119q-57 47 -131 67q-53 14 -78 60q-10 18 -10 39zM530 184q2 -74 35 -104q31 -29 89 -29h8q35 2 57 -8q6 -4 14 -4l68 39q18 14 43.5 54t23.5 58q-4 39 -8 80q-10 61 -24 82q-63 86 -92 92.5t-54 6.5q-63 0 -82 -33q-23 -18 -55 -56q-22 -47 -21 -69 v-6q0 -51 -2 -103z" />
<glyph unicode="l" horiz-adv-x="686" d="M35 1438q0 10 6 24q14 31 43 31q6 0 22.5 -2t26.5 -2q25 0 47 10q27 2 78 19q34 29 75 29q6 0 13 -1q41 -2 64 -14q10 -6 53 -43q16 -14 18 -33v-49v-31q0 -71 -8 -88v-18q0 -38 -6 -92q-12 -31 -12 -66q0 -27 18 -108q-1 -12 -1 -29q0 -43 7 -121q8 -41 8 -74 q0 -31 -8 -73.5t-8 -71.5q0 -16 4 -56t4 -57q0 -31 -5 -67.5t-5 -46.5q0 -33 25 -58q16 -18 16 -28q0 -6 -10.5 -26t-10.5 -42q0 -29 11 -41q16 -20 20 -32.5t64 -76.5q24 -26 24 -51q0 -23 -21.5 -43t-41.5 -20q-6 0 -23 4q-12 2 -22 0q-14 0 -31.5 -10.5t-30.5 -10.5 q-10 0 -31.5 10.5t-44.5 6.5t-45 -4q-25 0 -81 14q-22 6 -44 6t-45 -6q-16 -4 -26 -4q-20 0 -51 24q-9 9 -9 22q0 18 19 44q16 20 33 27q25 8 49 16q78 29 78 131q0 43 -15 98q-4 16 4 56q14 61 21 102q1 10 1 20q0 21 -5 44q-8 45 -8 69q0 31 6 66q9 48 9 80q0 18 -3 30 q-8 37 -8 66q0 18 8 65q3 18 3 35t-3 33q-4 35 -14 90q-25 66 -27 109q-2 33 -8 41q0 18 -33 63q-14 18 -53 41q-25 14 -47 27q-33 14 -33 43z" />
<glyph unicode="m" horiz-adv-x="1990" d="M18 53q0 41 43 45q80 8 97 64q10 33 30 65q16 27 19 43q7 69 7 132q0 25 -1 49q-2 18 -16.5 38.5t-14.5 38.5q0 8 11.5 31t11.5 39q0 20 -5 51t-5 53q0 35 10 84q1 6 1 11q0 36 -44 65q-14 16 -68 53q-76 41 -76 72q0 29 64 45q8 2 53 29q37 18 74 18h19q39 0 87 -6 q27 -20 93 -59q20 -18 69 -39q8 0 98 29q4 2 31 20t64 23q14 2 34.5 15t40.5 15q26 4 49 4q15 0 29 -2q29 -4 57.5 -7t104.5 -56q31 -29 66 -62q3 -1 7 -1q36 0 130 53q37 29 86 63h3q25 0 101 29q8 2 20.5 -9.5t28.5 -7.5q35 8 52 9q10 0 28.5 -7.5t46.5 -11.5 q61 -8 87 -34.5t51 -53.5q20 -14 49 -53q8 -10 35 -23q20 -10 41 -53q10 -20 12 -92q2 -51 4 -100q-2 -135 -2 -338q4 -82 29 -119q14 -20 54 -41t60.5 -45.5t20.5 -55.5q-1 -28 -19 -59q-12 -23 -30 -22q-18 2 -39 2q-27 -8 -99 -19q-4 0 -63 4q-9 1 -18 1q-32 0 -66 -11 q-27 -8 -37 -6q-18 8 -37.5 15t-43 3t-34.5 2q-16 10 -32 11q-10 0 -26.5 -8.5t-23.5 -8.5q-16 0 -32.5 20.5t-14.5 32.5q6 12 13 25q8 20 50 32.5t58 45.5q18 12 49 72q11 40 11 68v48q4 16 4 37q0 16 -5.5 64.5t-5.5 81.5q0 31 5 61q2 13 2 25q1 36 -13 67q-18 41 -20 62 q2 10 -2 34q-8 39 -18.5 78t-30 55.5t-62.5 34.5q-35 2 -72 19q-12 6 -18 6q4 0 -47 -29q-23 -8 -46.5 -16t-43 -38t-32.5 -53.5t-15 -77.5t-15 -85q-6 -23 -14 -43q-2 -12 -2 -23q0 2 14 -86q10 -64 10 -154q0 -22 -1 -46v-15q0 -59 14 -96q2 0 37 -57q16 -27 28 -27 q-2 0 33 10q18 4 33 -4q8 -6 18 -12q45 -14 45 -49q0 -16 -14 -19q-4 -4 -39 -20q-36 -14 -115 -14h-20q-45 2 -69.5 9t-32.5 7q-10 0 -21.5 -9t-42.5 -9q-14 0 -28.5 9t-53.5 9q-23 0 -49 -8q-18 -6 -37 0q-23 4 -63 28q-12 14 -13 27q0 20 37 35q57 23 67.5 74t20.5 104 q6 16 6 31q0 12 -6 34.5t-6 36.5t4 29q8 32 8 61q0 41 -16 78q-12 27 -16 93q-2 27 6 47t6 38.5t2 59.5q6 49 -2 61q-20 20 -38.5 41t-31 24t-24.5 19q-20 27 -30.5 31t-57.5 4q-41 0 -68 -26q-12 -8 -24 -19q-18 -14 -31.5 -47t-24 -37t-20.5 -26q-23 -51 -39 -115 q-26 -95 -26 -170q0 -15 1 -29q4 -50 4 -86.5t-4 -58.5q-6 -35 -6 -74q0 -50 10 -106q6 -31 52 -43q57 -16 73 -33q24 -25 24 -48q0 -14 -9 -28q-14 -4 -54 -29q-18 -14 -49 9q-9 7 -53 7q-18 0 -41 -1q-38 -2 -63 -2q-38 0 -50 4q-20 6 -28 6q-14 -2 -58 -20 q-37 -15 -63 -16q-5 0 -10 1q-33 4 -45 18q-18 20 -35 39t-17 37z" />
<glyph unicode="n" horiz-adv-x="1300" d="M41 39q10 66 94 86q25 6 50.5 46t27.5 89v13q0 31 -8 55q-10 28 -10 39q0 39 12 76.5t12 68.5q0 27 -6 61q-5 23 11 51q12 23 13 50q0 7 -1 14q-4 37 -4 72q0 18 1 35q4 39 0 51q-27 84 -110 108q-62 17 -62 57v7q4 33 35 37t58 6q12 2 47 15.5t59 13.5q23 0 47 -11 q16 0 60 -12q8 -4 49 -49q37 -20 96 -76q6 -10 6 -37l-18 -176q-8 -72 -35 -139q-10 -51 -31 -119q-15 -21 -15 -42q0 -12 5 -23q18 -55 18 -107v-33q-2 -23 -2 -35q0 -43 14.5 -86t49.5 -56t49 -48q6 -16 -16 -39q-14 -14 -66 -14q-16 0 -30.5 15t-43.5 17h-7 q-32 0 -60 -17q-32 -19 -64 -40q-8 -4 -69 -4h-78q-39 4 -56 29q-25 37 -22 51zM569 985q0 25 49 72q16 14 33 16q-25 -2 49 -2q49 0 89 13.5t57 13.5q37 0 117 -37q20 -4 65 -29q12 -8 21.5 -34.5t36 -49t28.5 -30.5q8 -18 25 -41q27 -35 28 -70q-1 20 -2 20q-2 0 -2 -84 q0 -25 -11 -80t-13 -79q2 -10 2 -40q0 -49 -6 -151q-2 -27 3 -49t1 -53q-4 -39 5 -51.5t19 -24.5q12 -31 56 -78q29 -18 43 -28q23 -18 36 -41t13 -37q0 -16 -23 -45q-29 -37 -51 -37h-2q-27 2 -70 27.5t-80 25.5q-18 0 -36 -4q-20 2 -46.5 2t-60.5 -2q-16 -5 -33 -5t-35 5 q-20 0 -51.5 10t-31.5 25q0 10 53 67q76 82 76 162q0 18 -6.5 46t-6.5 42q0 25 8.5 73t8.5 71t-8.5 57.5t-8.5 44.5t3 33.5t1 40.5q-2 27 -12 61q0 31 -6 80q-4 20 -8 74q-2 35 -15.5 47t-50.5 20q-16 4 -34.5 12.5t-24.5 8.5q-8 0 -19 -6q-18 -2 -71 -23q-12 -7 -26 -7 q-19 0 -40 13q-12 6 -23.5 12.5t-11.5 22.5z" />
<glyph unicode="o" horiz-adv-x="1243" d="M72 621q0 39 15 83t36 64q12 10 24 23q35 35 86 114q14 41 23 53q4 4 41 35q27 23 52.5 29t33.5 10q35 25 76 29q6 0 53 18q41 16 84 17q41 0 64.5 -17.5t66.5 -17.5q16 0 41 4t35 4q29 0 57.5 -23.5t59.5 -44.5q55 -41 93 -89t66.5 -62t34.5 -23q41 -49 51 -163 q2 -33 10.5 -56.5t8.5 -40t6 -29t6 -28.5q0 -47 -27 -125q-20 -53 -41 -104q-4 -14 -22.5 -37t-26.5 -38.5t-39 -39.5q-12 -27 -71 -96q-20 -18 -78 -64q-29 -19 -67 -19q-8 0 -17 1q-25 2 -43 2q-37 0 -63.5 -19.5t-75.5 -21.5q-14 0 -35 6q-29 8 -56.5 12t-56.5 45 q-8 12 -43 11h-10q-110 0 -160 88q-8 12 -20.5 17t-18.5 19q-4 2 -52 62.5t-60 130.5q-4 29 -17.5 51.5t-13.5 48.5q0 20 4 54q2 20 -6 57q-8 45 -8 70zM336 373q0 -66 31 -99q14 -14 22 -45.5t17 -42.5q18 -6 73 -71q29 -43 43 -43q-2 0 37 8q23 6 45 14q18 4 43 -5t37 -5 q12 2 23 6q20 2 32.5 13.5t22.5 23.5q14 6 53 61q53 99 53 182v11q-2 42 -2 75q0 50 4 79q3 20 3 50q0 53 -9 138q-4 49 -8 59q-6 25 -25.5 39.5t-24.5 38t-20 35.5q-37 33 -77.5 45t-49.5 18q-14 10 -32 11q-16 2 -45 -11q-10 -12 -43 -34q-16 -14 -52 -41q-23 -16 -41 -50 t-59 -69q-26 -21 -26 -67q0 -9 1 -19q-4 -29 -8 -119q0 -74 -9 -119t-9 -67z" />
<glyph unicode="p" horiz-adv-x="1306" d="M-14 985q0 33 37 72q12 14 51 4q14 4 61 2q37 -8 55 -8q14 0 33 9t49 9q35 0 54 -14q29 -20 49 -27q66 -20 86 -45.5t76 -44.5q29 -10 39 -16t14 -25q1 -7 1 -14q0 -31 -23 -61q-27 -35 -33.5 -70t-36.5 -76q-14 -20 -14 -75q0 -16 1 -34q2 -31 16.5 -56.5t16.5 -63.5 q2 -31 -4 -53.5t-6 -28.5q0 -20 16 -62q20 -51 25 -110q2 -31 15.5 -53.5t25.5 -41.5q4 -8 4 -14q0 -12 -33 -16q-4 0 -41 -31t-37 -111q0 -70 25 -96q14 -16 27 -65q8 -39 57 -69t49 -60q0 -13 -6 -31q-10 -33 -14 -35q-12 -18 -52 -12q-33 4 -55 4q-23 0 -69 -10 q-33 -8 -76 -8q-16 0 -33 1q-11 -2 -26 -2q-24 0 -58 4l-66 11q-110 17 -110 61q0 28 51 41q68 20 100 78q20 35 23 43q10 20 12 49q1 12 1 25q0 26 -5 53q-5 33 -5 85q0 27 1 58q0 27 6 55.5t6 47.5q0 16 -8 44.5t-6 53.5q1 17 1 32q0 52 -11 72q-16 35 -19 76v8 q0 34 15 60q16 28 16 55q0 12 -2 27q0 16 4 43.5t4 42.5q0 43 -24 92q0 14 -15 57q-6 16 -16 21q-23 8 -41 24q-41 33 -96 49q-47 14 -74 48q-8 10 -8 22zM604 971q-4 10 23 37q0 8 16 36q35 43 82 58q10 2 16 0q8 -4 23 -4q14 0 22.5 2t26.5 2q23 0 53.5 -27.5t100.5 -34.5 q27 -2 42 -22.5t22 -23.5t75 -74q45 -47 55 -78t19 -39q27 -27 39 -51.5t16 -28.5q37 -32 37 -87q0 -13 -2 -26q-2 -12 -2 -35q0 -59 -2 -77q-4 -51 -23 -103q-20 -57 -47 -77.5t-33 -36.5q-8 -25 -27.5 -46.5t-21.5 -37.5q-2 -25 -51 -107q-18 -31 -45 -45q-35 -16 -51 -33 q-35 -37 -84 -37h-92q-16 -2 -29 -2q-52 0 -66 31q-10 23 15 47q2 2 55 -2h5q59 0 124 43q31 20 53 70q14 18 33 61q4 18 11 128q5 86 5 133v24q2 33 2 65q0 23 -18 58q-16 29 -16 45t-7.5 33.5t-9.5 35.5q-2 27 -3 55.5t-32 61.5q-6 14 -47 47q-33 16 -57 17q-6 0 -17.5 -2 t-17.5 -2q-20 0 -45 14q-2 0 -65 20q-18 0 -37 2.5t-23 12.5z" />
<glyph unicode="q" horiz-adv-x="1220" d="M98 717q6 33 47 100q20 20 27.5 44t13.5 46q25 68 58 82q47 31 147 86q57 27 111 27q16 0 46 -5t68 -7q29 -2 97 -21q35 -10 49 -43t41 -41q70 -18 70 -20h-1q20 0 29 16q16 35 33 49q10 8 20 17q29 39 72 43q35 0 55 -48q10 -23 13 -49q4 -49 8 -73q10 -57 10 -93 q0 -35 -16.5 -71.5t-16.5 -85.5q0 -33 8.5 -64t8.5 -67q-4 -8 -6 -84q2 -39 -3 -58q-8 -33 -8 -41t-9 -80q-6 -51 -6 -77q0 -12 1 -19q13 -50 13 -91q0 -25 -5 -46q-11 -52 -11 -111q0 -40 5 -84q6 -53 20.5 -70.5t16.5 -31.5q6 -35 22 -65q4 -8 31 -11q37 -4 66.5 -22.5 t29.5 -53.5q0 -20 -10 -32q-37 -47 -69 -47h-3q-31 6 -153 16q-47 2 -68.5 12.5t-50.5 10.5h-14q-75 0 -105 20q-41 29 -41 53q0 10 20.5 26.5t37 40t47.5 64.5q7 9 7 43q0 40 -9 111q-8 70 -15.5 86t-31.5 33q-18 8 -62 20q-14 4 -16 23q10 33 45 76q27 33 39 94 q6 25 33 69q22 37 22 75v3q0 29 -8 66q-12 53 -12 90q0 22 4 39q6 23 6 46q0 49 -29 95q-18 31 -21 63.5t-14 43.5q-31 41 -110 110q-27 14 -39 31q-10 10 -20.5 12t-18.5 8t-25 4q-18 -2 -53 -26q-23 -18 -47 -37q-14 -8 -22.5 -26.5t-18.5 -39t-22 -41.5q-12 -27 -13 -73 q0 -96 -8 -154q-4 -47 -4 -55q1 -16 1 -30q0 -29 -3 -52q-8 -53 -10 -70v-14q0 -37 8 -74q2 -8 6 -106q2 -53 39 -68q57 -20 61 -70v-6q0 -59 -73 -59h-2q-12 0 -26.5 13.5t-23.5 17.5q-29 4 -49 -6q-14 -4 -37 28q-37 53 -41 58q-12 14 -18 32q-2 10 -4 23q-23 55 -55.5 96 t-38.5 55q-22 56 -22 99q0 17 3 32q5 22 5 40q0 29 -11 51q-22 43 -22 83q0 48 30 97z" />
<glyph unicode="r" horiz-adv-x="929" d="M41 39q0 39 23.5 66.5t23.5 29.5q0 23 6 31q23 29 47 80q18 20 41 61q4 14 4 27q0 18 -12 46t-12 44q0 20 14 49q20 39 20 87q0 18 -3 38q-6 117 -7 197q0 59 -63 133q-8 8 -49 35q-27 18 -25 41q4 27 17 36q25 14 49 27q6 2 19 -3t22 -5q12 0 33.5 5t25.5 5q25 -6 35 -6 q6 0 22.5 6t49.5 6q16 0 83.5 -30.5t81.5 -30.5q8 0 98.5 39t139.5 39q31 0 45 -15q23 -23 45 -30q23 -16 78 -35q23 -2 41 -31q4 -6 4 -18q0 -18 -11.5 -64.5t-11.5 -58.5q-27 -109 -92 -109q-16 0 -75 23q-20 8 -56.5 39.5t-47.5 34.5t-24.5 17.5t-17.5 16.5q-14 6 -45 4 t-39 -8q-16 -2 -51 -31q-15 -20 -29 -68q-10 -37 -11 -62q0 -7 1 -13q0 -18 6 -71.5t6 -73.5q0 -80 -16 -116t-16 -44t2 -21q0 -16 -2 -53t-2 -61q0 -59 4 -68q10 -29 65 -65q25 -14 51.5 -31t26.5 -39q0 -20 -51 -43q-10 -4 -76 -6q-18 0 -46 -5t-101 -5q-37 0 -72 8t-49 8 q-16 0 -29.5 -4t-32.5 -2l-37 6q-18 8 -18 41z" />
<glyph unicode="s" horiz-adv-x="974" d="M96 809v10q0 43 15 80q14 31 28.5 62.5t56.5 61.5t54 58.5t41 28.5q62 9 115 9q69 0 124 -15q16 -4 72 -41q49 -33 86 -33q33 0 77 20.5t58 20.5q29 0 56 -39q34 -50 34 -76q0 -13 -9 -27t-11 -22q-6 -41 -26.5 -83t-22.5 -83q-1 -11 -1 -22q0 -91 44 -159 q45 -71 45 -139v-11q0 -18 -51 -265q-10 -45 -33 -67l-70 -62q-49 -47 -108 -61q-14 -3 -27 -3q-31 0 -55 17q-25 18 -25 27q0 4 27 31q47 49 106 82q51 29 72 88q16 47 16 39q0 10 -8 18q-10 20 -43 47q-37 12 -84 51q-43 33 -74 37q-74 10 -147 37q-63 23 -119.5 25 t-122.5 36q-14 10 -15 26.5t-12.5 34t-29.5 52.5q-25 35 -27 45q-5 11 -5 31q0 14 3 33q4 33 2 45q-6 23 -6 55zM111 180q-6 23 0 45q4 25 2 35q-4 16 -4 32q0 21 7 42q12 33 43 33h7q18 0 31 -29q8 -20 14 -43q4 -10 31 -41q6 -12 24 -35q29 -27 38 -53.5t13 -28.5 q78 -42 80 -69q4 -35 -24 -35l-21 6q-22 6 -59 4q-27 0 -48.5 -7t-54.5 -5q-57 4 -61 59q-2 18 -18 90zM264 846q0 -16 12 -43q4 -12 62 -35q68 -29 100 -55q25 -20 51 -41q4 -4 29 -13q12 -4 30 -4t44 4h43q10 0 33 23q41 39 41 63q-1 17 -17 33q-16 29 -49 66 q-14 8 -30.5 37.5t-26.5 36.5q-18 10 -29.5 26.5t-28.5 16.5q-70 0 -96 -9q-35 -8 -67 -16q-39 -12 -64 -39q-12 -10 -24.5 -21.5t-12.5 -29.5z" />
<glyph unicode="t" horiz-adv-x="833" d="M43 989q14 10 43 49q23 45 43 70q78 96 78 135v96q4 18 27.5 52t35.5 43q18 18 53 18h7q29 -2 49 -47q4 -18 13 -52t7 -46q-4 -14 -5 -28.5t-6 -28t-5 -23.5q0 -41 16 -62q25 -29 54 -30q39 -2 61 -17q14 -12 76 -24q14 -2 26 -4q16 2 56 -11q61 -44 61 -80 q0 -78 -88 -84q-14 -4 -55 -14q-25 -6 -88 -18q-16 -2 -41 4q-16 4 -23 -6q-71 -101 -71 -147q-1 -16 -3 -91q-2 -76 -2 -115q0 -59 7 -75q14 -41 14 -78q0 -23 -7 -54.5t-3 -44.5q20 -53 20 -81v-27q37 -70 82 -78q10 -2 20 -2l74 24q47 30 58 81q0 47 14 88q2 20 18 81 q14 51 54 52q20 0 28 -37q8 -55 19 -109q10 -45 6 -59q-4 -10 -8.5 -20.5t-22.5 -67.5q-20 -82 -53 -116t-104 -48q-12 -2 -23 -2q-8 0 -27.5 2t-31.5 2q-20 -4 -47 -16q-33 -14 -56 -15q-4 0 -71 21q-53 16 -66 45q-18 37 -41 53q-12 8 -18.5 31.5t-6.5 25.5 q-8 10 -18 23.5t-8 31t-5 51.5t-7 54q0 61 -15.5 93t-13.5 40q2 45 4 88q2 88 29 177q2 4 12 122q2 16 -17.5 41t-21.5 60q-2 25 -35 41q-8 12 -39 28q-23 6 -12 35z" />
<glyph unicode="u" horiz-adv-x="1277" d="M10 985q0 14 13.5 21.5t25.5 13.5q6 6 25 4q33 -2 37 -2q16 0 31.5 9t28.5 8t54 21q35 19 73 20q7 0 13 -1q76 -6 84 -59q6 -37 20.5 -56.5t14.5 -52.5q-2 -43 -11 -61.5t-9 -44.5q0 -27 14 -59.5t14 -69.5q-2 -53 -9 -86t-7 -45q0 -57 -6 -83t-6 -50q0 -35 -4 -60 q-4 -33 -5 -43v-6q0 -53 32 -90q34 -39 71 -78q16 -20 28 -24q27 -8 35 -12.5t99 -39.5q24 -10 12 -39q-10 -20 -35 -26q-51 -16 -53 -17q-31 -12 -70 -12q-43 0 -112 17q-53 12 -154 88q-66 49 -82 141q-6 31 -6 115q-4 16 6 45.5t10 50.5q0 23 -10 49q-3 9 -3 26.5t3 43.5 q4 19 4 39q0 37 -14 75q-4 12 -8 90q-4 59 -37 95q-10 2 -27 18q-12 45 -49 74q-31 23 -31 53zM666 973q0 43 49 69q37 20 82 25q16 1 30 1q30 0 56 -5q57 -12 63 -12q10 4 58 2q82 -10 104 -148v2q-2 0 -2 -73q0 -18 6 -48t6 -38q0 2 -5 -30q-4 -23 -4 -58q0 -14 1 -31v-18 q0 -34 -6 -46q-10 -25 -17 -63q-8 -59 -8 -131t9.5 -86.5t10.5 -33t6 -26.5t21 -49q12 -31 50 -55q23 -10 46 -22.5t21 -26.5q-8 -39 -18.5 -51.5t-50.5 -26.5q-31 -2 -97 -25q-25 -14 -37 -14q-4 0 -26 14q-16 8 -49 -2q-25 -8 -51.5 15.5t-39 55.5t-40.5 77q-15 24 -15 67 v6q0 6 8.5 35t3.5 45q-10 51 -10 80q0 12 33 148q2 10 0 24q-8 25 -9 63t-7 158q-4 57 -31 86q-23 16 -44.5 30.5t-41.5 25.5q-29 16 -45 49q-10 23 -10 41z" />
<glyph unicode="v" horiz-adv-x="1277" d="M6 1004q2 10 27.5 26.5t40.5 16.5q20 4 61 -3q51 -6 84 -6q37 0 78 4.5t111 10.5q16 6 49 -2q10 1 28 1q35 0 99 -5q4 -10 123 -21q31 8 104 12q27 4 78 6q12 0 53 7.5t59 7.5q22 -4 52.5 -4t70.5 4q18 8 52 -2q25 -8 86 -19q12 -4 16 -39q2 -35 -12 -49 q-47 -47 -111 -88q-35 -23 -39 -24q-16 -20 -33.5 -39t-54.5 -39q-18 -10 -27.5 -47t-19.5 -54q-16 -14 -32.5 -31.5t-33 -37t-30.5 -70.5q-6 -12 -31 -78q-6 -41 -33 -145q-10 -33 -21.5 -42t-24.5 -40t-23 -86q-10 -61 -19 -88q-8 -37 -33.5 -53.5t-48.5 -30.5 q-28 -26 -54 -26q-13 0 -26 6q-43 12 -51 75q-2 8 -43 99q-2 25 -20 86q-20 49 -41 100q-29 73 -29 129v8v18q0 44 -8 62q-10 22 -23 43q-2 18 -32 78q-29 39 -78 129q-16 37 -33 51q-8 6 -53 29q-43 12 -148 71q-16 13 -16 39q0 21 10 50zM526 764q6 -25 11 -96v-8 q0 -56 26 -93q14 -27 58 -71q47 -29 75 -29q37 0 60 41q20 18 43 70q6 37 28 104q5 23 19 82q11 36 11 61q0 37 -23 52q-27 14 -56 30q-35 16 -61 19h-8q-44 0 -71 -22q-30 -24 -58 -48q-51 -27 -54 -92z" />
<glyph unicode="w" horiz-adv-x="1722" d="M2 979q0 27 20.5 37t55.5 15t51 18q17 11 40 11q12 0 26 -3q9 2 25 2q31 0 89 -8q25 -2 78 -11q16 -4 28.5 -24.5t24 -35.5t13.5 -26q4 -18 6 -77q2 -49 10 -65.5t8 -27.5q0 -12 -8 -61q-1 -7 -1 -15q0 -24 9 -57q2 -27 21 -94q14 -41 63 -100q18 -23 31 -23 q8 0 19.5 12.5t33.5 34.5q10 23 39 58q16 16 53 54t37 142q0 98 -20 137q-14 29 -54.5 47.5t-53.5 39t-13 34.5q0 23 37 31q2 0 35 4q25 2 75 33q16 10 31 10q2 0 59 -16q18 -6 35 -6q8 0 47 7q30 5 64 5h20q47 -4 58 -8q20 -10 20 -43q0 -59 -23.5 -85t-23.5 -59 q2 -92 12 -127q10 -27 21 -55q10 -45 32.5 -86t24.5 -63q7 -61 49 -61q4 0 8 1q25 2 27 4q16 8 25 41q0 25 22 51q27 35 27 37q2 20 18 90q12 20 29 66q9 56 9 91q0 20 -3 32q-4 14 -29 53q-18 31 -16 51q6 37 17.5 51.5t48.5 28.5q29 6 102 27q23 8 82 8q29 0 67 -2 q47 -2 58 -14q16 -20 33 -41q25 -25 24 -45q1 -15 -24 -54q-27 -45 -101 -63q-63 -18 -78 -64q-16 -25 -47 -90q-6 -31 -32 -102q-14 -37 -41 -96q-18 -18 -35 -37q-27 -31 -27 -67t-13.5 -55.5t-15.5 -27.5q-6 -43 -30.5 -72.5t-26.5 -66.5q-6 -66 -20 -90q-25 -37 -37 -84 q-20 -74 -84 -74q-27 0 -39 16q-10 6 -35 27q-8 41 -49 146q-10 12 -21 26q-14 23 -16 58.5t-4 72.5q-2 25 -20.5 51.5t-23.5 48t-13 33.5q-14 25 -27 49q-18 27 -39 27q-45 0 -55 -8q-14 -20 -31 -41q-23 -23 -22 -37q2 -14 -13 -82q-12 -37 -24.5 -51t-26.5 -59 t-33.5 -59.5t-25.5 -51.5q-10 -70 -23 -92q0 -2 -35 -43q-19 -23 -48 -23q-12 0 -27 4q-23 6 -35 43q-4 27 -11 52q-4 10 -6 82q0 23 -40 54.5t-40 74.5q0 16 -12 56t-16 103q-4 51 -23 92q-20 49 -24 74q-6 39 -35 63.5t-55 47.5q-16 16 -20.5 48t-16.5 54q-35 66 -68 76 q-20 6 -41 10q-47 41 -47 76z" />
<glyph unicode="x" horiz-adv-x="1243" d="M8 1008q0 18 41 47q18 12 31 10q16 -4 35 -8q68 -8 95 -8h9q55 8 123 10q49 2 64 6q8 2 28 0q10 0 35 -9t33 -9q35 0 71 -21q45 -25 45 -41q0 -2 -3 -13t-3 -20q0 -14 -8 -57q-4 -26 -4 -49v-15q6 -66 62 -86q51 -10 59 -6q20 2 49 15q33 45 33 80q0 25 -11.5 60.5 t-21.5 44.5t-14 22q-12 41 0 49l37 37q33 29 67 38q12 3 51 3q19 0 45 -1q18 4 58 9q23 -2 78 -25q23 -8 59 -6q27 4 46 4q13 0 22 -2q29 -4 28 -43q0 -15 -8 -29q-20 -41 -65 -57q-29 -10 -58 -18q-43 -18 -88 -39q-27 -12 -63 -52q-23 -14 -60 -55q-25 -35 -84 -94 q-35 -35 -37 -90q0 -31 41 -107q0 -4 25 -39q14 -25 43 -65q37 -39 80 -94q29 -51 45 -76q39 -51 69.5 -59.5t51.5 -24.5q12 -12 26.5 -21.5t30.5 -17.5q23 -14 23 -31q0 -10 -13 -24q-25 -27 -41 -27q-8 0 -25.5 10.5t-31.5 3.5q-34 -12 -79 -12h-13q-44 3 -62 3 q-9 0 -12 -1q-51 -8 -92 -8q-98 0 -145 49q-4 4 -5 10q0 8 15 29q20 29 22 33q12 18 13 39q0 4 -13 57q-4 25 -30 64q-12 20 -41 53q-47 47 -74 47h-2q-59 -6 -72 -43q-25 -74 -24 -135v3q2 0 14 -110v-8q0 -40 -35 -72q-23 -20 -49 -20q-10 0 -30.5 4t-28.5 4q-20 1 -38 1 q-54 0 -89 -9q-84 -18 -99 -21q-20 -2 -35.5 6.5t-33 17.5t-23.5 44q-4 31 7.5 52.5t29.5 27.5q27 6 54.5 15t107.5 65q90 59 123 76q27 12 65 67q20 14 53 62q14 20 29.5 43.5t11.5 60.5q-4 41 -19 57.5t-22 44.5q-8 39 -30 60q-14 12 -29 22q-23 31 -59.5 49.5t-53.5 40.5 q-12 8 -43 41q-16 29 -64 77q-40 40 -88 40q-10 0 -20 -2q-29 -4 -39 0q-12 8 -22 14q-31 14 -31 52z" />
<glyph unicode="y" horiz-adv-x="1148" d="M16 -238q2 27 33 66t57 55q19 14 46 14q21 0 47 -8q96 -31 116 -84q14 -39 24.5 -47t35.5 -8t49 14q33 18 43 29.5t20 46.5q6 25 32 27t34 2q4 0 6 -21q0 -20 -6 -32q-57 -123 -78 -156q-74 -113 -166 -133q-14 -2 -106 -4q-55 0 -80 20.5t-47 40.5q-14 12 -41 70 q-20 43 -20 91q0 9 1 17zM31 993q0 27 24 45q18 16 37 17q57 2 108.5 17t110.5 20q12 0 53.5 -10.5t53.5 -10.5q-2 0 33 2q23 2 42 -2t35 -18q25 -31 25 -54q0 -14 -35 -62t-35 -114q0 -37 11 -84q14 -33 34 -110q8 -66 11 -76q10 -43 22 -53q25 -14 37 -37t27.5 -28 t27.5 -5q37 0 41 33q2 23 29 45t35 67q4 18 28 29q14 18 17 53q2 86 4 103q1 10 1 20q0 45 -24 76q-37 47 -43 72q0 2 -20 24q-16 16 -12 35q2 23 28 45q39 27 78 53q23 11 70 11h8q115 -6 145 -15q20 -10 43 -18q50 -12 50 -77q0 -14 -3 -32q-12 -70 -63 -96 q-70 -35 -80 -45l-22 -47q-4 -12 -24.5 -31.5t-27 -40t-31 -49.5t-32.5 -59q0 -57 -2 -178q-2 -35 -12 -54q-16 -31 -25 -55q-12 -41 -33.5 -60.5t-34.5 -54.5q-25 -18 -73 -61q-27 -23 -29 -97.5t-29 -93.5q-12 -4 -39 -2q-18 2 -36 70q-2 10 -5 27q2 18 -4 61 q-4 16 -16 26.5t-27 43.5q-39 53 -77 106q-53 74 -74 195q-6 41 -17 59q-14 27 -20 45q-23 74 -68 125q-43 43 -57 111q-4 20 -25 37q-29 27 -39 38q-18 10 -67 87q-8 16 -8 32z" />
<glyph unicode="z" horiz-adv-x="1040" d="M43 49q0 23 20.5 59.5t22.5 45.5q12 55 20 69q25 51 89 101q41 31 58 70.5t38.5 57t31 37t21.5 29.5q25 23 68 51q63 14 67 66q8 20 19 74q2 18 20.5 51t18.5 119q0 31 -19 47q-16 10 -33 20q-23 14 -47 4q-10 4 -54 -22.5t-66.5 -33.5t-24.5 -9q-70 -43 -90.5 -75 t-38.5 -65q-12 -16 -24.5 -31.5t-39.5 -15.5t-32 16.5t-9 35.5q-10 22 -10 73q0 22 2 49q4 53 21 76q27 37 32 51q14 37 50 45q55 14 113.5 32t105.5 18q27 0 66.5 -8.5t62.5 -8.5q20 0 41 4q33 6 60 6h13q39 -4 56 -2q22 3 43 3t39 -3q49 -8 80 -8q57 0 57 -59 q0 -8 -1 -15.5t-13 -74.5q-6 -39 -19.5 -55.5t-44.5 -61.5q-43 -45 -47 -67.5t-27 -49.5q-14 -23 -41 -61q-14 -8 -69 -51q-35 -33 -35 -64q0 -47 2 -37q-4 -25 -24.5 -50t-32 -53t-15.5 -32q-31 -20 -53 -61q-47 -88 -47 -138q0 -43 31 -71q18 -16 98 -17q8 0 30.5 16.5 t39.5 20.5q29 4 71 19q53 29 82 84q2 6 25 28q4 10 30 33q4 4 64 59q6 6 12 7q8 0 21 -17q20 -25 26 -30q47 -45 47 -138q0 -76 -35.5 -101t-68.5 -52q-25 -18 -55 -21q-31 6 -94 13q-16 -4 -37 0q-27 6 -37 6q-16 0 -28.5 -3t-20.5 -3q-10 -2 -27 8q-23 14 -27 16 q-8 2 -32 -4q-21 -5 -44 -5q-12 0 -24 1q-45 5 -71 5q-13 0 -21 -1q-39 -8 -72 -8q-23 0 -36 -4t-25 -4q-20 -2 -44 -14.5t-57 -14.5h-3q-38 0 -83 51q-16 20 -16 43z" />
<glyph unicode="{" horiz-adv-x="778" d="M35 666q0 10 26 10q84 16 127 41q33 18 50 69q29 78 53 119q-8 14 0 60q10 23 8 53.5t4 38.5q14 20 8 47q-6 29 0 39q14 27 15 43q0 4 -11 45q-8 33 -2 76q12 88 13 86q-2 55 47 100q43 41 82 43q29 6 73 14q-8 0 54 -10q45 -16 100 2q32 2 55 -33q18 -29 -18 -28 q-31 2 -86 8q-23 0 -76 -29q-23 -8 -32 -36.5t-17 -56.5t-6 -64q4 -39 2 -43q-12 -27 0 -60q20 -53 20 -121q0 -70 -26 -129q-6 -12 -3 -42.5t-1 -39.5q-6 -31 -31 -73q-39 -23 -66 -56q-20 -25 -51 -34t-45 -15q-33 -12 -39 -26q-6 -10 45 -16.5t55 -10.5q39 -23 87 -66 q2 -18 6 -34q6 -25 27.5 -38.5t21.5 -54.5q2 -49 10 -63q27 -47 27 -133q0 -47 -16.5 -132t-16.5 -106q0 -23 8 -47q12 -35 14 -43q14 -61 45 -61q6 0 21.5 5t19.5 5q10 0 30 -10.5t41.5 -5t23.5 -17.5q2 -10 -1 -29.5t-71 -13.5q-37 8 -49 -2q-23 -10 -47 -10q-18 0 -51 8 q-25 4 -33 2q-18 -10 -58 14q-23 14 -47 56.5t-28 83.5q-2 20 -13 63q-8 37 -8 51q0 18 8.5 31.5t3.5 30.5q-4 20 -2 31q4 20 4 41q0 23 -7 59.5t-7 58.5q0 33 10 72q8 10 2 39q-8 8 -9 24.5t-7 30.5q-12 31 -44 52.5t-46 56.5q-6 6 -45 24q-4 8 -31 27q-47 10 -100 29z" />
<glyph unicode="|" horiz-adv-x="573" d="M188 883q8 59 21 157q2 20 -3 111.5t-5 110t-3 35t-3 46.5q6 23 12 78q4 70 10 88q10 27 43 27q78 -2 98 -57q2 -20 29 -164q8 -39 2 -80q-8 -53 -6 -88q4 -94 -4 -266q-8 -207 -2 -248q14 -84 8 -131q0 -6 8 -101q2 -29 -2 -31.5t-4 -17.5q2 -51 6 -162q0 -51 -18 -114 q-4 -12 -4 -21q0 -14 -1 -26.5t-22 -32.5q-43 -47 -63 -47q-6 0 -22.5 6t-31.5 37q-16 10 -19 18t-1 47q2 33 -10 103q0 29 -4 112q-2 51 6 97q10 63 12 84q2 39 -10 96t-12 88q-4 59 -5 246z" />
<glyph unicode="}" horiz-adv-x="778" d="M37 1509q-18 -29 18 -28q31 2 86 8q23 0 76 -29q23 -8 32 -36.5t17 -56.5t6 -64q-4 -39 -2 -43q12 -27 0 -60q-20 -53 -20 -121q0 -70 26 -129q6 -12 3 -42.5t2 -39.5q6 -31 30 -73q39 -23 66 -56q20 -25 51 -34t45 -15q33 -12 39 -26q6 -10 -45 -16.5t-55 -10.5 q-39 -23 -86 -66q-2 -18 -7 -34q-6 -25 -27.5 -38.5t-21.5 -54.5q-2 -49 -10 -63q-27 -47 -27 -133q0 -47 16.5 -132t16.5 -106q0 -23 -8 -47q-12 -35 -14 -43q-14 -61 -45 -61q-6 0 -21.5 5t-19.5 5q-10 0 -29.5 -10.5t-38.5 -5.5q-25 6 -27 -17q-2 -10 1.5 -29.5 t70.5 -13.5q37 8 49 -2q23 -10 47 -10q18 0 52 8q25 4 32 2q18 -10 58 14q23 14 47 56.5t29 83.5q2 20 12 63q8 37 8 51q0 18 -8 31.5t-4 30.5q4 20 2 31q-4 20 -4 41q0 6 12 81q8 51 -8 109q-8 10 -2 39q8 8 9 24.5t7 30.5q12 31 44 52.5t46 56.5q6 6 45 24q4 8 31 27 q49 10 100 29q0 10 -26 10q-84 16 -127 41q-33 18 -49 69q-29 78 -54 119q8 14 0 60q-4 8 -6 18q2 29 -6 74q-14 20 -8 47q6 29 0 39q-14 27 -14 43q0 4 10 45q8 33 2 76q-12 88 -12 86q2 55 -44.5 98t-85.5 45q-27 6 -73 14q8 0 -53 -10q-45 -16 -101 2q-32 2 -55 -33z" />
<glyph unicode="~" horiz-adv-x="1146" d="M84 481q-4 51 35 86q8 8 65 72q8 12 64.5 25.5t91.5 15.5q25 2 54.5 8t35.5 6q-18 0 76 -16q31 -14 110 -29q25 0 68 -16.5t74 -16.5q29 0 70.5 12.5t61 13.5t58.5 26q18 12 37 24q12 4 39 -14q35 -25 43 -76q10 -55 -37 -106q-39 -43 -98 -66q-84 -33 -180 -12 q-27 8 -111 18q-41 2 -78 31q-43 33 -65 39q-25 4 -70 -2q-41 -6 -90 8q-16 2 -35.5 -10.5t-38.5 -24.5q-78 -39 -129 -37q-43 2 -51 41z" />
<glyph unicode="&#xa1;" horiz-adv-x="694" d="M186 -168q0 68 4 80q6 23 13 43q8 37 4 65q-8 59 14 107q2 23 23 80q37 94 32 155q-4 45 5 70q8 18 16 39q4 12 14 90q2 35 31 111q-2 2 -6 2q-8 -6 -66 8q-27 12 -30 25q-6 20 -9 22q-37 35 -36 105q0 33 10 51q18 27 20 37q6 25 23 36q31 20 33 23q18 20 51 6 q8 -4 16 -4t51 -8q31 -8 41.5 -19.5t18.5 -19.5t28 -39q27 -53 27 -74q0 -16 -8 -44.5t-37 -78.5q-16 -16 -53 -30q0 -2 -9.5 -16.5t-5.5 -30.5q10 -59 6 -84t2.5 -47.5t12.5 -42.5q16 -88 16 -97q-2 -61 17 -119q14 -47 16 -127q0 -39 33 -102q12 -25 8 -92q2 -17 2 -109 q-2 -39 -16 -86q-8 -31 -19 -59q-2 -14 -21.5 -19.5t-35.5 -9.5q-47 -20 -72 -18q-37 2 -58.5 14.5t-41.5 24.5q-51 27 -62 90q-4 23 -2 92z" />
<glyph unicode="&#xa2;" horiz-adv-x="835" d="M47 784q0 14 15.5 58.5t15.5 101.5q0 27 12 47q18 29 21 33q6 14 23.5 28.5t23.5 22.5q14 27 55 51q53 29 74 50q8 12 45 34q16 -2 35 2q4 12 30 52q16 25 13 63q-6 49 45 62q31 0 39 -5q23 -12 16.5 -62t26.5 -62q8 -6 38 -15q63 -4 113 -35q12 -10 76 -65 q47 -41 39 -129q-12 -12 -35 -55q-6 -20 -38 -40t-71 -20q-45 0 -84 29q-23 16 -24 26q-6 20 -8 25q-8 16 -31 33q-4 2 -6 -2q0 -4 11 -25.5t11 -28.5q6 -2 -6 -53q-20 -57 4 -393q2 -4 8.5 8t12.5 15q20 6 67 28q14 4 58 39q23 27 49 27q49 0 47 -76q-2 -35 -12 -49 q-18 -20 -38 -42t-93 -48q-61 -29 -78 -43q-29 -27 -29 -72q0 -74 -41 -90q-14 -6 -24 -6q-37 0 -35 76q0 16 -13.5 38.5t-25.5 48t-72 62.5q-78 47 -96 66q-29 23 -82 94q-8 14 -31 41q-10 10 -20 53q-8 23 -27 72q-4 18 -4 30zM268 772q8 -35 8 -70q0 -14 11 -28 q18 -23 26 -43q18 -55 54 -62q4 4 6 9q0 20 0 18q4 37 0 61q-6 27 -4 52q-2 61 4 165q6 25 6 41q0 2 -8 50q-6 35 2 90q4 20 -13 20q-12 0 -18 -12q-20 -23 -39.5 -49.5t-28.5 -73.5q-8 -162 -6 -168z" />
<glyph unicode="&#xa3;" horiz-adv-x="1038" d="M82 160l2 53q2 25 18 37q14 2 56 14q20 16 43.5 34.5t81.5 12.5q14 -2 61 -10q16 -4 68 0q43 2 72.5 -31.5t47.5 -33.5q10 0 21 4q4 2 8 16t10.5 15t16.5 59q2 14 2 26q0 41 -47 123q-4 2 -31 37q-20 29 -57 29q-31 14 -56.5 7t-38.5 1q2 -2 -43 -10q-25 10 -59 12 q-23 2 -39 18q-6 6 -6 13q0 -2 20 22q6 6 41 6t48.5 11.5t33 25t15.5 33.5q-8 43 -43 86q-23 20 -43 72q-16 45 -15 63q2 10 -2 70q-4 47 13 92q-2 53 24 78q35 37 47 67q0 4 22.5 19.5t37.5 19.5q41 18 96 39q4 0 28.5 -4t32.5 -4q-2 0 27 -4q20 -4 70 0q18 2 61 -35 q55 -47 66 -53q31 -18 36 -98q4 -51 -22 -66q-10 -18 -35 -41q-49 -20 -67 -6q-51 31 -52 96q0 20 4 43q2 8 2 19q0 86 -120 80q-45 -14 -90 -50q-51 -39 -62 -75q-8 -29 -8 -58q0 -74 47 -147.5t47 -67.5q14 -16 35 -55q10 -53 55 -90q37 -29 60 -29q14 0 53 -6q29 -4 59 2 q14 2 25 2q14 0 29.5 -6t33.5 -6q16 0 41 4q29 4 42.5 -3t31.5 -18q35 -14 35 -36q0 -16 -16.5 -36t-32.5 -20q-12 0 -23.5 6.5t-22 10.5t-20.5 4t-44 -10.5t-81 -8.5q-31 2 -31 -28q0 -16 11 -39q33 -74 26 -97q-14 -51 -14 -77q0 -57 -18 -107q-8 -25 55 -72q29 -14 47 5 q23 2 63 16l123 70q23 0 39.5 -21.5t16.5 -42.5q0 -10 -4 -16q-25 -16 -58 -37q-16 -10 -37 -47q-12 -20 -71 -31q-12 0 -28.5 -9t-27.5 -9q-8 0 -18 4q-29 12 -62.5 13t-56.5 13q-4 0 -35.5 6.5t-56.5 6.5q-63 0 -119 -35q-16 0 -32.5 -7.5t-28.5 -7.5q-8 0 -48 8.5 t-63 8.5q-35 0 -201 90q-25 12 -22 78zM240 156q-12 -45 12 -58q10 -4 35.5 -10t27.5 -8q18 -4 39 2q29 8 46.5 12t19.5 4q10 7 12 23q4 29 -25.5 44t-58.5 15q-10 2 -26.5 -3t-20.5 -5q-59 0 -61 -16z" />
<glyph unicode="&#xa4;" horiz-adv-x="1312" d="M59 743q0 16 2 33q16 57 19 60q6 12 47 79q27 35 27 62v20q-2 12 -2 23q0 20 6 45q4 14 14 36.5t10 28.5q0 20 -24 21q-4 4 -19.5 29.5t-15.5 38.5q0 25 41 63q35 35 61 35q20 0 62 -33q31 -25 28 -47q2 2 7 4q43 27 91 43t87 37.5t78 24.5q-55 -2 75 -3q37 0 72 7.5 t51 7.5q29 0 74 -10q41 -18 82 -35q43 -23 86 -62q33 33 65 52q25 14 37 14q20 0 62.5 -44t42.5 -83q0 -31 -29 -55q-8 -6 -35.5 -16.5t-27.5 -20.5t30 -47q72 -76 82 -168q4 -39 4 -148v-78q-8 -45 -8 -51q-8 -27 -24 -49q-41 -53 -46 -133q-4 -16 25 -27q37 -14 37 -47 q0 -37 -43 -71q-49 -39 -68 -39q-12 0 -37 14q-10 6 -14 20.5t-8 14.5q2 0 -88 -43q-57 -27 -168 -96q-41 -6 -82 -11q-37 -4 -68 4q-12 4 -125 54q-27 12 -92 22q-37 6 -64.5 43t-64.5 19q-29 -29 -39 -41q-41 -20 -51 -21q-27 0 -65.5 43t-38.5 72q0 23 22 53q18 23 33 29 l14 6l-4 4q-41 43 -61 102q-27 76 -29 80q-33 55 -33 135zM295 711q0 -84 39 -185q43 -113 184 -157q86 -29 223 -13q160 18 209 93q10 14 34 29.5t34 28.5t13 41l3 27q12 12 29 76q12 28 12 94q0 90 -51 207q-35 111 -100 142q-115 55 -213 55q-53 0 -158 14 q-31 -18 -86 -73q-29 -25 -72 -70q-18 -20 -49 -94q-51 -127 -51 -215z" />
<glyph unicode="&#xa5;" horiz-adv-x="1511" d="M-16 1411q0 70 41 113q14 14 34 14q12 0 36 -6t32 -6h94q31 -8 96 0q63 6 127 14q20 4 37 4q33 0 78 -18q53 -20 92 -25q6 0 41 -14q29 -10 60 -8q20 -8 79 -2q18 4 66 2q27 -2 60.5 15t62.5 17q33 8 92 19q16 0 33.5 -3t21.5 -3q14 2 27 2q29 0 58.5 -16.5t52.5 -14.5 q14 0 23 5t26 5q20 0 50 -17.5t83 -27.5q14 -2 18 -20t-1 -32.5t-33.5 -27t-34.5 -22.5q-16 -12 -44 -47t-61 -48.5t-53.5 -35t-50.5 -60.5q-39 -104 -58 -223q29 0 105 -2q70 -2 74 -55q4 -45 -27 -64q-4 -2 -43 -12q-61 -16 -129 -6q-20 6 -59 6q-33 -27 -33 -84 q-6 -16 -25 -63q70 4 109 10q63 10 129 -6q39 -10 43 -13q29 -18 26 -63q-2 -51 -67 -57h-111q-18 -4 -61 2t-64 0q-23 -4 -61 -5q-8 -59 -8 -92q0 -31 8 -57q14 -39 18 -61q4 -35 23 -119q4 -12 17.5 -22.5t26.5 -28t46 -54.5q8 -8 33.5 -10t35 -13.5t5.5 -31.5t-21 -27 q-23 -8 -41 -8q-14 0 -38.5 11.5t-47.5 7.5q-8 -2 -37.5 -14.5t-54.5 -12.5q-20 12 -39 25q-41 23 -96 24q-72 2 -149.5 -37t-112.5 -39q-20 0 -43 7q-43 12 -56 20q-29 23 -30 76q-2 76 53 135q16 16 76 55q43 29 57 62q6 10 33 57q23 41 6 154q-72 8 -102 2 q-55 -8 -105 -11q-27 0 -56.5 7.5t-47.5 3.5q-27 2 -80 -4q-61 0 -70 55q-6 43 25 61q8 4 45 15q47 12 86 12q14 0 76 -8q49 -6 102 -2q25 8 86 14q-8 25 -33 61q-31 43 -39 62q-76 0 -129 -6q-25 -6 -51 -6q-29 0 -90 16q-37 10 -45 14q-31 18 -25 62q8 55 70 55q4 4 80 -4 q18 -4 49 2q39 8 68 8q-29 43 -80 137q-59 139 -152 140q-12 0 -24 -4q-14 -2 -84 14q-31 4 -50 31q-25 27 -49 53q-31 41 -30 92zM647 1149q8 -59 10 -64q8 -35 34 -62.5t63 -82.5q12 -14 37 -74q16 -59 36 -80q4 -4 15 -28q6 -14 32 -27q4 -2 50 -29q16 -8 24 -4 q20 12 45 43q0 39 25 121q68 127 82 180q8 31 4 84q-4 47 -12 60q-31 33 -88 98q-20 4 -52 25.5t-53 21.5q-10 2 -46 -11t-44 -13t-21.5 4t-23.5 2q-18 0 -49 -13q-41 -14 -51 -34q-25 -53 -17 -117z" />
<glyph unicode="&#xa6;" horiz-adv-x="2048" />
<glyph unicode="&#xa7;" horiz-adv-x="1024" d="M94 645q10 84 12 92q16 47 72 68q31 10 42 32.5t32 34.5q8 4 49 56q6 8 6 20q0 25 -35.5 87.5t-31.5 78.5q2 8 -11 25q-16 25 -18 26q-25 43 -25 82q0 27 14.5 59.5t14.5 43.5q-8 66 45 84q35 27 68 53q70 47 186 72q16 4 35 4q45 0 106 -27q72 -29 84 -31q20 -4 84 -71 q18 -18 21 -39q-2 2 -2 -82q0 -55 -21 -76q-16 -12 -33 -23q-41 -33 -124 -18q-18 4 -49 36t-31 56q0 8 4 15q25 37 24 71q0 61 -80 111q-29 14 -55 -6q-2 -2 -67 -13q-12 -2 -91 -108q-4 -6 -4 -15q0 -16 21.5 -57t26 -63.5t18.5 -28.5q27 -10 47 -39q63 -84 135 -92 q14 -2 72 -51q66 -57 96 -70q43 -18 98.5 -90t65.5 -113q0 -2 22.5 -24.5t30.5 -85.5q6 -12 15 -27q10 -22 10 -63q2 -39 -8 -90q-14 -20 -39 -109q-6 -25 -66 -59q-37 -20 -74 -41q-29 -10 -28 -50q0 -18 10 -30q35 -41 74 -109q51 -88 51 -133q0 -10 -4 -18 q-25 -63 -29 -102.5t-41 -73.5q-31 -27 -61 -54q-29 -37 -58 -45q-59 -16 -155 -16q-8 0 -27.5 2t-34.5 2q-20 -2 -45 -8q-18 -6 -40.5 17.5t-41.5 19.5q-45 -10 -45 -11q-127 31 -118 215q4 113 43 109q29 8 81 8q31 -8 56.5 -45t25.5 -80q0 -39 -22 -67q-14 -18 -15 -31 q0 -14 48 -51q27 -23 53 -23h53q25 -2 40 13.5t30 17.5q47 4 90 65q33 45 33 88q0 39 -31 82q-35 51 -37 60q-12 51 -63 88q-66 47 -103 55q-12 2 -33 25q-31 33 -116 80q-45 35 -82 86q-33 45 -70 67q-10 8 -29 43q-18 49 -34 99q-23 66 -17 110zM203 688q0 -41 24 -80 q14 -25 29 -49q20 -31 49 -51q14 -8 37 -35q8 -23 60.5 -60.5t66.5 -37.5q27 -2 66 -13q12 -6 42.5 -3t51.5 -7q14 -8 41 -8q61 0 104 35q53 45 43 133q-6 57 -80 135q-57 61 -92 80l-94 70q-63 45 -106.5 43t-72 5t-30.5 7q-14 0 -39 -12q-12 -6 -22 -25q-14 -27 -17 -29 q-61 -35 -61 -98z" />
<glyph unicode="&#xa8;" horiz-adv-x="1243" d="M172 1354q0 20 20.5 33.5t26.5 27.5q25 41 84 41q16 2 40 -7t42 -7q10 0 25.5 -21.5t29 -39t13.5 -38.5q2 -37 2 -43q8 -49 -19 -88q-23 -27 -74 -30q-45 -4 -81 28q-27 16 -52 33q-37 29 -49 70q-8 27 -8 41zM770 1272q-4 14 0 37q6 41 6 45q2 25 25 76q16 37 76 38 q41 2 110 -49q18 -12 32.5 -37.5t16.5 -29.5q6 -12 4 -41q-4 -27 -11 -33t-15 -43q-12 -53 -51 -59q-18 -2 -82 14q-31 8 -50 24q-10 10 -22 21q-29 10 -39 37z" />
<glyph unicode="&#xa9;" horiz-adv-x="1556" d="M-8 721q0 20 2 39q23 74 24 78q6 14 58 100q41 53 43 115q4 100 12 133q14 53 57 92q35 23 70 47l133 76q43 14 174 78q37 20 72 26q25 4 59 2q53 -4 66 -4q47 0 97 14.5t81 14.5q37 0 88 -12q168 -74 250 -160q39 -41 77 -123t64 -109q115 -121 115 -331q0 -39 -2 -82 q4 -31 0 -101q-6 -33 -27.5 -93t-27.5 -64q-27 -20 -27 -31q0 -2 4 -12q2 -6 0 -13q-4 -10 -16 -24q-23 -23 -13 -88q-12 -10 -84 -101q-41 -55 -157 -106q-98 -43 -156 -82q-37 -23 -72 -47l-98 -12q-39 -2 -79 8t-173 67q-33 14 -78 17q-55 0 -109 5t-78 55t-69 91 q-61 57 -69 68q-29 35 -105 139q-23 31 -41 93.5t-26 74.5q-39 68 -39 162zM199 664q0 -127 59 -269q45 -106 110.5 -164.5t178.5 -97.5q74 -27 137 -27q8 0 203 23q244 27 325 147q12 20 47 41t49.5 40.5t19.5 60.5l5 41q18 27 49 119q17 47 17 147q0 133 -72 313 q-33 82 -57 121q-41 66 -107 101q-162 86 -327 86q-88 0 -232 18q-66 -33 -248 -217q-35 -37 -80 -148q-78 -195 -77 -335zM309 737q8 41 8 70t10.5 45t14.5 43q0 10 29 49q8 12 22 29q12 10 18.5 31.5t14.5 29.5q12 20 14 34.5t17.5 34t70.5 58.5q31 8 80 37q16 23 36 28 t32 17q14 20 39 21q20 0 50 3t48 -3q14 -6 31 -13q37 -6 55 -67q16 -49 -137 -56q-12 2 -49 -20q-8 -16 -47 -45q-10 -20 -17 -25q-12 -6 -24 -26q-33 -47 -33 -119q0 -25 6 -78q4 -41 2 -55q-23 -84 -4 -142q8 -29 5 -56t9 -50q20 -43 35 -98q4 -16 19 -19q20 -29 63 -49 q74 -33 160 -33q10 0 47 14.5t45 16.5q39 4 41 2q6 -10 6 -20q0 -51 -63 -72q-20 -6 -45 -2q-27 6 -29 6q-23 -14 -64 -31q-8 0 -23.5 3t-25.5 3q-31 -4 -96 0q-35 6 -61.5 29t-42 26t-54.5 47t-63 58q-10 4 -29 29q-16 14 -31 31q-20 25 -28 61q-8 12 -21 41 q-8 47 -18 62.5t-19 48.5q-8 45 -4 71zM1020 1085q0 41 37 70q8 16 24.5 43t38.5 33q39 6 51 -29q16 -41 7 -133q-2 -20 10 -88q4 -20 -27 -74q-4 -8 -20 -2q-20 4 -39 27q-2 18 -15 47q-27 25 -55 57q-6 12 -12 49zM1069 379q-10 37 12 63q14 16 15 27q0 6 10 27 q8 4 23.5 36.5t23.5 32.5q4 0 17.5 -12.5t7.5 -26.5q-6 -23 -25 -73q2 -18 -18 -70q-10 -14 -29 -18q-33 -4 -37 14z" />
<glyph unicode="&#xaa;" horiz-adv-x="808" d="M14 682q2 35 29 43q35 2 69.5 5t67.5 9q53 4 213 -2q100 -4 155.5 5.5t88.5 9.5q55 -2 96 -13q33 -8 37 -57q0 -29 -9 -37t-46 -14q-66 -10 -123 -13q-14 0 -96 -4q-41 -2 -107 0q14 -6 -205 -6q-43 2 -106 10q-41 6 -53.5 16.5t-10.5 47.5zM31 954q8 51 39 84 q4 12 20 45q4 8 51 47q6 14 66 54q14 0 37 10q4 2 39 20q12 8 61 9q18 -2 43 14q10 0 55 53q12 16 9 45q-2 20 -7 39q-6 12 -24 51q-10 20 -22.5 28.5t-37.5 16.5q-57 2 -88 -18q-20 -12 -22 -57q0 -8 -17 -54q-20 -51 -57 -69q-29 -14 -41 -6q-25 14 -42 36.5t-15 79.5 q0 2 -3 18.5t-1 29.5q2 18 14 33.5t74 39.5q12 4 26 21q27 12 72 37q33 18 45 18q31 -6 94 -8q6 2 20.5 -8.5t16.5 -12.5q29 0 72 -2q8 -2 29 -35q14 -20 26 -40q23 -35 23 -33q0 -23 12 -54q10 -20 8 -49q-2 -14 -4 -51q8 -10 12 -80q-8 -18 -20 -73q0 -20 8 -35t8 -27 l-6 -33q-4 -14 12 -47q4 -14 19 -37q8 -10 35 -2q10 6 22 56q2 20 33 63q6 8 37 8q18 -2 20 -26q0 -25 -12 -52q-4 -6 -16 -49q-4 -16 -25 -32q-8 -10 -13 -33t-18 -31l-59 -4q-6 -4 -29 -8q-29 -4 -49 8q-18 23 -82 61q-10 12 -35 13q-20 0 -45 -23q-35 -29 -80 -43 q-14 -4 -43 -16q-20 0 -58 -10.5t-54 -12.5q-4 0 -23.5 13.5t-31.5 17.5q-23 8 -50 33q-8 8 -19 35.5t-9 33.5zM221 1042q-14 -102 58 -102q29 0 70.5 14.5t53.5 26.5q20 18 35 43q4 8 8 39q12 35 -2 76q-4 14 -28.5 26.5t-42.5 12.5q4 0 -27 -11q-27 -16 -55.5 -23 t-38.5 -22q-14 -29 -18.5 -33t-12.5 -47z" />
<glyph unicode="&#xab;" horiz-adv-x="1191" d="M162 549q6 -76 47 -113q31 -14 67 -57q10 -39 84 -92q20 -10 48 -41q14 -29 63 -60q16 -6 37 -26q59 -88 92 -109q8 -6 24.5 14.5t12.5 43.5q-6 33 -19.5 50t-15.5 25q-4 25 -47 84q-53 72 -68 99q-23 18 -57 69q-10 18 -21.5 41t-11.5 45q0 16 6 35q6 27 20.5 40 t21 28.5t18.5 23.5t35 41q27 53 67 88q23 10 35 49q4 23 31 47q14 16 14 54q0 59 -39 63q-4 2 -8 -4q-10 -10 -18 -16q-39 -25 -105 -101q-14 -18 -55 -43q-20 -18 -53 -57q-6 -10 -36 -28.5t-36 -32.5q-14 -23 -59 -72q-4 -4 -48 -45q-28 -27 -26 -43zM623 508q6 76 47 113 q31 14 67 57q10 39 84 92q20 10 47 41q14 29 64 59q16 8 37 27q59 88 92 109q8 6 24.5 -14.5t12.5 -43.5q-6 -33 -19.5 -50t-15.5 -26q-4 -25 -47 -84q-53 -72 -68 -98q-23 -18 -57 -69q-10 -18 -21.5 -41t-11.5 -45q0 -16 6 -35q6 -27 20.5 -40.5t20.5 -28.5t18.5 -23.5 t34.5 -40.5q27 -53 68 -88q23 -10 35 -50q4 -23 31 -47q14 -16 14 -53q0 -59 -39 -63q-4 -2 -8 4q-10 10 -19 16q-39 25 -104 100q-14 18 -55 43q-20 18 -54 58q-6 10 -35.5 28.5t-35.5 32.5q-14 23 -60 72q-4 4 -47 45q-28 27 -26 43z" />
<glyph unicode="&#xac;" horiz-adv-x="1146" d="M88 664q4 37 12 59q14 45 41 53q18 4 105 -2q20 -4 37 -4q16 0 63 -4q35 -14 94 -12q68 18 90 12q23 -6 60 -3t53 -1q20 -10 45 -10q16 0 53 6t56 6q88 -4 110 6q66 0 76 -6q16 4 25 -12q10 -23 20 -31l2 -2q8 -5 10 -17q-6 -43 -8 -86q-4 -18 2 -36q8 -25 8 -33 q0 -10 -6 -25q-2 -33 -18 -88q2 -16 -2 -94q10 -37 2 -115q-10 -27 -33 -26q-8 0 -29.5 6t-29.5 8q-76 12 -76 43q0 16 10 49q-8 27 0 98q18 33 19 50l-15 45q-6 20 4 100q-12 4 -8 8q-16 6 -37 2q-14 -4 -108 -8q-18 -2 -47 4t-39 6t-31 -8q-31 -8 -49 -8q-33 4 -63.5 8 t-92.5 14q-16 4 -37 -2q-35 -10 -71 -12q-31 6 -95 8q-25 -4 -43 -4q-66 0 -59 58z" />
<glyph unicode="&#xad;" horiz-adv-x="706" d="M35 645q0 55 24 72q14 10 62 16q31 6 61 15q47 8 185 4q98 -2 137 7t65 9q37 -2 58 -14q12 -10 24 -21q29 -18 31 -88q2 -82 -41 -90q-18 -6 -111 -8q-12 -4 -81 -12q-14 0 -93 10q-2 0 -9 -4t-34 -6q-43 -2 -131 0q-55 2 -67.5 7t-24.5 11q-33 8 -44 24.5t-11 67.5z" />
<glyph unicode="&#xae;" horiz-adv-x="1581" d="M18 616q0 33 13 82q14 66 18 93q10 72 31 180q18 41 59 192q14 70 58 97q78 47 79 49q18 18 89 100q35 39 81 68q59 37 168 43t158 30q27 12 57 13q33 0 91.5 -18.5t83.5 -18.5q41 0 100 -39q70 -45 110 -55q66 -27 84 -39q31 -20 70 -68q33 -41 68 -121q37 -88 55 -117 q51 -76 65 -106q29 -70 29 -168q0 -139 -39 -278q-18 -66 -51 -132.5t-63 -132.5q-12 -39 -27 -77q-14 -45 -43 -68t-72 -23q-61 -2 -86 -10q-49 -14 -137 -55q-49 -23 -94 -43.5t-94 -18.5q-47 2 -94.5 5.5t-106.5 15.5q-74 14 -107 18q-16 2 -94 0q-51 -2 -90 17 q-53 25 -127 121q-29 39 -51 94q-29 74 -44 102.5t-79 102.5q-49 55 -61 110q-6 29 -7 55zM182 731q0 -29 4 -55q10 -72 35 -144q55 -158 184.5 -283.5t243.5 -160.5q98 -29 225 -14q121 14 218 65q133 72 223 217q59 94 78 185q16 77 12 202q-2 53 -10 105 q-31 184 -140 311q-100 117 -237 168q-88 33 -258 33q-125 0 -187 -17q-51 -14 -118 -55q-76 -47 -95 -53q-35 -47 -47 -92q-16 -55 -28 -76q-6 -10 -49 -37q-29 -16 -29 -82q0 -16 -12.5 -92t-12.5 -125zM342 1165q-2 8 8 17.5t17 9.5q45 -4 65.5 2t25.5 6t60 4 q4 0 15.5 -5t15.5 -5q-23 4 110 4q10 0 21.5 -4t17.5 -4t17.5 5t15.5 5q25 -6 41 -2q20 6 27 6q16 0 43 -8q14 -2 39 -6q14 -4 22 -4q6 0 24.5 8t49.5 6q35 0 51 -24q20 -33 49 -41.5t60 -14.5q23 -8 30 -37q14 -16 33 -79q-2 -12 0 -33q8 -23 -20 -66q-4 -8 -35 -16 q-10 -2 -38 -26.5t-32 -33t-18 -16.5q-6 -8 -29 -27q-8 0 -29 -8q-20 -12 5 -26q12 -2 32 -19q27 -27 56 -61q4 -23 26 -49q10 -20 15.5 -49t27.5 -62q0 -8 10 -33q6 -12 31 -22.5t33 -10.5q4 0 28.5 14.5t30.5 14.5q13 -4 25 -33q-2 -37 -29 -47q-18 -6 -32.5 -25.5 t-47.5 -23.5q-8 0 -22 -6t-22.5 -6t-27 -5t-20.5 -5q-23 2 -51 22q-20 6 -43 19q-31 29 -31 28q-10 12 -14 35q-4 16 -10 47q4 12 6 51q0 23 -11.5 46.5t-7.5 66.5q0 23 -15 38t-21 44q-2 10 -12.5 14t-20.5 8q-18 0 -60 21q-12 10 -18 31q-2 14 41 28q23 8 41 8q12 0 35 -6 q12 -2 17 4.5t26 22.5q6 2 18 29l17 20q14 14 10 70q-4 63 -35 80q-12 10 -37 30q-4 -2 -53 25q-14 0 -55 14q-47 27 -80 0q-8 -12 -27 -33q-12 -12 -21.5 -23t-11.5 -34q0 -14 -4 -39q-2 -10 6 -30q6 -6 17 -37q-4 -10 4 -72q8 -14 18 -41q0 -8 -11 -21.5t-11 -39.5 q0 -12 -3 -22.5t-3 -18.5q4 -37 0 -54q-8 -27 -9 -32q-2 -8 3.5 -28t7.5 -30q-4 -31 2 -104q2 -8 28 -37q8 -12 40 -19.5t32 -31.5q0 -23 -20 -25q-59 -8 -84 -4q-23 6 -48 12q-4 0 -41.5 -8t-76.5 -6q-20 2 -41 6q-23 2 -37 -14q-6 -2 -37 8q-6 6 -23 18q-37 25 -10 48 q4 4 17 0q16 -4 34.5 3t27.5 21t30 29q16 8 20 15t4 42q2 35 0 53q-2 20 -2 19q0 6 2 35.5t2 35t4.5 39t4.5 39.5q-4 25 0 39q0 14 -9.5 47t-9.5 49q4 23 8 87q0 39 -16 63q-2 10 -12 37q-8 6 -19.5 26.5t-29.5 24.5q-4 0 -25 5t-27 5q-4 0 -12 -4q-8 -2 -16 0q-18 4 -27 47 z" />
<glyph unicode="&#xb0;" horiz-adv-x="888" d="M102 1227q0 39 41 106q10 10 8.5 31.5t2.5 34.5q37 59 104 86q12 8 51 35q25 10 45 8q18 -4 37 -8q10 0 43 6q18 2 49 -6q23 -10 66 -43t43 -41q2 -23 29 -50q8 -25 33.5 -78t23.5 -75q-12 -27 -29 -78q-2 -20 -4 -39q-2 -25 -18 -37q-131 -123 -217 -123q-29 0 -52 13 q-8 12 -71.5 48t-85.5 56q-31 53 -84 111q-14 23 -15 43zM256 1163q12 -10 39 -45q16 -20 74 -20q102 0 114 35q39 45 39 106q0 33 -18 47l-17 47q-10 27 -43 49q-10 4 -20 0t-12 -2q-12 -2 -28.5 2t-23.5 4q-33 0 -79 -59q-23 -90 -15 -108q-6 -20 -10 -56z" />
<glyph unicode="&#xb1;" horiz-adv-x="1024" d="M33 72q8 55 69 55q4 2 64 -4q20 4 84 8l98 -4q43 0 129 6q39 2 76 -8q16 -8 41 -2q31 6 41 6q37 4 110 0q25 -8 62 -10q25 -2 70 0q57 2 77 2q25 0 31 -11.5t8 -48.5q4 -43 -28 -59q-20 -4 -43 -10q-63 -14 -111 -4q-74 2 -209 8q-41 -6 -121 -10q-27 -2 -92 10 q-10 4 -22 4q-10 0 -29 -6t-27 -2q-20 -4 -92 2q-35 8 -76 2q-41 -4 -45 -4q-39 14 -43 18q-29 20 -22 62zM63 604q0 25 21 53q8 10 19.5 21.5t46.5 13.5q70 6 96 -8q10 -6 61 -2q59 6 66 6q43 -4 73 12q8 66 -2 99q-4 16 -4 26t8.5 21.5t8.5 23.5t-3 36t-8 67q-2 12 -2 20 q0 43 72 37q55 -4 55 -55q0 -31 2 -60q4 -12 -3 -14t-7 -12q0 -12 8 -43q4 -16 0 -39t4 -51q2 -8 -2 -51q39 4 45 2q31 2 55.5 -9.5t31.5 -11.5q8 0 20 6q18 14 49 6q4 -2 10 -4q25 4 76 -6q31 -18 72 -16q27 0 41 -12t12 -37q-2 -33 -70 -50q-18 -4 -71 0q-82 6 -86 7 q-33 2 -83 -5.5t-67 -7.5q-23 0 -41 6l4 -14q8 -29 13 -88q-8 -35 -6 -78q0 -8 6 -61q2 -12 -9.5 -41t-7.5 -39q0 -27 -4 -32t-35 -9q-45 -6 -58 8t-17 49q-6 53 4 88q4 14 4 25q0 10 -6 23.5t-4 29.5q4 27 -2 47q-8 31 -11 41q-2 10 1 29.5t3 23.5q-27 -6 -45 -6 q-57 0 -69 4q-6 2 -32 -5t-44 -7q-12 0 -40 8.5t-40 8.5q-14 0 -36.5 -5.5t-31.5 -5.5q-41 0 -41 37z" />
<glyph unicode="&#xb2;" horiz-adv-x="1312" d="M90 737q0 16 2 33q8 29 14 55q6 18 44 78q8 37 38 156q49 35 111 96q8 25 37 62q16 10 43 24q35 8 133 53q27 14 51 21q18 2 43 0q41 -2 47 -2q35 0 68 8t51 8q27 0 68 -10q41 -16 83 -35.5t72 -52.5q14 -8 39 -55q4 -16 33 -50q33 -39 41 -53q12 -20 31 -41 q66 -72 75 -153q4 -35 5 -144v-71q-6 -16 -21 -66q-8 -35 -20.5 -49t-12.5 -23q0 4 9 -14q4 -10 -10.5 -25.5t-51.5 -78.5q-8 -55 -41 -72q-39 -23 -108 -62q-88 -41 -164 -94q-37 -4 -72 -10q-33 -4 -63 4q-2 0 -119 51q-27 12 -84 19q-37 4 -60 35q-37 49 -163 116 q-14 4 -25 27q-8 16 -14 31q-14 25 -43 71q-16 23 -24.5 57.5t-12.5 43.5q-29 39 -29 112zM332 807q8 -43 103 -82t116 -39q8 0 31.5 5t35.5 5q18 0 53.5 -8t51.5 -8q14 0 27 4q49 12 127 33q59 16 102 57t43 72q0 23 -23 36t-43 13q-12 0 -10 -31q0 -37 -24 -53 q-33 -6 -119 -25q-137 -29 -164 -24q-115 18 -143 24q-66 14 -74 37q-12 35 -16 41q-12 14 -37 13q-10 -4 -24.5 -30t-12.5 -40zM387 975q0 -14 33 -14q35 0 96 40q16 12 72 25q39 11 39 27q0 14 -17.5 29.5t-40.5 15.5q-16 0 -99 -47t-83 -76zM743 1042q8 -10 64.5 -29.5 t71.5 -29.5q67 -47 104 -43q10 2 10 18q0 53 -43 66q-16 4 -65 35t-72 31q-37 0 -70 -48z" />
<glyph unicode="&#xb3;" horiz-adv-x="1312" d="M90 737q0 16 2 33q8 29 14 55q6 18 44 78q8 37 38 156q49 35 111 96q20 29 39 57q12 16 44 26.5t130 55.5q27 14 51 21q18 2 43 0q41 -2 47 -2q35 0 68 8t51 8q27 0 68 -10q41 -16 83 -35.5t72 -52.5q14 -8 39 -55q12 -41 105 -144q68 -74 75 -153q5 -35 5 -144 q0 -125 -39 -188q-16 -14 -17 -25q0 -2 2 -12q2 -6 0 -12q-2 -10 -14 -21q-29 -33 -49 -88q-16 -45 -31 -53q-39 -23 -108 -62q-88 -41 -164 -94q-57 -6 -86 -6q-61 0 -168 51q-29 14 -84 21q-37 2 -59.5 32.5t-170.5 108.5q-18 8 -34 55q-20 57 -40 81t-27 59.5t-11 42.5 q-29 39 -29 112zM264 690q4 -90 41 -172q39 -88 131 -147.5t172 -59.5q12 0 135 15q176 20 232 106q10 14 32.5 28.5t33 27t12.5 38.5v25q53 71 53 194q0 88 -53 220q-27 66 -39 86q-31 49 -78 71q-86 41 -207 54q-92 8 -182 16q-299 -190 -283 -502zM332 713q8 43 103 82 t116 39q8 0 31.5 -5.5t35.5 -5.5q14 0 68 13q41 8 64 0q49 -12 127 -33q59 -16 102 -57t43 -72q0 -23 -23 -36t-43 -13q-12 0 -11 33.5t-23 50.5q-33 6 -119 24q-137 29 -164 25q-115 -18 -143 -25q-66 -14 -74 -37q-12 -35 -16 -41q-12 -14 -37 -12q-10 4 -24.5 29.5 t-12.5 40.5zM387 926q0 29 83 76t99 47q23 0 40.5 -15.5t17.5 -29.5q0 -16 -39 -27q-56 -13 -72 -25q-61 -41 -96 -41q-33 0 -33 15zM743 993q33 47 70 47q23 0 72 -30.5t65 -34.5q43 -12 43 -66q0 -16 -10 -18q-37 -4 -104 43q-59 20 -136 59z" />
<glyph unicode="&#xb4;" horiz-adv-x="735" d="M186 1153q0 12 14.5 35.5t15.5 37t17 46.5q0 29 14.5 50t20.5 54q2 14 41 33q6 4 21 49q37 55 55 68q31 25 60.5 48t64.5 23q31 0 60.5 -24.5t29.5 -59.5q0 -65 -84 -122q-12 -6 -17 -23.5t-14 -21.5q-12 -23 -61 -56q-23 -10 -42.5 -38.5t-33.5 -37.5q-12 -23 -39 -51 q-10 -10 -30 -28q-29 -20 -54 -21q-39 0 -39 39z" />
<glyph unicode="&#xb5;" horiz-adv-x="1257" d="M10 985q8 27 35 33q10 2 66 4q16 0 31.5 9t29.5 8t55 19.5t84 20.5q74 -2 84 -59q6 -37 20.5 -56.5t14.5 -52.5q-2 -43 -11 -61.5t-9 -44.5q0 -27 15 -59.5t13 -69.5q-4 -102 -16 -172q-12 -61 -12 -94t-4 -58q-4 -33 -5 -43q-2 -57 32 -96t71 -78q39 -47 125 -57 q49 -2 98 -6q16 8 27 8q14 0 14 -12q0 -14 -22.5 -34t-51.5 -22q-10 -18 -43 -22q-45 -6 -61 -13q-55 -23 -152 -4l-16 4q-23 8 -27 9q-4 0 -4 -2q2 -16 6 -35t43 -47q31 -23 31 -74q0 -49 -25.5 -91t-48.5 -85q-20 -31 -75 -55q-55 -23 -78 16q-16 31 -49 53q-25 16 -25 40 t-15.5 54.5t-15.5 44.5q0 10 8.5 33t10.5 33v53q0 29 14 45q37 41 43 80t12 45q4 4 -13 18.5t-13 16.5q-41 74 -35 197q-2 16 7 45.5t9 50.5q0 23 -10 49q-12 35 -3 81t-7 103q-2 45 -12 121q-12 47 -29 58q-25 12 -31 24q-10 25 -14 33q-10 16 -35 35q-39 29 -31 59z M672 977q0 33 20 49q45 39 105 41q51 2 94 -10q37 -10 55 -6q20 4 37 4q66 0 95.5 -58.5t31.5 -89.5q-4 53 -4 -73q0 -18 6 -48t6 -38q0 2 -5 -30t-3 -89q2 -49 -6 -64q-10 -25 -17 -63q-8 -59 -8 -131t9.5 -86.5t10.5 -33t6 -26.5t21 -49q12 -31 50 -55q23 -10 46 -22.5 t21 -26.5q-8 -39 -18.5 -51.5t-48 -25.5t-64.5 -13q-18 0 -35 -13q-25 -18 -53 -4l-20 12q-8 0 -39 -10q-25 -8 -51.5 15.5t-38 54.5t-25.5 47t-19 27q-16 29 -16 57q0 16 9.5 48t6.5 52q-6 45 -6 84q0 45 29 144q4 16 -4 59q-10 68 -12 186q-2 80 -74 119q-92 51 -92 117z " />
<glyph unicode="&#xb6;" horiz-adv-x="1380" d="M27 973q0 10 18 59q14 35 -2 94q0 23 16.5 41.5t20.5 38.5q10 47 53 97q57 70 60 73q8 12 20 16.5t20 14.5q63 80 138 80q14 0 28 -2q33 -4 47 8q45 39 80 39q16 0 54 -13.5t69 -13.5q23 0 49 6q29 14 66 9q57 -12 80 -13q41 0 92 15q16 4 29 4q18 0 45.5 -10.5 t44.5 -10.5q16 0 47 5.5t41 5.5q25 0 58.5 -7.5t53.5 -7.5q10 0 37 6t37 6q20 1 47 -32q12 -14 13 -29q0 -41 -105 -113q-88 -59 -88 -168q0 -35 10.5 -81t10.5 -50q0 -12 -15.5 -74.5t-15.5 -131.5q0 -281 2 -261q-18 -74 -19 -143q0 -39 6.5 -85t6.5 -56q-10 -164 26 -348 q4 -37 11 -86q12 -72 61 -121q35 -27 70 -53q10 -2 20 -5.5t10 -15.5q0 -10 -6 -27q-12 -41 -39 -41q-10 0 -24 7q-39 10 -70 0q-10 -4 -27 2q-23 6 -28 6q-6 0 -21.5 -8.5t-25.5 -8.5t-40 7.5t-42 5.5q-20 -4 -41 -4q-45 0 -78 18q-18 -8 -47 -27q-14 -14 -31 -14 q-8 0 -40 12.5t-58.5 7t-55 10t-55.5 13.5q-16 -2 -48 -18.5t-44 -12.5q-18 8 -39 9q-16 0 -50 -6.5t-50 -6.5q-45 0 -80 31q-8 6 -8 12q0 8 28 56q12 18 33 18q66 0 74 4q86 63 86 166q0 29 -7 67.5t-7 47.5q-2 23 8 73q14 74 20 134q4 33 -2 86q-6 66 -6 98q0 74 19 158 q-172 4 -240 43q-39 16 -79 33.5t-69 82.5q-20 51 -60 81t-75 104q-29 61 -28 94zM299 1124q0 -35 12.5 -115.5t10.5 -113.5q-4 -55 34 -90q55 -49 58 -55q12 -33 38.5 -42.5t55.5 -19.5q4 -2 63 4q0 29 4 45q14 88 -6 238q-23 86 -24 145q-2 41 -7.5 49.5t-5.5 16.5 t10.5 33.5t12.5 46.5q6 76 -14 133q-49 12 -77 -24t-102 -89q-41 -29 -59 -115q-4 -20 -4 -47zM784 53q0 -49 25 -82q16 -23 16 -37q0 -8 -12 -34.5t-12 -55.5q-2 -37 10 -53q16 -27 20 -43q6 -23 41 -31q51 -12 64 -20q-4 94 10 133q0 57 8 143q29 88 -4 226q6 53 0 198 q-6 51 -6 92t12 123q11 70 5 138q-2 29 -3 57q0 -27 11 145q2 66 -23 103q-16 23 -16 39q0 8 11 33.5t11 54.5q0 37 -10 53q-14 27 -18 43q-4 20 7 45t11 35q0 14 -10 31q-20 33 -53 32q-12 0 -28.5 -5t-21.5 -5q-25 0 -8 -59q0 -127 -12 -156q0 -55 -8 -143 q-14 -29 -15 -76q0 -27 17 -150q-2 -53 4 -198q6 -49 6 -90t-12 -123q-8 -70 -4 -140q4 -59 -4 -129q-8 -82 -9 -94z" />
<glyph unicode="&#xb8;" horiz-adv-x="894" d="M190 -379q2 4 9 4l53 -18q29 -2 83 14.5t95 9.5q18 -2 41 45q2 4 -14 86q-4 27 -9.5 30t-31.5 11q-70 18 -70 54q0 6 20.5 23.5t24.5 41.5q2 35 37 35q-2 0 35 -6l6 -2q0 -2 -15.5 -12.5t-7.5 -18.5q27 -14 68 -43q6 -8 82 -70q41 -32 47 -98q8 -109 -16 -121 q-12 -6 -19 -45q-16 -45 -114 -45q-27 0 -64 4q-12 -4 -39 -4q-4 4 -51 15q-37 4 -51 12q-35 18 -45 22q-68 27 -54 76z" />
<glyph unicode="&#xb9;" horiz-adv-x="1312" d="M90 737q0 16 2 33q8 29 14 55q6 18 44 78q8 37 38 156q49 35 111 96q8 25 37 62q16 10 43 24q35 8 133 53q27 14 51 21q18 2 43 0q41 -2 47 -2q35 0 68 8t51 8q27 0 68 -10q41 -16 83 -35.5t72 -52.5q14 -8 39 -55q12 -41 105 -144q68 -74 75 -153q4 -35 5 -144v-71 q-6 -37 -39 -117q-14 -12 -15 -21q0 4 9 -14q4 -10 -10.5 -25.5t-51.5 -78.5q-8 -55 -41 -72q-39 -23 -108 -62q-88 -41 -164 -94q-55 -6 -84 -6q-70 0 -170 51q-31 14 -84 21q-37 4 -60 33q-37 49 -163 116q-23 10 -45 56q-31 66 -37 73q-16 23 -24.5 57.5t-12.5 43.5 q-29 39 -29 112zM264 690q4 -86 41 -172q12 -39 57 -96q66 -63 146 -90q57 -18 104 -19q18 0 131 13q176 20 232 106q10 14 32.5 28.5t33 27t12.5 38.5v25q18 27 39 92q14 45 14 102q0 88 -53 220q-27 66 -39 86q-31 49 -78 71q-27 12 -109 41q-61 16 -116 17q-78 0 -164 12 q-33 -18 -103 -78q-25 -25 -71 -72q-23 -25 -56 -104q-37 -90 -43 -121q-14 -53 -10 -127zM332 758q-2 14 12 39.5t25 29.5q25 2 37 -12q4 -6 15 -38t218 -64q27 -4 164 24q51 6 119 25q25 16 24 53q-2 31 10 31q20 0 43 -13t23 -36q0 -31 -43 -72t-102 -57q-39 -6 -127 -33 q-12 -4 -27 -4q-16 0 -51 8t-54 8q-12 0 -35.5 -5t-31.5 -5q-20 0 -115.5 39t-103.5 82zM387 926q0 29 83 76t99 47q23 0 40.5 -15.5t17.5 -29.5q0 -16 -39 -27q-56 -13 -72 -25q-61 -41 -96 -41q-33 0 -33 15zM743 993q33 47 70 47q23 0 72 -30.5t65 -34.5q43 -12 43 -66 q0 -16 -10 -18q-37 -4 -104 43q-59 20 -136 59z" />
<glyph unicode="&#xba;" horiz-adv-x="808" d="M35 682q2 35 28 43q35 2 70 5t68 9q53 4 213 -2q100 -4 155.5 5.5t87.5 9.5q55 -2 97 -13q33 -8 37 -57q0 -29 -9.5 -37t-46.5 -14q-66 -10 -123 -13q-14 0 -96 -4q-41 -2 -106 0q14 -6 -205 -6q-43 2 -107 10q-41 6 -53 16.5t-10 47.5zM66 1264q0 23 10 50t19 37.5 t18 16.5q23 23 53 72q10 31 39 55q16 12 32.5 16.5t20.5 6.5q23 16 47 18q4 0 32 11.5t54 11.5q25 0 39 -11.5t43 -11.5q10 0 29 4q16 2 24 0q14 -2 27 -14q29 -16 96 -82q25 -29 42.5 -38t21.5 -15q25 -29 30 -101q2 -20 7.5 -34.5t5.5 -24.5t3 -18.5t3 -18.5 q0 -20 -41 -141q-10 -12 -31 -45q-4 -10 -24 -27q-6 -16 -43 -59q-12 -12 -50 -39q-20 -14 -51 -13q-45 4 -61 -6q-23 -16 -51 -18q-10 0 -23 4q-18 6 -34.5 8t-35.5 29q-6 6 -26 6q-72 -2 -107 53q-8 4 -22 25q-4 0 -34 38t-36 81q-2 12 -16 36q-6 16 -2 58q2 12 -3 37.5 t-5 42.5zM229 1110q0 -41 19 -61q8 -20 24 -56q10 -4 47 -43q14 -25 23 -26q2 0 27 4q47 8 53 6t37 0q8 0 35 22q8 4 32 39q37 66 33 119q-2 65 2 96q4 33 -4 117q-2 31 -4 37q-4 14 -16.5 23.5t-15.5 23.5t-13 23q-20 18 -47 26t-33 13.5t-18 5.5q-10 2 -27 -6 q-20 -16 -59 -48q-14 -10 -25.5 -31.5t-34 -39t-18.5 -56.5q-2 -18 -4 -73q0 -45 -6.5 -73t-6.5 -42z" />
<glyph unicode="&#xbb;" horiz-adv-x="1191" d="M115 928q0 59 39 63q4 2 11 -6t15 -14q39 -25 105 -101q14 -18 55 -43q20 -18 53 -57q6 -10 36 -28.5t36 -32.5q14 -23 59 -72q4 -4 47 -45q29 -27 27 -43q-6 -76 -47 -113q-31 -14 -68 -57q-10 -39 -84 -92q-20 -10 -47 -41q-14 -29 -63 -60q-16 -6 -37 -26 q-59 -88 -92 -109q-8 -6 -24.5 14.5t-12.5 43.5q6 33 19.5 50t15.5 25q4 25 47 84q53 72 67 99q23 18 58 69q10 18 21 41t11 45q0 16 -6 35q-6 27 -20 40t-20.5 28.5t-18.5 23.5t-35 41q-27 53 -67 88q-23 10 -35 49q-4 23 -31 47q-14 16 -14 54zM575 129q0 -59 39 -63 q4 -2 11.5 6t15.5 14q39 25 104 100q14 18 56 43q20 18 53 58q6 10 36 28.5t36 32.5q14 23 59 72q4 4 47 45q29 27 27 43q-6 76 -47 113q-31 14 -68 57q-10 39 -84 92q-20 10 -47 41q-14 29 -63 59q-16 8 -37 27q-59 88 -92 109q-8 6 -24.5 -14.5t-12.5 -43.5q6 -33 19 -50 t15 -26q4 -25 48 -84q53 -72 67 -98q23 -18 58 -69q10 -18 21 -41t11 -45q0 -16 -6 -35q-6 -27 -20.5 -40.5t-20.5 -28.5t-18.5 -23.5t-34.5 -40.5q-27 -53 -68 -88q-23 -10 -34 -50q-4 -23 -31 -47q-14 -16 -15 -53z" />
<glyph unicode="&#xbc;" horiz-adv-x="1312" d="M90 737q0 16 2 33q8 29 14 55q6 18 44 78q8 37 38 156q49 35 111 96q8 25 37 62q16 10 43 24q35 8 133 53q27 14 51 21q18 2 43 0q41 -2 47 -2q35 0 68 8t51 8q27 0 68 -10q41 -16 83 -35.5t72 -52.5q14 -8 39 -55q4 -16 33 -50q33 -39 41 -53q12 -20 31 -41 q66 -72 75 -153q4 -35 5 -144v-71q-6 -16 -21 -66q-8 -35 -20.5 -49t-12.5 -23q0 4 9 -14q4 -10 -10.5 -25.5t-51.5 -78.5q-8 -55 -41 -72q-39 -23 -108 -62q-88 -41 -164 -94q-37 -4 -72 -10q-33 -4 -63 4q-2 0 -119 51q-27 12 -84 19q-37 4 -60 35q-37 49 -163 116 q-14 4 -25 27q-8 16 -14 31q-14 25 -43 71q-16 23 -24.5 57.5t-12.5 43.5q-29 39 -29 112zM332 762q-2 -14 12 -40t25 -30q25 -2 37 13q4 6 16 40q10 29 217 62q27 4 164 -25q51 -6 119 -24q25 -16 23.5 -50t10.5 -34q20 0 43 13t23 36q0 31 -43 72t-102 57q-39 8 -127 33 q-12 4 -27 4q-12 0 -66 -10q-41 -10 -67 -2q-20 6 -39 6q-20 0 -115.5 -39t-103.5 -82zM387 975q0 -14 33 -14q35 0 96 40q16 12 72 25q39 11 39 27q0 14 -17.5 29.5t-40.5 15.5q-16 0 -99 -47t-83 -76zM743 1042q8 -10 64.5 -29.5t71.5 -29.5q67 -47 104 -43q10 2 10 18 q0 53 -43 66q-16 4 -65 35t-72 31q-37 0 -70 -48z" />
<glyph unicode="&#xbd;" horiz-adv-x="1404" d="M106 1120q-10 35 66 39q57 4 119 -14q-27 18 -68 90q-4 14 -33.5 42t-35.5 56q-16 70 -9 80q16 16 39 14q23 -4 41.5 -7t32.5 -23q16 -27 31 -35q27 -16 41 -66q16 -63 57 -92q35 49 35 99q0 41 57 86q8 6 19 6q18 0 45 -37q12 -16 24 -31q14 -20 15 -45q0 -14 -4 -33 q-2 -8 0 -51q0 -37 -15 -57q-4 -4 -4 -11q0 -4 10.5 -21t5.5 -36q-6 -31 23 -86q14 -29 39 -82q12 16 41 88q8 31 40 52.5t42 46.5q20 53 88 53q51 0 26 -84q-6 -23 0 -55q4 -31 -10 -64q-2 -4 -12 -84q-2 -12 9 -35.5t13 -36.5q0 -29 9 -92q10 -39 30 -65q-6 53 39 96 q14 12 17 57q2 37 30 43q16 2 78 -53q20 -18 21 -108q0 -14 8 -42t8 -42q0 -10 -2 -19q-2 -33 -10 -102q-2 -12 20 -39q27 -33 31 -49q6 -27 33.5 -58.5t38.5 -58.5q25 -68 80 -107l-39 -112q-20 25 -39 47q-43 57 -62 106q-8 23 -30 48q-31 29 -31 28q-23 31 -55 58 q-39 31 -41 32q-14 14 -39 19q-31 2 -56 20q-16 10 -59 16.5t-55 12.5q-37 18 -58 18q-6 0 -30 -6q-18 -4 -41 0q-31 16 -140 45q-25 4 -88 68q-4 4 -4 10q0 16 22.5 29.5t53.5 7.5q18 -4 51 6q41 10 53 12q41 4 82 6q-14 12 -38 21q-55 23 -142 33q-31 4 -76 22 q-59 29 -82 35q-31 10 -98 72q-16 8 -33 14q-23 12 -26 35q-2 14 24.5 33.5t53.5 15.5q82 -12 110 -8q53 10 107 -2q-14 18 -33 33q-41 33 -84 39q-113 16 -168 65q-8 6 -61 31q-35 16 -48 63z" />
<glyph unicode="&#xbe;" horiz-adv-x="1300" d="M82 229l8 86q23 6 86 13q41 2 78 59q10 16 10 41q2 37 2 39q10 68 20.5 135.5t32 87t46.5 19.5q33 0 38 -27q8 -33 39 -64q4 16 19 111q-6 25 -2 70q2 8 2 16q0 14 -9.5 35.5t-9.5 30.5q0 33 -12 73.5t-12 49.5q0 14 12 22t59 0q18 -2 62.5 -49t54.5 -131q39 45 39 88 q0 6 -6 21.5t-6 25.5t10 36.5t10 37.5q0 -6 -6 92q-8 131 35 139q27 4 74 -26.5t88 -178.5q18 25 47 107q4 31 30.5 71.5t26.5 45.5q0 70 49 92q35 12 64 -41q8 -12 4 -42t4 -42t8 -29q0 -18 -18.5 -52t-18.5 -52q-2 -61 -24 -115q31 12 102 76q23 31 62 30q46 0 26 -61 q-2 -8 -2 -41q0 -25 -15 -38t-31.5 -55t-35 -56.5t-39 -45t-41.5 -42.5q-39 -23 -51 -54q-18 -45 -55 -92q41 16 115 62q25 20 57 20q35 0 37 -22q2 -39 -19 -62q-39 -41 -46 -53t-38.5 -15.5t-54.5 -27.5q-33 -37 -108 -70q-51 -23 -95 -51q47 16 86 16q31 0 50 -12 q35 -23 34 -43q0 -55 -45 -57q-25 2 -82 -17q-10 -6 -24 -6q-8 0 -53 8q-37 8 -66 2q-18 -4 -53 7q-41 12 -58 12q-10 0 -18 -2q-10 -2 -42 5t-46 7q10 0 -45 -8q-18 -4 -70 -2q-31 2 -44 -13.5t-74.5 -51t-151.5 -42.5z" />
<glyph unicode="&#xbf;" horiz-adv-x="968" d="M121 -37q0 10 16.5 52t12.5 67q-6 25 -7 35q0 6 10.5 17t16.5 50q8 57 35.5 82t56.5 51q53 78 111 101q14 12 78 49q29 16 38 39q14 35 21.5 44t30.5 30q12 8 14 26q2 4 28.5 21.5t32.5 19.5q-43 8 -104 66q-51 35 -51 116q-6 68 49 113q33 49 96 62q47 10 146 -37 q23 -10 36 -34t23 -46q12 -33 6 -58q-10 -23 -12 -57q-10 -25 -29 -67q-12 -33 -92 -46q0 -6 -27 -41q-20 -45 -43 -114q-8 -70 -28 -90q-45 -43 -62 -72q-29 -55 -94 -160q-18 -23 -31 -84q-14 -72 -8 -141q4 -47 -2 -80l-6 -41q0 -25 25 -74q33 -63 90 -86q33 -8 63 -14 q10 -4 16.5 26.5t2.5 57.5q-4 35 -5 35q0 8 23 63q31 78 104 78q25 0 52 -8q67 -23 104 -74q16 -29 16 -63q0 -41 -20 -72q-18 -37 -61 -94q-16 -18 -144 -39q-33 8 -110 6q-39 -8 -64 -8q-23 0 -40 11t-36 22q-49 20 -101 42.5t-65 59.5q-6 18 -46 66.5t-50 75t-16 116.5z " />
<glyph unicode="&#xc0;" horiz-adv-x="1910" d="M-12 78q-6 33 2 67q2 12 53 45q27 14 82 21q47 6 78 33q10 8 63 30q37 14 76 74q33 37 78 117q4 16 17.5 32.5t13.5 32.5q0 10 6 22.5t8 29.5q6 41 19.5 56t17.5 43t17 45t13 26q4 20 27 45.5t29 42.5q16 20 34.5 44.5t24.5 76.5q4 37 22.5 57t22.5 29q8 25 29.5 46 t26 31.5t10.5 42.5q2 57 23.5 91t21.5 94q0 37 5 54t5 21q2 31 16.5 41.5t21.5 22.5t23 35q20 33 39 37q47 6 93 12q33 4 61 -25q12 -18 25 -34q27 -31 36 -89q8 -45 52 -75q33 -23 39 -56q16 -66 28 -94q6 -12 4 -31q-4 -31 -2 -57q6 -29 13 -84q2 -29 20 -60.5t27 -74.5 q0 -14 18 -51q14 -18 18.5 -51t28.5 -66q6 -37 23.5 -60.5t25.5 -54.5q0 -27 13 -86q0 -10 20 -39q18 -14 23 -47q8 -43 24 -71q-4 -10 29 -56q10 -10 16 -57q4 -39 49 -57q4 -8 35 -19q135 -2 184.5 -7t57.5 -5q27 0 51 -23q27 -26 0 -75q-23 -43 -50.5 -48.5l-57.5 -11.5 q-20 -12 -39 -6q-12 4 -23 10q-27 6 -74 0q-43 -6 -75 2q-29 4 -58 -2q-18 -4 -44.5 3.5t-37.5 5.5q-29 -4 -43 -5q-14 0 -39.5 11.5t-83.5 11.5q-20 0 -35.5 -8t-24.5 -7t-23.5 -5.5t-28.5 -6.5q-35 0 -65.5 -11t-51.5 -9q-16 0 -41 18q-2 2 -63 2q-23 0 -43.5 12.5 t-30.5 12.5q-14 0 -37 -16q-39 -2 -106 -11q-16 -2 -42 -14t-57 -12q-16 0 -39 2q-29 4 -59.5 -6.5t-48.5 -10.5q-33 10 -115 15q-37 6 -141 0q-10 -2 -17 -2q4 0 -32 8q-29 6 -93 -2q-25 -4 -34 0l-22.5 10t-28 12.5t-27.5 28.5t-6 37zM604 238q10 -25 41 -35 q39 -12 57 -35q12 -16 31 -16q20 2 41 2q39 -2 86 -33q20 -12 33 -12q12 0 30.5 21.5t41.5 21.5q16 0 96 -7q55 -4 69 7q12 18 44 49q10 8 9 18t3 14q10 28 10 89q0 49 -7 64t-7 22q0 53 -105 104q-8 6 -47 10q-47 6 -69 2q-35 -4 -48 -4q-31 0 -49 -11t-35 -11q-18 0 -49 6 q-18 4 -37 -8q-23 -18 -49 -21.5t-58 -38.5t-32 -67v-131zM652 2022q4 18 28.5 51t34.5 31q6 0 24.5 -10.5t28.5 -12.5q23 -10 56 -41q20 -41 63 -80q16 -14 22.5 -46t21 -48t25.5 -41.5t26.5 -42t24.5 -35t13 -26.5q18 -84 2 -113q-10 -25 -24 -25t-43 25q-10 12 -41 37 q-4 2 -41 53q-2 -4 -74 47q-10 8 -39 92q-6 18 -30.5 40t-44 42.5t-29.5 54t-4 48.5zM719 725q0 -14 6 -23.5t12 -16.5t27 -9l80 -10q-10 2 47 6q10 0 41 14q25 14 46 30.5t23 57.5q4 92 -3 105.5t-25 38.5q-6 10 -10 36q-2 20 -11.5 26.5t-31.5 31.5q-14 18 -37 18 q-12 0 -31 -6q-27 -23 -34 -47.5t-17 -32.5q-27 -25 -29 -40t-2 -30q-10 -25 -10 -49t-17 -47q-25 -33 -24 -53z" />
<glyph unicode="&#xc1;" horiz-adv-x="1910" d="M-12 78q-6 33 2 67q2 12 53 45q27 14 82 21q47 6 78 33q10 8 63 30q37 14 76 74q33 37 78 117q4 16 17.5 32.5t13.5 32.5q0 10 6 22.5t8 29.5q6 41 19.5 56t17.5 43t17 45t13 26q4 20 27 45.5t29 42.5q16 20 34.5 44.5t24.5 76.5q4 37 22.5 57t22.5 29q8 25 29.5 46 t26 31.5t10.5 42.5q2 57 23.5 91t21.5 94q0 37 5 54t5 21q2 31 16.5 41.5t21.5 22.5t23 35q20 33 39 37q47 6 93 12q33 4 61 -25q12 -18 25 -34q27 -31 36 -89q8 -45 52 -75q33 -23 39 -56q16 -66 28 -94q6 -12 4 -31q-4 -31 -2 -57q6 -29 13 -84q2 -29 20 -60.5t27 -74.5 q0 -14 18 -51q14 -18 18.5 -51t28.5 -66q6 -37 23.5 -60.5t25.5 -54.5q0 -27 13 -86q0 -10 20 -39q18 -14 23 -47q8 -43 24 -71q-4 -10 29 -56q10 -10 16 -57q4 -39 49 -57q4 -8 35 -19q135 -2 184.5 -7t57.5 -5q27 0 51 -23q27 -26 0 -75q-23 -43 -50.5 -48.5l-57.5 -11.5 q-20 -12 -39 -6q-12 4 -23 10q-27 6 -74 0q-43 -6 -75 2q-29 4 -58 -2q-18 -4 -44.5 3.5t-37.5 5.5q-29 -4 -43 -5q-14 0 -39.5 11.5t-83.5 11.5q-20 0 -35.5 -8t-24.5 -7t-23.5 -5.5t-28.5 -6.5q-35 0 -65.5 -11t-51.5 -9q-16 0 -41 18q-2 2 -63 2q-23 0 -43.5 12.5 t-30.5 12.5q-14 0 -37 -16q-39 -2 -106 -11q-16 -2 -42 -14t-57 -12q-16 0 -39 2q-29 4 -59.5 -6.5t-48.5 -10.5q-33 10 -115 15q-37 6 -141 0q-10 -2 -17 -2q4 0 -32 8q-29 6 -93 -2q-25 -4 -34 0l-22.5 10t-28 12.5t-27.5 28.5t-6 37zM604 238q10 -25 41 -35 q39 -12 57 -35q12 -16 31 -16q20 2 41 2q39 -2 86 -33q20 -12 33 -12q12 0 30.5 21.5t41.5 21.5q16 0 96 -7q55 -4 69 7q12 18 44 49q10 8 9 18t3 14q10 28 10 89q0 49 -7 64t-7 22q0 53 -105 104q-8 6 -47 10q-47 6 -69 2q-35 -4 -48 -4q-31 0 -49 -11t-35 -11q-18 0 -49 6 q-18 4 -37 -8q-23 -18 -49 -21.5t-58 -38.5t-32 -67v-131zM719 725q0 -14 6 -23.5t12 -16.5t27 -9l80 -10q-10 2 47 6q10 0 41 14q25 14 46 30.5t23 57.5q4 92 -3 105.5t-25 38.5q-6 10 -10 36q-2 20 -11.5 26.5t-31.5 31.5q-14 18 -37 18q-12 0 -31 -6q-27 -23 -34 -47.5 t-17 -32.5q-27 -25 -29 -40t-2 -30q-10 -25 -10 -49t-17 -47q-25 -33 -24 -53zM813 1649q0 12 14.5 35.5t15.5 37t17 46.5q0 29 14.5 50t20.5 54q2 14 41 33q6 4 21 49q37 55 55 68q31 25 60.5 48t64.5 23q31 0 60.5 -24.5t29.5 -59.5q0 -65 -84 -122q-12 -6 -17 -23.5 t-14 -21.5q-12 -23 -61 -56q-23 -10 -42.5 -38.5t-33.5 -37.5q-12 -23 -39 -51q-10 -10 -30 -28q-29 -20 -54 -21q-39 0 -39 39z" />
<glyph unicode="&#xc2;" horiz-adv-x="1910" d="M-12 78q-6 33 2 67q2 12 53 45q27 14 82 21q47 6 78 33q10 8 63 30q37 14 76 74q33 37 78 117q4 16 17.5 32.5t13.5 32.5q0 10 6 22.5t8 29.5q6 41 19.5 56t17.5 43t17 45t13 26q4 20 27 45.5t29 42.5q16 20 34.5 44.5t24.5 76.5q4 37 22.5 57t22.5 29q8 25 29.5 46 t26 31.5t10.5 42.5q2 57 23.5 91t21.5 94q0 37 5 54t5 21q2 31 16.5 41.5t21.5 22.5t23 35q20 33 39 37q47 6 93 12q33 4 61 -25q12 -18 25 -34q27 -31 36 -89q8 -45 52 -75q33 -23 39 -56q16 -66 28 -94q6 -12 4 -31q-4 -31 -2 -57q6 -29 13 -84q2 -29 20 -60.5t27 -74.5 q0 -14 18 -51q14 -18 18.5 -51t28.5 -66q6 -37 23.5 -60.5t25.5 -54.5q0 -27 13 -86q0 -10 20 -39q18 -14 23 -47q8 -43 24 -71q-4 -10 29 -56q10 -10 16 -57q4 -39 49 -57q4 -8 35 -19q135 -2 184.5 -7t57.5 -5q27 0 51 -23q27 -26 0 -75q-23 -43 -50.5 -48.5l-57.5 -11.5 q-20 -12 -39 -6q-12 4 -23 10q-27 6 -74 0q-43 -6 -75 2q-29 4 -58 -2q-18 -4 -44.5 3.5t-37.5 5.5q-29 -4 -43 -5q-14 0 -39.5 11.5t-83.5 11.5q-20 0 -35.5 -8t-24.5 -7t-23.5 -5.5t-28.5 -6.5q-35 0 -65.5 -11t-51.5 -9q-16 0 -41 18q-2 2 -63 2q-23 0 -43.5 12.5 t-30.5 12.5q-14 0 -37 -16q-39 -2 -106 -11q-16 -2 -42 -14t-57 -12q-16 0 -39 2q-29 4 -59.5 -6.5t-48.5 -10.5q-33 10 -115 15q-37 6 -141 0q-10 -2 -17 -2q4 0 -32 8q-29 6 -93 -2q-25 -4 -34 0l-22.5 10t-28 12.5t-27.5 28.5t-6 37zM604 238q10 -25 41 -35 q39 -12 57 -35q12 -16 31 -16q20 2 41 2q39 -2 86 -33q20 -12 33 -12q12 0 30.5 21.5t41.5 21.5q16 0 96 -7q55 -4 69 7q12 18 44 49q10 8 9 18t3 14q10 28 10 89q0 49 -7 64t-7 22q0 53 -105 104q-8 6 -47 10q-47 6 -69 2q-35 -4 -48 -4q-31 0 -49 -11t-35 -11q-18 0 -49 6 q-18 4 -37 -8q-23 -18 -49 -21.5t-58 -38.5t-32 -67v-131zM621 1585q-10 27 67 166q23 31 52 74q2 2 39 75q6 25 112 121q39 35 74 35q27 2 53 -18q29 -27 58.5 -52.5t53 -68.5t41 -57.5t31 -47t15.5 -34.5q10 -8 24 -45l48 -66q30 -43 26 -61q-10 -39 -26 -39q-10 0 -30 9 t-23 19.5t-26.5 17.5t-43 28.5t-39 44t-37.5 42.5q-25 29 -50.5 37t-36.5 22.5t-16.5 18.5t-15.5 4t-72 -20q-37 -12 -45 -53q-2 -12 -30.5 -25.5t-36.5 -32.5q-4 -8 -33 -24.5t-35 -32.5t-28.5 -23.5t-28.5 -19.5q-12 -16 -21 -16q-12 0 -20 22zM719 725q0 -14 6 -23.5 t12 -16.5t27 -9l80 -10q-10 2 47 6q10 0 41 14q25 14 46 30.5t23 57.5q4 92 -3 105.5t-25 38.5q-6 10 -10 36q-2 20 -11.5 26.5t-31.5 31.5q-14 18 -37 18q-12 0 -31 -6q-27 -23 -34 -47.5t-17 -32.5q-27 -25 -29 -40t-2 -30q-10 -25 -10 -49t-17 -47q-25 -33 -24 -53z" />
<glyph unicode="&#xc3;" horiz-adv-x="1910" d="M-12 78q-6 33 2 67q2 12 53 45q27 14 82 21q47 6 78 33q10 8 63 30q37 14 76 74q33 37 78 117q4 16 17.5 32.5t13.5 32.5q0 10 6 22.5t8 29.5q6 41 19.5 56t17.5 43t17 45t13 26q4 20 27 45.5t29 42.5q16 20 34.5 44.5t24.5 76.5q4 37 22.5 57t22.5 29q8 25 29.5 46 t26 31.5t10.5 42.5q2 57 23.5 91t21.5 94q0 37 5 54t5 21q2 31 16.5 41.5t21.5 22.5t23 35q20 33 39 37q47 6 93 12q33 4 61 -25q12 -18 25 -34q27 -31 36 -89q8 -45 52 -75q33 -23 39 -56q16 -66 28 -94q6 -12 4 -31q-4 -31 -2 -57q6 -29 13 -84q2 -29 20 -60.5t27 -74.5 q0 -14 18 -51q14 -18 18.5 -51t28.5 -66q6 -37 23.5 -60.5t25.5 -54.5q0 -27 13 -86q0 -10 20 -39q18 -14 23 -47q8 -43 24 -71q-4 -10 29 -56q10 -10 16 -57q4 -39 49 -57q4 -8 35 -19q135 -2 184.5 -7t57.5 -5q27 0 51 -23q27 -26 0 -75q-23 -43 -50.5 -48.5l-57.5 -11.5 q-20 -12 -39 -6q-12 4 -23 10q-27 6 -74 0q-43 -6 -75 2q-29 4 -58 -2q-18 -4 -44.5 3.5t-37.5 5.5q-29 -4 -43 -5q-14 0 -39.5 11.5t-83.5 11.5q-20 0 -35.5 -8t-24.5 -7t-23.5 -5.5t-28.5 -6.5q-35 0 -65.5 -11t-51.5 -9q-16 0 -41 18q-2 2 -63 2q-23 0 -43.5 12.5 t-30.5 12.5q-14 0 -37 -16q-39 -2 -106 -11q-16 -2 -42 -14t-57 -12q-16 0 -39 2q-29 4 -59.5 -6.5t-48.5 -10.5q-33 10 -115 15q-37 6 -141 0q-10 -2 -17 -2q4 0 -32 8q-29 6 -93 -2q-25 -4 -34 0l-22.5 10t-28 12.5t-27.5 28.5t-6 37zM589 1683q-4 51 29 86q8 8 55 72 q6 12 53.5 25.5t75.5 15.5q20 2 45 8t31 6q-14 0 64 -16q27 -12 92 -29q18 0 55 -16.5t62 -16.5t59.5 12.5t51 13.5t48.5 26q14 12 31 24q8 4 31 -14q31 -25 37 -76q8 -55 -31 -106q-33 -43 -82 -66q-70 -33 -150 -12q-23 8 -92 18q-35 2 -67.5 33t-53.5 37q-18 4 -57 -2 q-35 -6 -76 8q-12 2 -28.5 -10.5t-32.5 -24.5q-63 -39 -107 -37q-37 2 -43 41zM604 238q10 -25 41 -35q39 -12 57 -35q12 -16 31 -16q20 2 41 2q39 -2 86 -33q20 -12 33 -12q12 0 30.5 21.5t41.5 21.5q16 0 96 -7q55 -4 69 7q12 18 44 49q10 8 9 18t3 14q10 28 10 89 q0 49 -7 64t-7 22q0 53 -105 104q-8 6 -47 10q-47 6 -69 2q-35 -4 -48 -4q-31 0 -49 -11t-35 -11q-18 0 -49 6q-18 4 -37 -8q-23 -18 -49 -21.5t-58 -38.5t-32 -67v-131zM719 725q0 -14 6 -23.5t12 -16.5t27 -9l80 -10q-10 2 47 6q10 0 41 14q25 14 46 30.5t23 57.5 q4 92 -3 105.5t-25 38.5q-6 10 -10 36q-2 20 -11.5 26.5t-31.5 31.5q-14 18 -37 18q-12 0 -31 -6q-27 -23 -34 -47.5t-17 -32.5q-27 -25 -29 -40t-2 -30q-10 -25 -10 -49t-17 -47q-25 -33 -24 -53z" />
<glyph unicode="&#xc4;" horiz-adv-x="1910" d="M0 78q-6 33 2 67q2 12 53 45q27 14 82 21q47 6 78 33q10 8 63 30q37 14 76 74q33 37 78 117q4 16 17.5 32.5t13.5 32.5q0 10 6 22.5t8 29.5q6 41 19.5 56t17.5 43t17 45t13 26q4 20 27 45.5t29 42.5q16 20 34.5 44.5t24.5 76.5q4 37 22.5 57t22.5 29q8 25 29.5 46 t26 31.5t10.5 42.5q2 57 23.5 91t21.5 94q0 37 5 54t5 21q2 31 16.5 41.5t21.5 22.5t23 35q20 33 39 37q47 6 93 12q33 4 61 -25q12 -18 25 -34q27 -31 36 -89q8 -45 52 -75q33 -23 39 -56q16 -66 28 -94q6 -12 4 -31q-4 -31 -2 -57q6 -29 13 -84q2 -29 20 -60.5t27 -74.5 q0 -14 18 -51q14 -18 18.5 -51t28.5 -66q6 -37 23.5 -60.5t25.5 -54.5q0 -27 13 -86q0 -10 20 -39q18 -14 23 -47q8 -43 24 -71q-4 -10 29 -56q10 -10 16 -57q4 -39 49 -57q4 -8 35 -19q135 -2 184.5 -7t57.5 -5q27 0 51 -23q27 -26 0 -75q-23 -43 -50.5 -48.5l-57.5 -11.5 q-20 -12 -39 -6q-12 4 -23 10q-27 6 -74 0q-43 -6 -75 2q-29 4 -58 -2q-18 -4 -44.5 3.5t-37.5 5.5q-29 -4 -43 -5q-14 0 -39.5 11.5t-83.5 11.5q-20 0 -35.5 -8t-24.5 -7t-23.5 -5.5t-28.5 -6.5q-35 0 -65.5 -11t-51.5 -9q-16 0 -41 18q-2 2 -63 2q-23 0 -43.5 12.5 t-30.5 12.5q-14 0 -37 -16q-39 -2 -106 -11q-16 -2 -42 -14t-57 -12q-16 0 -39 2q-29 4 -59.5 -6.5t-48.5 -10.5q-33 10 -115 15q-37 6 -141 0q-10 -2 -17 -2q4 0 -32 8q-29 6 -93 -2q-25 -4 -34 0l-22.5 10t-28 12.5t-27.5 28.5t-6 37zM553 1809q0 20 20.5 33.5t26.5 27.5 q25 41 84 41q16 2 40 -7t42 -7q10 0 25.5 -21.5t29 -39t13.5 -38.5q2 -37 2 -43q8 -49 -19 -88q-23 -27 -74 -30q-45 -4 -81 28q-27 16 -52 33q-37 29 -49 70q-8 27 -8 41zM616 238q10 -25 41 -35q39 -12 57 -35q12 -16 31 -16q20 2 41 2q39 -2 86 -33q20 -12 33 -12 q12 0 30.5 21.5t41.5 21.5q16 0 96 -7q55 -4 69 7q12 18 44 49q10 8 9 18t3 14q10 28 10 89q0 49 -7 64t-7 22q0 53 -105 104q-8 6 -47 10q-47 6 -69 2q-35 -4 -48 -4q-31 0 -49 -11t-35 -11q-18 0 -49 6q-18 4 -37 -8q-23 -18 -49 -21.5t-58 -38.5t-32 -67v-131zM731 725 q0 -14 6 -23.5t12 -16.5t27 -9l80 -10q-10 2 47 6q10 0 41 14q25 14 46 30.5t23 57.5q4 92 -3 105.5t-25 38.5q-6 10 -10 36q-2 20 -11.5 26.5t-31.5 31.5q-14 18 -37 18q-12 0 -31 -6q-27 -23 -34 -47.5t-17 -32.5q-27 -25 -29 -40t-2 -30q-10 -25 -10 -49t-17 -47 q-25 -33 -24 -53zM1151 1727q-4 14 0 37q6 41 6 45q2 25 25 76q16 37 76 38q41 2 110 -49q18 -12 32.5 -37.5t16.5 -29.5q6 -12 4 -41q-4 -27 -11 -33t-15 -43q-12 -53 -51 -59q-18 -2 -82 14q-31 8 -50 24q-10 10 -22 21q-29 10 -39 37z" />
<glyph unicode="&#xc5;" horiz-adv-x="1910" d="M0 78q-6 33 2 67q2 12 53 45q27 14 82 21q47 6 78 33q10 8 63 30q37 14 76 74q33 37 78 117q4 16 17.5 32.5t13.5 32.5q0 10 6 22.5t8 29.5q6 41 19.5 56t17.5 43t17 45t13 26q4 20 27 45.5t29 42.5q16 20 34.5 44.5t24.5 76.5q4 37 22.5 57t22.5 29q8 25 29.5 46 t26 31.5t10.5 42.5q2 57 23.5 91t21.5 94q0 37 5 54t5 21q2 31 16.5 41.5t21.5 22.5t23 35q20 33 39 37q47 6 93 12q33 4 61 -25q12 -18 25 -34q27 -31 36 -89q8 -45 52 -75q33 -23 39 -56q16 -66 28 -94q6 -12 4 -31q-4 -31 -2 -57q6 -29 13 -84q2 -29 20 -60.5t27 -74.5 q0 -14 18 -51q14 -18 18.5 -51t28.5 -66q6 -37 23.5 -60.5t25.5 -54.5q0 -27 13 -86q0 -10 20 -39q18 -14 23 -47q8 -43 24 -71q-4 -10 29 -56q10 -10 16 -57q4 -39 49 -57q4 -8 35 -19q135 -2 184.5 -7t57.5 -5q27 0 51 -23q27 -26 0 -75q-23 -43 -50.5 -48.5l-57.5 -11.5 q-20 -12 -39 -6q-12 4 -23 10q-27 6 -74 0q-43 -6 -75 2q-29 4 -58 -2q-18 -4 -44.5 3.5t-37.5 5.5q-29 -4 -43 -5q-14 0 -39.5 11.5t-83.5 11.5q-20 0 -35.5 -8t-24.5 -7t-23.5 -5.5t-28.5 -6.5q-35 0 -65.5 -11t-51.5 -9q-16 0 -41 18q-2 2 -63 2q-23 0 -43.5 12.5 t-30.5 12.5q-14 0 -37 -16q-39 -2 -106 -11q-16 -2 -42 -14t-57 -12q-16 0 -39 2q-29 4 -59.5 -6.5t-48.5 -10.5q-33 10 -115 15q-37 6 -141 0q-10 -2 -17 -2q4 0 -32 8q-29 6 -93 -2q-25 -4 -34 0l-22.5 10t-28 12.5t-27.5 28.5t-6 37zM616 238q10 -25 41 -35 q39 -12 57 -35q12 -16 31 -16q20 2 41 2q39 -2 86 -33q20 -12 33 -12q12 0 30.5 21.5t41.5 21.5q16 0 96 -7q55 -4 69 7q12 18 44 49q10 8 9 18t3 14q10 28 10 89q0 49 -7 64t-7 22q0 53 -105 104q-8 6 -47 10q-47 6 -69 2q-35 -4 -48 -4q-31 0 -49 -11t-35 -11q-18 0 -49 6 q-18 4 -37 -8q-23 -18 -49 -21.5t-58 -38.5t-32 -67v-131zM731 725q0 -14 6 -23.5t12 -16.5t27 -9l80 -10q-10 2 47 6q10 0 41 14q25 14 46 30.5t23 57.5q4 92 -3 105.5t-25 38.5q-6 10 -10 36q-2 20 -11.5 26.5t-31.5 31.5q-14 18 -37 18q-12 0 -31 -6q-27 -23 -34 -47.5 t-17 -32.5q-27 -25 -29 -40t-2 -30q-10 -25 -10 -49t-17 -47q-25 -33 -24 -53zM756 1790q-8 57 20 111q4 12 15 47q8 20 22.5 27.5t28.5 15.5q8 16 57 49q20 6 64 8q45 0 49 -4q12 -12 43 -16q18 -10 61 -29q18 -8 56 -37q6 -23 22 -63q29 -50 27 -60q-25 -197 -111 -209 q-12 2 -67 -8q-61 -12 -86 -10q-47 16 -111 25q-49 16 -61 108q0 12 -12.5 24.5t-16.5 20.5zM873 1813q14 -33 49 -76q6 -14 22 -39q12 0 47 -8q29 -6 74 39.5t37 68.5q0 35 -21.5 71t-46.5 36l-34 20q-20 12 -54 9q-8 -2 -12 -10.5t-6 -8.5q-18 -12 -39 -24 q-18 -18 -16 -78z" />
<glyph unicode="&#xc6;" horiz-adv-x="1925" d="M2 53q0 23 39 68q23 27 57.5 44t67.5 52q2 8 45 60.5t55 107.5q4 23 24.5 40t22.5 50q4 72 64 107q14 8 24.5 27.5t22.5 29.5t18 39q10 39 39 88t49 57q12 4 21 29q12 43 36.5 66.5t51.5 107.5q2 14 17.5 26.5t31.5 45.5q23 27 29 56.5t26 53.5q31 33 39 49q27 45 27 89 q0 53 -29 57q-14 -8 -47 -6q-23 18 -22 37q0 20 21.5 35.5t41.5 15.5q8 0 28.5 7t28.5 7q35 -10 72 -8q43 2 41 2q23 8 70 8q47 8 96 2t96 6q16 4 37 4q16 0 48 -3t48 -3q39 0 74 13q6 2 53 -9q-4 0 43 7q41 6 80 -9q2 0 90 7q12 2 35 -6.5t27 -8.5t20.5 12.5t34.5 6.5 q68 -20 86 -168q4 -33 -4 -60l-8 -26q0 -96 -4 -107q-10 -12 -8 -97t-31 -85t-51 96q-16 57 -41 88q-20 25 -23 43q0 8 -29 27q-12 18 -36 45q-27 14 -48 37q-12 14 -24 14q-20 0 -62 25q-14 8 -49 0q-6 -2 -28.5 6t-54 8t-56.5 2t-29 2q-27 -10 -61 -22q2 0 -27.5 -27 t-29.5 -78q0 -41 -7.5 -77t-7.5 -58q0 -27 6 -66q-2 -41 7 -129q6 -23 25.5 -35t35.5 -8q94 8 120.5 22.5t59.5 68.5q10 14 31 65q14 45 59 45q6 2 15.5 -17.5t11.5 -41.5q-4 -37 -4 -105q10 -45 10 -76q0 -12 -6 -55q-4 -33 0 -66.5t0 -107.5q-6 -70 -10 -80q-25 -29 -60 0 q-27 12 -32 21q-14 14 -19 43q-14 84 -53 114q-37 23 -92 23q-33 0 -58 -10q-37 -16 -43 -56v-90q0 -160 0 -159q-2 8 -2 -138q0 -90 30 -99t71 -30q23 -12 53 -12q49 0 91 13.5t56 13.5q12 0 29 -4q14 -4 48 15t46 36q6 6 40 18t39 26.5t27.5 32t24.5 25.5q8 27 32 54.5 t32 66.5q29 127 51 127q20 0 36.5 -25.5t4.5 -66.5q0 -6 6 -64q6 -66 6 -116q0 -39 4 -50.5t4 -66.5q0 -152 -77 -162l-107 2q-45 0 -81 -8t-64 -8q-66 0 -99 8q-4 2 -22 0q-23 -4 -33 -4q-12 0 -54 6t-65 6q-31 0 -49 -8q-23 -8 -78 10q-16 2 -30 2t-42 -4t-46 -4 q-23 0 -50 4q-14 2 -36 0q-29 -2 -33 -2q-184 0 -164 76q8 29 88 51q4 2 37 6q20 2 33 19q10 8 20 18t8 43q-2 27 9.5 56.5t9.5 41.5q-2 14 0 39q4 31 4 39q0 35 -23 70q-41 61 -49 61q-53 6 -119 -10q-37 6 -98 2q-20 -4 -68 6q-53 10 -65 10q-6 0 -24.5 -9t-49.5 -9 q-23 0 -43 -17.5t-23 -36t-36 -57.5t-39 -69q-8 -47 -29 -82q-8 -14 -8 -29q0 -29 39 -67q31 -31 76 -25q27 4 39 -14q16 -10 37 -52q6 -39 -58 -61q-29 2 -82 0q-14 10 -65 6q-41 -10 -97 -4q-66 8 -79 6q-57 -6 -50 -6q-39 0 -53 27q-6 12 -6 22zM551 664q6 -29 33 -23 q31 6 63 0q45 -8 76 -6q20 0 54 8t44 8q4 0 19.5 -3t23.5 -1q12 4 23 17q16 20 28.5 51t8.5 41q-4 37 -4 69q0 31 6 84q4 33 -2 52q-10 33 -11 51q0 8 5 20q2 12 0 23q-2 14 -13 41q-29 72 -41 71q-29 -4 -43 -28q-25 -29 -49 -59.5t-27 -49.5q-2 -6 -22.5 -25.5 t-20.5 -33.5q0 -20 -16 -41t-16 -23q-10 -27 -24.5 -41t-24.5 -41q-18 -18 -34 -50t-28 -42q-18 -14 -8 -69z" />
<glyph unicode="&#xc7;" horiz-adv-x="1441" d="M55 702q0 16 8.5 56.5t8.5 85.5t15 71.5t22 67.5q4 25 17 43t26.5 36.5t35.5 43.5q23 14 31 43q10 39 21 53q23 31 24.5 54.5t20.5 50.5q31 33 114 94q37 12 74 24.5t51 30.5q27 35 57.5 43t49.5 29q23 31 61 33q31 -2 80 0q23 4 39 4q23 0 46.5 -10.5t35.5 -12.5 q57 -10 88 -108q23 -74 -215 -84q-16 -2 -33.5 -6.5t-41 -27t-44.5 -50.5q-8 -10 -33 -19q-14 -33 -28.5 -41t-34.5 -39q-49 -76 -49 -188q0 -37 8 -121q8 -63 2 -84q-20 -80 -20 -131q0 -29 12 -85t12 -71v-26q-2 -14 -2 -21q0 -27 14 -55q33 -66 56 -154q6 -23 14 -24.5 t14 -3.5q31 -45 101 -76q27 -14 55.5 -27.5t80.5 -13.5t80.5 -5t31.5 -5q18 0 69 20q61 25 74 27q4 0 43 8q14 4 23.5 -8.5t9.5 -28.5q0 -39 -46.5 -79t-91.5 -40q-18 0 -43.5 7.5t-33.5 5.5q-37 -23 -99 -47q-14 -2 -38.5 4t-39.5 6q-49 -6 -151 -2q-55 10 -96 46t-62 40 q-27 6 -84 69q-66 74 -102 95q-16 8 -47 45q-23 25 -47 49q-33 37 -45 96q-12 16 -31 64q-14 74 -30.5 97t-26.5 77q-10 45 -11 75zM503 -379q2 4 9 4l53 -18q29 -2 83 14.5t95 9.5q18 -2 41 45q2 4 -14 86q-4 27 -9.5 30t-31.5 11q-70 18 -70 54q0 6 20.5 23.5t24.5 41.5 q2 35 37 35q-2 0 35 -6l6 -2q0 -2 -15.5 -12.5t-7.5 -18.5q27 -14 68 -43q6 -8 82 -70q41 -32 47 -98q8 -109 -16 -121q-12 -6 -19 -45q-16 -45 -114 -45q-27 0 -64 4q-12 -4 -39 -4q-4 4 -51 15q-37 4 -51 12q-35 18 -45 22q-68 27 -54 76zM1169 1282q0 25 21 64 q20 33 37 45q12 25 35 69q29 39 65 49q33 4 43 0q23 -8 37 -47q23 -63 8 -207q-3 -33 17 -137q6 -31 -41 -117q-6 -10 -33 -2q-31 6 -60 43q-4 27 -24 74q-41 37 -86 88q-8 20 -19 78zM1245 176q-16 57 21 100q23 25 22 41q-2 8 17 41q12 8 35.5 59.5t37.5 51.5 q6 -2 26.5 -20t10.5 -41q-10 -35 -37 -115q-10 -23 -10 -57q0 -27 -18.5 -51.5t-46.5 -28.5q-49 -8 -58 20z" />
<glyph unicode="&#xc8;" horiz-adv-x="1634" d="M2 1442q2 41 59 71q47 25 105 31q18 0 63 -13t58 -13q23 -2 56.5 11t57.5 13q23 0 52 -8q18 -4 57 3t43 5q35 -18 90 -47q16 -6 33 -6l53 10q39 6 84 -4q10 -2 31 2q29 6 49 6q31 0 74 14.5t59 14.5q20 0 74.5 -17.5t89.5 -19.5q23 -2 72 12q66 16 71 17q53 4 123 -51 q35 -29 21 -134q2 -51 0 -127q-4 -49 16 -77.5t20 -73.5q0 -55 -22 -94q-6 -8 -37 -9q-27 -4 -35 19q-6 16 -37 57q-10 14 -17 50t-26 57q-63 37 -82 88q-10 29 -75 71q-2 2 -45 52q-18 20 -80 16q-27 -2 -64 2q-31 -8 -125 0q-53 12 -65 6q-45 -14 -93 -29.5t-73 -54.5 q-10 -16 -16 -149q-2 -25 -14.5 -59.5t-12.5 -49.5q0 -25 19.5 -50.5t25.5 -92.5q2 -25 17.5 -32t29.5 -13q14 -4 78 18q25 20 149 70q41 12 41 90q0 35 9 49q10 23 12 29q14 55 35 72q10 10 14 8q12 -8 25 -17q29 -14 43 -75q2 -12 2 -27q0 -33 -13 -76q-16 -53 -16 -55 q0 -18 -10 -98q-4 -31 0 -41q4 -18 10 -35q6 -29 20 -99t-6 -98q-12 -18 -59 -8q-16 0 -33 22q-37 61 -74 80q-25 8 -46 19.5t-50 40.5h-63q-23 4 -45 18q-14 10 -52 6q-10 0 -26 -30q-12 -23 -23 -43q-10 -10 -10 -27q0 6 -16 -90q-4 -25 -4 -43q0 -35 18 -73t20 -68 q4 -68 35 -127q10 -14 21.5 -46t42.5 -63q23 -18 131 -18q12 0 33.5 7t35.5 3q53 -12 99 20q20 10 45 11q45 27 60.5 31.5t56.5 6.5q8 2 30 29q29 35 70 60q18 10 27 38q14 39 45 78q12 18 28 43q29 27 42.5 66t17.5 43q14 14 45 8q16 -2 59 -57q14 -18 19 -54q4 -51 12 -79 q2 -9 0 -54q-2 -74 -21 -114q-31 -74 -41 -113q-8 -27 -24 -49q-23 -27 -35 -58q-45 -8 -92 27q-53 39 -80 39q-18 0 -41 -10q-14 -6 -29 -2q-25 8 -26 8q-18 0 -47 -12.5t-70 -8.5q-2 0 -21.5 14.5t-44.5 10.5q-33 -6 -61 -6q-27 0 -52.5 6t-27.5 6q-6 0 -21.5 -11 t-20.5 -13t-13 -2q-6 0 -35 4t-49 2q-31 0 -57 -13q-18 -8 -44 -8q-47 0 -129 31q-10 4 -79 4q-12 0 -39 5t-31 5q-20 0 -59 -29.5t-74 -25.5q-39 8 -111 16q-20 2 -63 31q-23 18 -17 35q2 8 22.5 25.5t35.5 19.5q70 12 164 45q10 8 18 39q4 23 8 45q18 57 19 59q0 6 -11 52 q-2 27 16.5 64.5t14.5 127.5q-6 156 0 258q0 33 -10 64.5t-10 48.5q0 12 4 28q16 82 16 123q0 43 -33 119q-12 37 -30 86q-18 41 -39 55q-27 12 -54 25q-10 6 -51 -12q-16 -8 -56 12t-38 78zM564 2011q4 18 28.5 51t34.5 31q6 0 24.5 -10.5t28.5 -12.5q23 -10 56 -41 q20 -41 63 -80q16 -14 22.5 -46t21 -48t25.5 -41.5t26.5 -42t24.5 -35t13 -26.5q18 -84 2 -113q-10 -25 -24 -25t-43 25q-10 12 -41 37q-4 2 -41 53q-2 -4 -74 47q-10 8 -39 92q-6 18 -30.5 40t-44 42.5t-29.5 54t-4 48.5z" />
<glyph unicode="&#xc9;" horiz-adv-x="1634" d="M2 1442q2 41 59 71q47 25 105 31q18 0 63 -13t58 -13q23 -2 56.5 11t57.5 13q23 0 52 -8q18 -4 57 3t43 5q35 -18 90 -47q16 -6 33 -6l53 10q39 6 84 -4q10 -2 31 2q29 6 49 6q31 0 74 14.5t59 14.5q20 0 74.5 -17.5t89.5 -19.5q23 -2 72 12q66 16 71 17q53 4 123 -51 q35 -29 21 -134q2 -51 0 -127q-4 -49 16 -77.5t20 -73.5q0 -55 -22 -94q-6 -8 -37 -9q-27 -4 -35 19q-6 16 -37 57q-10 14 -17 50t-26 57q-63 37 -82 88q-10 29 -75 71q-2 2 -45 52q-18 20 -80 16q-27 -2 -64 2q-31 -8 -125 0q-53 12 -65 6q-45 -14 -93 -29.5t-73 -54.5 q-10 -16 -16 -149q-2 -25 -14.5 -59.5t-12.5 -49.5q0 -25 19.5 -50.5t25.5 -92.5q2 -25 17.5 -32t29.5 -13q14 -4 78 18q25 20 149 70q41 12 41 90q0 35 9 49q10 23 12 29q14 55 35 72q10 10 14 8q12 -8 25 -17q29 -14 43 -75q2 -12 2 -27q0 -33 -13 -76q-16 -53 -16 -55 q0 -18 -10 -98q-4 -31 0 -41q4 -18 10 -35q6 -29 20 -99t-6 -98q-12 -18 -59 -8q-16 0 -33 22q-37 61 -74 80q-25 8 -46 19.5t-50 40.5h-63q-23 4 -45 18q-14 10 -52 6q-10 0 -26 -30q-12 -23 -23 -43q-10 -10 -10 -27q0 6 -16 -90q-4 -25 -4 -43q0 -35 18 -73t20 -68 q4 -68 35 -127q10 -14 21.5 -46t42.5 -63q23 -18 131 -18q12 0 33.5 7t35.5 3q53 -12 99 20q20 10 45 11q45 27 60.5 31.5t56.5 6.5q8 2 30 29q29 35 70 60q18 10 27 38q14 39 45 78q12 18 28 43q29 27 42.5 66t17.5 43q14 14 45 8q16 -2 59 -57q14 -18 19 -54q4 -51 12 -79 q2 -9 0 -54q-2 -74 -21 -114q-31 -74 -41 -113q-8 -27 -24 -49q-23 -27 -35 -58q-45 -8 -92 27q-53 39 -80 39q-18 0 -41 -10q-14 -6 -29 -2q-25 8 -26 8q-18 0 -47 -12.5t-70 -8.5q-2 0 -21.5 14.5t-44.5 10.5q-33 -6 -61 -6q-27 0 -52.5 6t-27.5 6q-6 0 -21.5 -11 t-20.5 -13t-13 -2q-6 0 -35 4t-49 2q-31 0 -57 -13q-18 -8 -44 -8q-47 0 -129 31q-10 4 -79 4q-12 0 -39 5t-31 5q-20 0 -59 -29.5t-74 -25.5q-39 8 -111 16q-20 2 -63 31q-23 18 -17 35q2 8 22.5 25.5t35.5 19.5q70 12 164 45q10 8 18 39q4 23 8 45q18 57 19 59q0 6 -11 52 q-2 27 16.5 64.5t14.5 127.5q-6 156 0 258q0 33 -10 64.5t-10 48.5q0 12 4 28q16 82 16 123q0 43 -33 119q-12 37 -30 86q-18 41 -39 55q-27 12 -54 25q-10 6 -51 -12q-16 -8 -56 12t-38 78zM678 1606q0 12 14.5 35.5t15.5 37t17 46.5q0 29 14.5 50t20.5 54q2 14 41 33 q6 4 21 49q37 55 55 68q31 25 60.5 48t64.5 23q31 0 60.5 -24.5t29.5 -59.5q0 -65 -84 -122q-12 -6 -17 -23.5t-14 -21.5q-12 -23 -61 -56q-23 -10 -42.5 -38.5t-33.5 -37.5q-12 -23 -39 -51q-10 -10 -30 -28q-29 -20 -54 -21q-39 0 -39 39z" />
<glyph unicode="&#xca;" horiz-adv-x="1634" d="M2 1442q2 41 59 71q47 25 105 31q18 0 63 -13t58 -13q23 -2 56.5 11t57.5 13q23 0 52 -8q18 -4 57 3t43 5q35 -18 90 -47q16 -6 33 -6l53 10q39 6 84 -4q10 -2 31 2q29 6 49 6q31 0 74 14.5t59 14.5q20 0 74.5 -17.5t89.5 -19.5q23 -2 72 12q66 16 71 17q53 4 123 -51 q35 -29 21 -134q2 -51 0 -127q-4 -49 16 -77.5t20 -73.5q0 -55 -22 -94q-6 -8 -37 -9q-27 -4 -35 19q-6 16 -37 57q-10 14 -17 50t-26 57q-63 37 -82 88q-10 29 -75 71q-2 2 -45 52q-18 20 -80 16q-27 -2 -64 2q-31 -8 -125 0q-53 12 -65 6q-45 -14 -93 -29.5t-73 -54.5 q-10 -16 -16 -149q-2 -25 -14.5 -59.5t-12.5 -49.5q0 -25 19.5 -50.5t25.5 -92.5q2 -25 17.5 -32t29.5 -13q14 -4 78 18q25 20 149 70q41 12 41 90q0 35 9 49q10 23 12 29q14 55 35 72q10 10 14 8q12 -8 25 -17q29 -14 43 -75q2 -12 2 -27q0 -33 -13 -76q-16 -53 -16 -55 q0 -18 -10 -98q-4 -31 0 -41q4 -18 10 -35q6 -29 20 -99t-6 -98q-12 -18 -59 -8q-16 0 -33 22q-37 61 -74 80q-25 8 -46 19.5t-50 40.5h-63q-23 4 -45 18q-14 10 -52 6q-10 0 -26 -30q-12 -23 -23 -43q-10 -10 -10 -27q0 6 -16 -90q-4 -25 -4 -43q0 -35 18 -73t20 -68 q4 -68 35 -127q10 -14 21.5 -46t42.5 -63q23 -18 131 -18q12 0 33.5 7t35.5 3q53 -12 99 20q20 10 45 11q45 27 60.5 31.5t56.5 6.5q8 2 30 29q29 35 70 60q18 10 27 38q14 39 45 78q12 18 28 43q29 27 42.5 66t17.5 43q14 14 45 8q16 -2 59 -57q14 -18 19 -54q4 -51 12 -79 q2 -9 0 -54q-2 -74 -21 -114q-31 -74 -41 -113q-8 -27 -24 -49q-23 -27 -35 -58q-45 -8 -92 27q-53 39 -80 39q-18 0 -41 -10q-14 -6 -29 -2q-25 8 -26 8q-18 0 -47 -12.5t-70 -8.5q-2 0 -21.5 14.5t-44.5 10.5q-33 -6 -61 -6q-27 0 -52.5 6t-27.5 6q-6 0 -21.5 -11 t-20.5 -13t-13 -2q-6 0 -35 4t-49 2q-31 0 -57 -13q-18 -8 -44 -8q-47 0 -129 31q-10 4 -79 4q-12 0 -39 5t-31 5q-20 0 -59 -29.5t-74 -25.5q-39 8 -111 16q-20 2 -63 31q-23 18 -17 35q2 8 22.5 25.5t35.5 19.5q70 12 164 45q10 8 18 39q4 23 8 45q18 57 19 59q0 6 -11 52 q-2 27 16.5 64.5t14.5 127.5q-6 156 0 258q0 33 -10 64.5t-10 48.5q0 12 4 28q16 82 16 123q0 43 -33 119q-12 37 -30 86q-18 41 -39 55q-27 12 -54 25q-10 6 -51 -12q-16 -8 -56 12t-38 78zM473 1585q-10 27 67 166q23 31 52 74q2 2 39 75q6 25 112 121q39 35 74 35 q27 2 53 -18q29 -27 58.5 -52.5t53 -68.5t41 -57.5t31 -47t15.5 -34.5q10 -8 24 -45l48 -66q30 -43 26 -61q-10 -39 -26 -39q-10 0 -30 9t-23 19.5t-26.5 17.5t-43 28.5t-39 44t-37.5 42.5q-25 29 -50.5 37t-36.5 22.5t-16.5 18.5t-15.5 4t-72 -20q-37 -12 -45 -53 q-2 -12 -30.5 -25.5t-36.5 -32.5q-4 -8 -33 -24.5t-35 -32.5t-28.5 -23.5t-28.5 -19.5q-12 -16 -21 -16q-12 0 -20 22z" />
<glyph unicode="&#xcb;" horiz-adv-x="1634" d="M2 1442q2 41 59 71q47 25 105 31q18 0 63 -13t58 -13q23 -2 56.5 11t57.5 13q23 0 52 -8q18 -4 57 3t43 5q35 -18 90 -47q16 -6 33 -6l53 10q39 6 84 -4q10 -2 31 2q29 6 49 6q31 0 74 14.5t59 14.5q20 0 74.5 -17.5t89.5 -19.5q23 -2 72 12q66 16 71 17q53 4 123 -51 q35 -29 21 -134q2 -51 0 -127q-4 -49 16 -77.5t20 -73.5q0 -55 -22 -94q-6 -8 -37 -9q-27 -4 -35 19q-6 16 -37 57q-10 14 -17 50t-26 57q-63 37 -82 88q-10 29 -75 71q-2 2 -45 52q-18 20 -80 16q-27 -2 -64 2q-31 -8 -125 0q-53 12 -65 6q-45 -14 -93 -29.5t-73 -54.5 q-10 -16 -16 -149q-2 -25 -14.5 -59.5t-12.5 -49.5q0 -25 19.5 -50.5t25.5 -92.5q2 -25 17.5 -32t29.5 -13q14 -4 78 18q25 20 149 70q41 12 41 90q0 35 9 49q10 23 12 29q14 55 35 72q10 10 14 8q12 -8 25 -17q29 -14 43 -75q2 -12 2 -27q0 -33 -13 -76q-16 -53 -16 -55 q0 -18 -10 -98q-4 -31 0 -41q4 -18 10 -35q6 -29 20 -99t-6 -98q-12 -18 -59 -8q-16 0 -33 22q-37 61 -74 80q-25 8 -46 19.5t-50 40.5h-63q-23 4 -45 18q-14 10 -52 6q-10 0 -26 -30q-12 -23 -23 -43q-10 -10 -10 -27q0 6 -16 -90q-4 -25 -4 -43q0 -35 18 -73t20 -68 q4 -68 35 -127q10 -14 21.5 -46t42.5 -63q23 -18 131 -18q12 0 33.5 7t35.5 3q53 -12 99 20q20 10 45 11q45 27 60.5 31.5t56.5 6.5q8 2 30 29q29 35 70 60q18 10 27 38q14 39 45 78q12 18 28 43q29 27 42.5 66t17.5 43q14 14 45 8q16 -2 59 -57q14 -18 19 -54q4 -51 12 -79 q2 -9 0 -54q-2 -74 -21 -114q-31 -74 -41 -113q-8 -27 -24 -49q-23 -27 -35 -58q-45 -8 -92 27q-53 39 -80 39q-18 0 -41 -10q-14 -6 -29 -2q-25 8 -26 8q-18 0 -47 -12.5t-70 -8.5q-2 0 -21.5 14.5t-44.5 10.5q-33 -6 -61 -6q-27 0 -52.5 6t-27.5 6q-6 0 -21.5 -11 t-20.5 -13t-13 -2q-6 0 -35 4t-49 2q-31 0 -57 -13q-18 -8 -44 -8q-47 0 -129 31q-10 4 -79 4q-12 0 -39 5t-31 5q-20 0 -59 -29.5t-74 -25.5q-39 8 -111 16q-20 2 -63 31q-23 18 -17 35q2 8 22.5 25.5t35.5 19.5q70 12 164 45q10 8 18 39q4 23 8 45q18 57 19 59q0 6 -11 52 q-2 27 16.5 64.5t14.5 127.5q-6 156 0 258q0 33 -10 64.5t-10 48.5q0 12 4 28q16 82 16 123q0 43 -33 119q-12 37 -30 86q-18 41 -39 55q-27 12 -54 25q-10 6 -51 -12q-16 -8 -56 12t-38 78zM379 1809q0 20 20.5 33.5t26.5 27.5q25 41 84 41q16 2 40 -7t42 -7 q10 0 25.5 -21.5t29 -39t13.5 -38.5q2 -37 2 -43q8 -49 -19 -88q-23 -27 -74 -30q-45 -4 -81 28q-27 16 -52 33q-37 29 -49 70q-8 27 -8 41zM977 1727q-4 14 0 37q6 41 6 45q2 25 25 76q16 37 76 38q41 2 110 -49q18 -12 32.5 -37.5t16.5 -29.5q6 -12 4 -41q-4 -27 -11 -33 t-15 -43q-12 -53 -51 -59q-18 -2 -82 14q-31 8 -50 24q-10 10 -22 21q-29 10 -39 37z" />
<glyph unicode="&#xcc;" horiz-adv-x="921" d="M31 1452q2 33 14 43q31 39 59 35q4 0 24.5 -8.5t33.5 -8.5q66 8 71.5 8.5t37.5 6.5t40 6q10 0 63.5 -9t80.5 -12q25 -2 71 11l47 14q6 0 51.5 -12.5t67.5 -9.5q18 6 37 10q33 10 59 10q43 0 74 -25q23 -16 29 -43q8 -24 -2 -36q-14 -18 -30.5 -39t-43.5 -23 q-16 -2 -53 -18q-18 -8 -54 -29q-14 -4 -38 -29q-18 -37 -23 -59q4 -23 -4 -115q-8 -49 -8 -73q0 -14 11 -47t5 -111q-4 -47 -17.5 -85t-13.5 -56q-14 -37 -14 -148q0 -2 4 -24.5t2 -49.5q-10 -92 0 -135q0 -55 6 -135l36 -72q36 -73 79 -73q8 -2 28.5 7t22.5 9q8 0 23 -10 q18 -16 18 -41q0 -16 -10 -39q-18 -37 -78 -37q-61 0 -86 8q-25 4 -50.5 -9t-66.5 -13q-27 0 -50 14t-66 18l-31 -16q-31 -16 -72 -12q-10 2 -26.5 -2t-28.5 -4q-29 0 -68 12t-49 12q-41 -4 -43 0q-20 16 -20 49q0 31 20 56q14 2 47 6q18 4 49 20q23 12 58 13q12 6 26 45 q14 68 35 153q10 31 23 60q12 41 12 116q0 18 -9 75.5t-9 74.5q0 6 5 33.5t5 52.5q0 57 -8 76q-25 53 -21 75q0 6 21 95q4 39 -4 141q-2 29 -12.5 54.5t-10.5 27.5q0 39 -6 53q-45 57 -88 64q-59 2 -113 24q-23 6 -59 25q-12 20 -10 55zM254 2032q4 18 28.5 51t34.5 31 q6 0 24.5 -10.5t28.5 -12.5q23 -10 56 -41q20 -41 63 -80q16 -14 22.5 -46t21 -48t25.5 -41.5t26.5 -42t24.5 -35t13 -26.5q18 -84 2 -113q-10 -25 -24 -25t-43 25q-10 12 -41 37q-4 2 -41 53q-2 -4 -74 47q-10 8 -39 92q-6 18 -30.5 40t-44 42.5t-29.5 54t-4 48.5z" />
<glyph unicode="&#xcd;" horiz-adv-x="921" d="M31 1452q2 33 14 43q31 39 59 35q4 0 24.5 -8.5t33.5 -8.5q66 8 71.5 8.5t37.5 6.5t40 6q10 0 63.5 -9t80.5 -12q25 -2 71 11l47 14q6 0 51.5 -12.5t67.5 -9.5q18 6 37 10q33 10 59 10q43 0 74 -25q23 -16 29 -43q8 -24 -2 -36q-14 -18 -30.5 -39t-43.5 -23 q-16 -2 -53 -18q-18 -8 -54 -29q-14 -4 -38 -29q-18 -37 -23 -59q4 -23 -4 -115q-8 -49 -8 -73q0 -14 11 -47t5 -111q-4 -47 -17.5 -85t-13.5 -56q-14 -37 -14 -148q0 -2 4 -24.5t2 -49.5q-10 -92 0 -135q0 -55 6 -135l36 -72q36 -73 79 -73q8 -2 28.5 7t22.5 9q8 0 23 -10 q18 -16 18 -41q0 -16 -10 -39q-18 -37 -78 -37q-61 0 -86 8q-25 4 -50.5 -9t-66.5 -13q-27 0 -50 14t-66 18l-31 -16q-31 -16 -72 -12q-10 2 -26.5 -2t-28.5 -4q-29 0 -68 12t-49 12q-41 -4 -43 0q-20 16 -20 49q0 31 20 56q14 2 47 6q18 4 49 20q23 12 58 13q12 6 26 45 q14 68 35 153q10 31 23 60q12 41 12 116q0 18 -9 75.5t-9 74.5q0 6 5 33.5t5 52.5q0 57 -8 76q-25 53 -21 75q0 6 21 95q4 39 -4 141q-2 29 -12.5 54.5t-10.5 27.5q0 39 -6 53q-45 57 -88 64q-59 2 -113 24q-23 6 -59 25q-12 20 -10 55zM372 1638q0 12 14.5 35.5t15.5 37 t17 46.5q0 29 14.5 50t20.5 54q2 14 41 33q6 4 21 49q37 55 55 68q31 25 60.5 48t64.5 23q31 0 60.5 -24.5t29.5 -59.5q0 -65 -84 -122q-12 -6 -17 -23.5t-14 -21.5q-12 -23 -61 -56q-23 -10 -42.5 -38.5t-33.5 -37.5q-12 -23 -39 -51q-10 -10 -30 -28q-29 -20 -54 -21 q-39 0 -39 39z" />
<glyph unicode="&#xce;" horiz-adv-x="921" d="M25 1452q2 33 14 43q31 39 59 35q4 0 24.5 -8.5t33.5 -8.5q66 8 71.5 8.5t37.5 6.5t40 6q10 0 63.5 -9t80.5 -12q25 -2 71 11l47 14q6 0 51.5 -12.5t67.5 -9.5q18 6 37 10q33 10 59 10q43 0 74 -25q23 -16 29 -43q8 -24 -2 -36q-14 -18 -30.5 -39t-43.5 -23 q-16 -2 -53 -18q-18 -8 -54 -29q-14 -4 -38 -29q-18 -37 -23 -59q4 -23 -4 -115q-8 -49 -8 -73q0 -14 11 -47t5 -111q-4 -47 -17.5 -85t-13.5 -56q-14 -37 -14 -148q0 -2 4 -24.5t2 -49.5q-10 -92 0 -135q0 -55 6 -135l36 -72q36 -73 79 -73q8 -2 28.5 7t22.5 9q8 0 23 -10 q18 -16 18 -41q0 -16 -10 -39q-18 -37 -78 -37q-61 0 -86 8q-25 4 -50.5 -9t-66.5 -13q-27 0 -50 14t-66 18l-31 -16q-31 -16 -72 -12q-10 2 -26.5 -2t-28.5 -4q-29 0 -68 12t-49 12q-41 -4 -43 0q-20 16 -20 49q0 31 20 56q14 2 47 6q18 4 49 20q23 12 58 13q12 6 26 45 q14 68 35 153q10 31 23 60q12 41 12 116q0 18 -9 75.5t-9 74.5q0 6 5 33.5t5 52.5q0 57 -8 76q-25 53 -21 75q0 6 21 95q4 39 -4 141q-2 29 -12.5 54.5t-10.5 27.5q0 39 -6 53q-45 57 -88 64q-59 2 -113 24q-23 6 -59 25q-12 20 -10 55zM105 1585q-10 27 67 166q23 31 52 74 q2 2 39 75q6 25 112 121q39 35 74 35q27 2 53 -18q29 -27 58.5 -52.5t53 -68.5t41 -57.5t31 -47t15.5 -34.5q10 -8 24 -45l48 -66q30 -43 26 -61q-10 -39 -26 -39q-10 0 -30 9t-23 19.5t-26.5 17.5t-43 28.5t-39 44t-37.5 42.5q-25 29 -50.5 37t-36.5 22.5t-16.5 18.5 t-15.5 4t-72 -20q-37 -12 -45 -53q-2 -12 -30.5 -25.5t-36.5 -32.5q-4 -8 -33 -24.5t-35 -32.5t-28.5 -23.5t-28.5 -19.5q-12 -16 -21 -16q-12 0 -20 22z" />
<glyph unicode="&#xcf;" horiz-adv-x="921" d="M25 1452q2 33 14 43q31 39 59 35q4 0 24.5 -8.5t33.5 -8.5q66 8 71.5 8.5t37.5 6.5t40 6q10 0 63.5 -9t80.5 -12q25 -2 71 11l47 14q6 0 51.5 -12.5t67.5 -9.5q18 6 37 10q33 10 59 10q43 0 74 -25q23 -16 29 -43q8 -24 -2 -36q-14 -18 -30.5 -39t-43.5 -23 q-16 -2 -53 -18q-18 -8 -54 -29q-14 -4 -38 -29q-18 -37 -23 -59q4 -23 -4 -115q-8 -49 -8 -73q0 -14 11 -47t5 -111q-4 -47 -17.5 -85t-13.5 -56q-14 -37 -14 -148q0 -2 4 -24.5t2 -49.5q-10 -92 0 -135q0 -55 6 -135l36 -72q36 -73 79 -73q8 -2 28.5 7t22.5 9q8 0 23 -10 q18 -16 18 -41q0 -16 -10 -39q-18 -37 -78 -37q-61 0 -86 8q-25 4 -50.5 -9t-66.5 -13q-27 0 -50 14t-66 18l-31 -16q-31 -16 -72 -12q-10 2 -26.5 -2t-28.5 -4q-29 0 -68 12t-49 12q-41 -4 -43 0q-20 16 -20 49q0 31 20 56q14 2 47 6q18 4 49 20q23 12 58 13q12 6 26 45 q14 68 35 153q10 31 23 60q12 41 12 116q0 18 -9 75.5t-9 74.5q0 6 5 33.5t5 52.5q0 57 -8 76q-25 53 -21 75q0 6 21 95q4 39 -4 141q-2 29 -12.5 54.5t-10.5 27.5q0 39 -6 53q-45 57 -88 64q-59 2 -113 24q-23 6 -59 25q-12 20 -10 55zM25 1809q0 20 20.5 33.5t26.5 27.5 q25 41 84 41q16 2 40 -7t42 -7q10 0 25.5 -21.5t29 -39t13.5 -38.5q2 -37 2 -43q8 -49 -19 -88q-23 -27 -74 -30q-45 -4 -81 28q-27 16 -52 33q-37 29 -49 70q-8 27 -8 41zM623 1727q-4 14 0 37q6 41 6 45q2 25 25 76q16 37 76 38q41 2 110 -49q18 -12 32.5 -37.5 t16.5 -29.5q6 -12 4 -41q-4 -27 -11 -33t-15 -43q-12 -53 -51 -59q-18 -2 -82 14q-31 8 -50 24q-10 10 -22 21q-29 10 -39 37z" />
<glyph unicode="&#xd0;" horiz-adv-x="673" d="M61 997q0 14 18.5 35t33.5 23q10 2 51 -4.5t55 -6.5q45 12 107 25q16 0 32.5 -3t28.5 -3q61 -2 76 -47q4 -49 8 -101q2 -20 15.5 -48.5t13.5 -55.5q0 -25 -9.5 -61.5t-9.5 -61.5q0 -23 8.5 -47.5t6.5 -60.5q-2 -35 -13.5 -59.5t-11.5 -59.5q0 -29 17.5 -68t17.5 -94 q0 -74 6 -98.5t33 -42.5q71 -48 69 -97q0 -29 -12 -38q-18 -12 -37 -25q-37 -27 -69 -27q-18 0 -56 15q-14 6 -55 2q-27 6 -68 2q-33 -20 -100 -19h-43q-25 0 -35 13q-16 6 -41 45q-4 20 14.5 35.5t39.5 29.5q45 35 69 137q2 43 16.5 77t16.5 77q-6 10 -8 129 q2 27 -5.5 55.5t-7.5 34.5q0 10 7.5 45t7.5 62q0 82 -66 174q0 2 -14 33q-4 10 -39 26q-68 31 -68 53z" />
<glyph unicode="&#xd1;" horiz-adv-x="1794" d="M12 1432q6 94 94 104q33 4 89 -9.5t65 -13.5q12 0 58 18.5t58 14.5q68 -20 201 -45q43 -2 98 -35q6 -2 28 8.5t28 10.5q8 0 41 -19q12 -8 12 -55q-2 -59 13.5 -102t47.5 -72q59 -49 64 -53q10 -12 20 -66q8 -45 43 -65q59 -35 84 -68q14 -20 29 -43q16 -14 32.5 -30.5 t24.5 -41.5q16 -57 70 -112q14 -16 41 -29q45 -27 88 -10q16 8 45 8t25 27q0 4 -14.5 43t-12.5 71q12 92 -4 144q-10 35 -6 59q8 43 8 49q8 31 20 99q6 49 -47 92q-33 27 -63 30q-43 4 -96 33q-39 20 -47 27q-14 10 -33 39q-14 20 -15 35q0 20 31 53q8 10 27 8l94 -4 q66 -2 111 -13.5t59 -11.5q29 -2 59.5 10.5t32.5 12.5q8 0 25.5 -6t31.5 -6q70 0 109 19t45 19q16 2 51 -31.5t39 -58.5t-10 -50t-47 -32q-76 -12 -135 -57q-68 -49 -84 -119q-8 -33 -6 -45q2 -33 2 -61q-2 -43 -12.5 -69.5t-10.5 -41.5q2 -39 31 -129q16 -88 -4 -174 q-4 -18 -2 -72q8 -174 -7 -260q-4 -25 -4 -108q0 -8 -3 -26.5t-1 -28.5q2 -14 13 -29q23 -39 -7 -88q-10 -18 -22 -19q-4 0 -84 23q-51 14 -69.5 30.5t-35.5 34.5q-23 18 -45 39q-33 31 -43 64q-20 74 -65 92q-37 16 -62 92q-10 31 -67 98q-8 16 -45 54q-29 18 -64 80 q-37 70 -61 90q-18 14 -51 49q-14 27 -60 76q-6 6 -63 73q-14 18 -43 19q-25 0 -62 -17q-20 -8 -26 -28q-2 -6 -13 -64q-6 -37 -2 -84q4 -35 9 -67q0 -14 17 -73.5t17 -100.5q0 -4 11 -115q-2 -33 2 -111q10 -55 25.5 -73.5t17.5 -26.5q14 -63 88 -64q51 4 96 -19.5 t41 -61.5q-10 -80 -121 -82q-59 2 -151 -7q-20 -6 -55.5 -1.5t-45.5 -2.5q-39 -20 -86 -20q-12 0 -33.5 8t-37.5 6q-133 -12 -115 -12q-31 0 -46.5 8t-35.5 8q-27 0 -43 4q-23 6 -38 27t-15 35q6 55 45 94q51 51 115.5 51t76.5 6q33 23 66 43q45 39 41 86q-6 86 0 115 q2 8 33 57q12 20 12 39q0 4 -7.5 40t-4.5 77q4 57 -9 98q-6 25 -14 50q-2 16 6 38.5t10 54.5t9 60q4 18 2 35q-18 57 -43 154q-14 35 -41 104q-12 31 -68 66q-10 6 -20 6q-4 0 -31 -6q-20 -4 -40 2t-40 4q-25 -4 -37 -2q-23 6 -53 30q-47 41 -43 93zM499 1704q-4 51 29 86 q8 8 55 72q6 12 53.5 25.5t75.5 15.5q20 2 45 8t31 6q-14 0 64 -16q27 -12 92 -29q18 0 55 -16.5t62 -16.5t59.5 12.5t51 13.5t48.5 26q14 12 31 24q8 4 31 -14q31 -25 37 -76q8 -55 -31 -106q-33 -43 -82 -66q-70 -33 -150 -12q-23 8 -92 18q-35 2 -67.5 33t-53.5 37 q-18 4 -57 -2q-35 -6 -76 8q-12 2 -28.5 -10.5t-32.5 -24.5q-63 -39 -107 -37q-37 2 -43 41z" />
<glyph unicode="&#xd2;" horiz-adv-x="1689" d="M49 788q2 33 19 72q20 51 28 92q4 18 19.5 35t19.5 25q16 45 31 92q25 59 72 100q31 27 53 76t80 96q23 8 92 68q16 12 40.5 19t47.5 14q35 6 64.5 31.5t76.5 35.5q41 8 66 8q14 0 41.5 -5t60.5 -3q25 2 82 -12q70 -18 70 -19q25 -2 47 -4q35 -4 63 -32q35 -35 121 -76 q68 -33 125 -117q8 -12 49 -39.5t55.5 -58.5t36.5 -56q31 -37 37 -45q31 -45 33 -98q0 -59 31 -117q27 -49 4 -88q-12 -20 -19.5 -65t-9.5 -49q-8 -10 -16 -66q-6 -31 -18.5 -105.5t-37.5 -127.5q0 -16 -22 -47q-45 -35 -74 -76q-25 -33 -56.5 -52.5t-45.5 -39.5 q-20 -23 -53 -48q-39 -29 -99 -88q-16 -16 -41 -24q-41 -14 -68.5 -27.5t-52.5 -15.5q-18 -2 -42.5 2t-32.5 4q-16 0 -59.5 5t-59.5 3q-78 -6 -123 18.5t-86 51.5q-10 6 -25 6q-10 0 -32.5 -5t-32.5 -3q-86 23 -107 35q-33 16 -92 77q-12 23 -41 72q-39 33 -96 80 q-25 20 -41 88q-25 86 -55 141q-14 27 -15 47q0 10 19 54q12 29 -11.5 58.5t-19.5 102.5zM453 768q8 -82 8 -160q0 -49 16 -110q20 -70 25 -144q4 -63 59 -151q20 -20 62 -74q53 -82 168 -70q20 8 98 17q41 0 76.5 -6.5t44.5 -6.5q29 0 84 31q43 23 51 31q25 20 40 56 t40 134q6 47 14 150q2 45 6.5 66.5t16.5 46.5q20 51 -2 108q-12 29 -21 127q-6 61 -8 176q-2 70 -10.5 92.5t-30.5 77.5q-18 37 -49 139q-16 49 -46 61.5t-81 47.5q-39 37 -64 37q-8 0 -14 -6q-20 -16 -43 -17q-4 0 -24.5 6.5t-30.5 4.5q-66 -29 -108 -29t-59.5 -9.5 t-31.5 -14.5t-18 -21q-10 -39 -36 -64.5t-28 -54.5q-27 -78 -86 -285q-23 -141 -18 -186zM564 2011q4 18 28.5 51t34.5 31q6 0 24.5 -10.5t28.5 -12.5q23 -10 56 -41q20 -41 63 -80q16 -14 22.5 -46t21 -48t25.5 -41.5t26.5 -42t24.5 -35t13 -26.5q18 -84 2 -113 q-10 -25 -24 -25t-43 25q-10 12 -41 37q-4 2 -41 53q-2 -4 -74 47q-10 8 -39 92q-6 18 -30.5 40t-44 42.5t-29.5 54t-4 48.5z" />
<glyph unicode="&#xd3;" horiz-adv-x="1689" d="M49 788q2 33 19 72q20 51 28 92q4 18 19.5 35t19.5 25q16 45 31 92q25 59 72 100q31 27 53 76t80 96q23 8 92 68q16 12 40.5 19t47.5 14q35 6 64.5 31.5t76.5 35.5q41 8 66 8q14 0 41.5 -5t60.5 -3q25 2 82 -12q70 -18 70 -19q25 -2 47 -4q35 -4 63 -32q35 -35 121 -76 q68 -33 125 -117q8 -12 49 -39.5t55.5 -58.5t36.5 -56q31 -37 37 -45q31 -45 33 -98q0 -59 31 -117q27 -49 4 -88q-12 -20 -19.5 -65t-9.5 -49q-8 -10 -16 -66q-6 -31 -18.5 -105.5t-37.5 -127.5q0 -16 -22 -47q-45 -35 -74 -76q-25 -33 -56.5 -52.5t-45.5 -39.5 q-20 -23 -53 -48q-39 -29 -99 -88q-16 -16 -41 -24q-41 -14 -68.5 -27.5t-52.5 -15.5q-18 -2 -42.5 2t-32.5 4q-16 0 -59.5 5t-59.5 3q-78 -6 -123 18.5t-86 51.5q-10 6 -25 6q-10 0 -32.5 -5t-32.5 -3q-86 23 -107 35q-33 16 -92 77q-12 23 -41 72q-39 33 -96 80 q-25 20 -41 88q-25 86 -55 141q-14 27 -15 47q0 10 19 54q12 29 -11.5 58.5t-19.5 102.5zM453 768q8 -82 8 -160q0 -49 16 -110q20 -70 25 -144q4 -63 59 -151q20 -20 62 -74q53 -82 168 -70q20 8 98 17q41 0 76.5 -6.5t44.5 -6.5q29 0 84 31q43 23 51 31q25 20 40 56 t40 134q6 47 14 150q2 45 6.5 66.5t16.5 46.5q20 51 -2 108q-12 29 -21 127q-6 61 -8 176q-2 70 -10.5 92.5t-30.5 77.5q-18 37 -49 139q-16 49 -46 61.5t-81 47.5q-39 37 -64 37q-8 0 -14 -6q-20 -16 -43 -17q-4 0 -24.5 6.5t-30.5 4.5q-66 -29 -108 -29t-59.5 -9.5 t-31.5 -14.5t-18 -21q-10 -39 -36 -64.5t-28 -54.5q-27 -78 -86 -285q-23 -141 -18 -186zM727 1649q0 12 14.5 35.5t15.5 37t17 46.5q0 29 14.5 50t20.5 54q2 14 41 33q6 4 21 49q37 55 55 68q31 25 60.5 48t64.5 23q31 0 60.5 -24.5t29.5 -59.5q0 -65 -84 -122 q-12 -6 -17 -23.5t-14 -21.5q-12 -23 -61 -56q-23 -10 -42.5 -38.5t-33.5 -37.5q-12 -23 -39 -51q-10 -10 -30 -28q-29 -20 -54 -21q-39 0 -39 39z" />
<glyph unicode="&#xd4;" horiz-adv-x="1689" d="M49 788q2 33 19 72q20 51 28 92q4 18 19.5 35t19.5 25q16 45 31 92q25 59 72 100q31 27 53 76t80 96q23 8 92 68q16 12 40.5 19t47.5 14q35 6 64.5 31.5t76.5 35.5q41 8 66 8q14 0 41.5 -5t60.5 -3q25 2 82 -12q70 -18 70 -19q25 -2 47 -4q35 -4 63 -32q35 -35 121 -76 q68 -33 125 -117q8 -12 49 -39.5t55.5 -58.5t36.5 -56q31 -37 37 -45q31 -45 33 -98q0 -59 31 -117q27 -49 4 -88q-12 -20 -19.5 -65t-9.5 -49q-8 -10 -16 -66q-6 -31 -18.5 -105.5t-37.5 -127.5q0 -16 -22 -47q-45 -35 -74 -76q-25 -33 -56.5 -52.5t-45.5 -39.5 q-20 -23 -53 -48q-39 -29 -99 -88q-16 -16 -41 -24q-41 -14 -68.5 -27.5t-52.5 -15.5q-18 -2 -42.5 2t-32.5 4q-16 0 -59.5 5t-59.5 3q-78 -6 -123 18.5t-86 51.5q-10 6 -25 6q-10 0 -32.5 -5t-32.5 -3q-86 23 -107 35q-33 16 -92 77q-12 23 -41 72q-39 33 -96 80 q-25 20 -41 88q-25 86 -55 141q-14 27 -15 47q0 10 19 54q12 29 -11.5 58.5t-19.5 102.5zM453 768q8 -82 8 -160q0 -49 16 -110q20 -70 25 -144q4 -63 59 -151q20 -20 62 -74q53 -82 168 -70q20 8 98 17q41 0 76.5 -6.5t44.5 -6.5q29 0 84 31q43 23 51 31q25 20 40 56 t40 134q6 47 14 150q2 45 6.5 66.5t16.5 46.5q20 51 -2 108q-12 29 -21 127q-6 61 -8 176q-2 70 -10.5 92.5t-30.5 77.5q-18 37 -49 139q-16 49 -46 61.5t-81 47.5q-39 37 -64 37q-8 0 -14 -6q-20 -16 -43 -17q-4 0 -24.5 6.5t-30.5 4.5q-66 -29 -108 -29t-59.5 -9.5 t-31.5 -14.5t-18 -21q-10 -39 -36 -64.5t-28 -54.5q-27 -78 -86 -285q-23 -141 -18 -186zM492 1585q-10 27 67 166q23 31 52 74q2 2 39 75q6 25 112 121q39 35 74 35q27 2 53 -18q29 -27 58.5 -52.5t53 -68.5t41 -57.5t31 -47t15.5 -34.5q10 -8 24 -45l48 -66q30 -43 26 -61 q-10 -39 -26 -39q-10 0 -30 9t-23 19.5t-26.5 17.5t-43 28.5t-39 44t-37.5 42.5q-25 29 -50.5 37t-36.5 22.5t-16.5 18.5t-15.5 4t-72 -20q-37 -12 -45 -53q-2 -12 -30.5 -25.5t-36.5 -32.5q-4 -8 -33 -24.5t-35 -32.5t-28.5 -23.5t-28.5 -19.5q-12 -16 -21 -16 q-12 0 -20 22z" />
<glyph unicode="&#xd5;" horiz-adv-x="1689" d="M49 788q2 33 19 72q20 51 28 92q4 18 19.5 35t19.5 25q16 45 31 92q25 59 72 100q31 27 53 76t80 96q23 8 92 68q16 12 40.5 19t47.5 14q35 6 64.5 31.5t76.5 35.5q41 8 66 8q14 0 41.5 -5t60.5 -3q25 2 82 -12q70 -18 70 -19q25 -2 47 -4q35 -4 63 -32q35 -35 121 -76 q68 -33 125 -117q8 -12 49 -39.5t55.5 -58.5t36.5 -56q31 -37 37 -45q31 -45 33 -98q0 -59 31 -117q27 -49 4 -88q-12 -20 -19.5 -65t-9.5 -49q-8 -10 -16 -66q-6 -31 -18.5 -105.5t-37.5 -127.5q0 -16 -22 -47q-45 -35 -74 -76q-25 -33 -56.5 -52.5t-45.5 -39.5 q-20 -23 -53 -48q-39 -29 -99 -88q-16 -16 -41 -24q-41 -14 -68.5 -27.5t-52.5 -15.5q-18 -2 -42.5 2t-32.5 4q-16 0 -59.5 5t-59.5 3q-78 -6 -123 18.5t-86 51.5q-10 6 -25 6q-10 0 -32.5 -5t-32.5 -3q-86 23 -107 35q-33 16 -92 77q-12 23 -41 72q-39 33 -96 80 q-25 20 -41 88q-25 86 -55 141q-14 27 -15 47q0 10 19 54q12 29 -11.5 58.5t-19.5 102.5zM453 768q8 -82 8 -160q0 -49 16 -110q20 -70 25 -144q4 -63 59 -151q20 -20 62 -74q53 -82 168 -70q20 8 98 17q41 0 76.5 -6.5t44.5 -6.5q29 0 84 31q43 23 51 31q25 20 40 56 t40 134q6 47 14 150q2 45 6.5 66.5t16.5 46.5q20 51 -2 108q-12 29 -21 127q-6 61 -8 176q-2 70 -10.5 92.5t-30.5 77.5q-18 37 -49 139q-16 49 -46 61.5t-81 47.5q-39 37 -64 37q-8 0 -14 -6q-20 -16 -43 -17q-4 0 -24.5 6.5t-30.5 4.5q-66 -29 -108 -29t-59.5 -9.5 t-31.5 -14.5t-18 -21q-10 -39 -36 -64.5t-28 -54.5q-27 -78 -86 -285q-23 -141 -18 -186zM458 1679q-4 51 29 86q8 8 55 72q6 12 53.5 25.5t75.5 15.5q20 2 45 8t31 6q-14 0 64 -16q27 -12 92 -29q18 0 55 -16.5t62 -16.5t59.5 12.5t51 13.5t48.5 26q14 12 31 24q8 4 31 -14 q31 -25 37 -76q8 -55 -31 -106q-33 -43 -82 -66q-70 -33 -150 -12q-23 8 -92 18q-35 2 -67.5 33t-53.5 37q-18 4 -57 -2q-35 -6 -76 8q-12 2 -28.5 -10.5t-32.5 -24.5q-63 -39 -107 -37q-37 2 -43 41z" />
<glyph unicode="&#xd6;" horiz-adv-x="1665" d="M49 788q2 33 19 72q20 51 28 92q4 18 19.5 35t19.5 25q16 45 31 92q25 59 72 100q31 27 53 76t80 96q23 8 92 68q16 12 40.5 19t47.5 14q35 6 64.5 31.5t76.5 35.5q41 8 66 8q14 0 41.5 -5t60.5 -3q25 2 82 -12q70 -18 70 -19q25 -2 47 -4q35 -4 63 -32q35 -35 121 -76 q68 -33 125 -117q8 -12 49 -39.5t55.5 -58.5t36.5 -56q31 -37 37 -45q31 -45 33 -98q0 -59 31 -117q27 -49 4 -88q-12 -20 -19.5 -65t-9.5 -49q-8 -10 -16 -66q-6 -31 -18.5 -105.5t-37.5 -127.5q0 -16 -22 -47q-45 -35 -74 -76q-25 -33 -56.5 -52.5t-45.5 -39.5 q-20 -23 -53 -48q-39 -29 -99 -88q-16 -16 -41 -24q-41 -14 -68.5 -27.5t-52.5 -15.5q-18 -2 -42.5 2t-32.5 4q-16 0 -59.5 5t-59.5 3q-78 -6 -123 18.5t-86 51.5q-10 6 -25 6q-10 0 -32.5 -5t-32.5 -3q-86 23 -107 35q-33 16 -92 77q-12 23 -41 72q-39 33 -96 80 q-25 20 -41 88q-25 86 -55 141q-14 27 -15 47q0 10 19 54q12 29 -11.5 58.5t-19.5 102.5zM408 1784q0 20 20.5 33.5t26.5 27.5q25 41 84 41q16 2 40 -7t42 -7q10 0 25.5 -21.5t29 -39t13.5 -38.5q2 -37 2 -43q8 -49 -19 -88q-23 -27 -74 -30q-45 -4 -81 28q-27 16 -52 33 q-37 29 -49 70q-8 27 -8 41zM453 768q8 -82 8 -160q0 -49 16 -110q20 -70 25 -144q4 -63 59 -151q20 -20 62 -74q53 -82 168 -70q20 8 98 17q41 0 76.5 -6.5t44.5 -6.5q29 0 84 31q43 23 51 31q25 20 40 56t40 134q6 47 14 150q2 45 6.5 66.5t16.5 46.5q20 51 -2 108 q-12 29 -21 127q-6 61 -8 176q-2 70 -10.5 92.5t-30.5 77.5q-18 37 -49 139q-16 49 -46 61.5t-81 47.5q-39 37 -64 37q-8 0 -14 -6q-20 -16 -43 -17q-4 0 -24.5 6.5t-30.5 4.5q-66 -29 -108 -29t-59.5 -9.5t-31.5 -14.5t-18 -21q-10 -39 -36 -64.5t-28 -54.5 q-27 -78 -86 -285q-23 -141 -18 -186zM1006 1702q-4 14 0 37q6 41 6 45q2 25 25 76q16 37 76 38q41 2 110 -49q18 -12 32.5 -37.5t16.5 -29.5q6 -12 4 -41q-4 -27 -11 -33t-15 -43q-12 -53 -51 -59q-18 -2 -82 14q-31 8 -50 24q-10 10 -22 21q-29 10 -39 37z" />
<glyph unicode="&#xd7;" horiz-adv-x="1386" d="M35 512q0 23 13 43t40 102q16 47 78 78q106 53 158 53q14 0 24 -4q78 -33 133.5 -81t79.5 -58q-18 61 -29 80q-20 37 -75 92q-4 4 -117 60q-78 39 -80 104q-2 109 150 109q51 0 79 -15q84 -43 101 -92q18 -59 37 -119q39 -78 32 -237q2 49 5 65q10 135 43 232 q18 57 106 120q31 23 72 23q68 0 121 -55q45 -45 45 -72q0 -18 -26 -32.5t-50 -26.5q-43 -27 -121 -117q-92 -100 -88 -139q27 31 119 69q82 35 135 45q8 2 59 0q37 -2 62 13q12 8 24 8q25 0 121 -76q47 -37 47 -104q1 -48 -24 -91q-37 -63 -66 -63q-14 0 -32.5 19.5 t-36.5 37.5q-51 45 -148 64q-20 4 -35 4q-18 0 -67 -16q-59 -16 -140 -25q-53 -4 -75.5 -149.5t-44.5 -145.5q-6 0 -15 6q-14 10 -28 101q-16 100 -46 147q-45 76 -145 76q-20 0 -45 -4q-98 -14 -143 -54q-53 -47 -136 -45q-72 2 -71 70z" />
<glyph unicode="&#xd8;" horiz-adv-x="1691" d="M59 770q0 57 19 96q10 37 31 86q29 33 59 123q29 84 82 131q33 29 59.5 79t73.5 91q10 4 59 49q43 39 121 52q33 6 62.5 32.5t79.5 34.5q61 10 81 10q18 0 41 -6t46.5 -4t80.5 -12q70 -18 70 -19q25 -2 47 -4q35 -4 64 -32q23 -23 63 -43q35 43 70 88q31 37 94 41 q35 2 49 -6.5t27 -43.5q4 -12 4 -22q0 -20 -29 -45q-39 -29 -51 -51q-2 -6 -31 -47q31 -57 83 -90t71 -72q14 -31 37 -56q31 -35 37 -45q16 -23 16 -57.5t14 -64.5q49 -104 49 -140q0 -18 -12 -39.5t-19.5 -66.5t-9.5 -49q-10 -63 -18 -127q-14 -86 -53 -172 q-16 -37 -34.5 -50.5t-45.5 -60.5q-14 -25 -74 -65q-84 -57 -196 -175q-16 -18 -48 -28q-63 -25 -71 -27q-41 -18 -119 -6q-70 12 -127 6q-49 -6 -80 2q-18 6 -121 70q-10 6 -24 6q-10 0 -33 -5t-33 -3q-37 10 -98 28q-14 -39 -64 -114q-31 -33 -49 -33q-14 0 -47 16 q-63 45 -63 72q0 10 4 25q20 68 98 153q-12 25 -20 37q-39 33 -97 80q-27 23 -43 82q-31 98 -53 147q-18 41 -12 68q18 74 4 92q-20 27 -21 84zM465 817q0 -18 6 -92q6 -59 2 -117q-4 -41 6 -78.5t19 -70.5q41 23 56 43t32.5 43.5t41 74t46.5 80.5q55 78 151 209 q80 104 131 183q137 209 168 254q-2 6 -41 24q-25 10 -65.5 43t-54.5 33q-8 0 -15 -8q-16 -14 -35 -15q-8 0 -29.5 6.5t-33.5 2.5q-55 -20 -105 -23q-39 0 -65 -18q-20 -4 -47 -33q-14 -37 -41 -74q-23 -27 -23 -45q0 -31 -22 -76q-23 -37 -64 -209q-18 -78 -18 -137z M557 229q27 -35 92 -120q45 -57 107 -58q23 0 47 8q68 20 164 9q80 -8 139 26q41 25 51 33q25 18 39 55q37 86 45 146q4 25 10 137q5 76 23 113q10 25 10 49q0 18 -14.5 73.5t-18.5 112.5q-2 37 -6 176q-2 70 -15 93.5t-32 91.5q-12 -25 -45 -78q-45 -78 -102 -162 q-66 -96 -224 -277q-12 -29 -102 -178q-53 -88 -168 -250z" />
<glyph unicode="&#xd9;" horiz-adv-x="1521" d="M25 1389q-6 55 18 98q20 35 39.5 39t38 7t37.5 3q27 0 68.5 -11.5t66.5 -11.5q12 0 40.5 6.5t72.5 6.5q41 0 64.5 -12.5t41.5 -12.5q25 0 39 8.5t29 8.5q16 0 36.5 -24t36.5 -21q12 0 37 17t37 17q20 0 31 -39q8 -39 -2 -73q-14 -49 -59.5 -39t-66 -4.5t-71.5 -51.5 q-49 -43 -45 -92q10 -27 23 -110q4 -117 20 -238q6 -39 6 -67q0 -20 -7 -81t-5 -130q2 -150 33 -246q12 -39 41 -70q12 -14 47 -47q23 -12 39 -29q10 -12 28 -18q66 -20 103 -20q33 0 51 6q49 18 53 18q72 20 107 60q10 6 32.5 24.5t34.5 95.5q6 55 19 160q4 25 16 133 q2 41 -10 117q-10 57 -6 119q2 27 14 84t12 69q-4 102 -13 122t-9 30q2 6 -10 55q-20 66 -93 96q-80 35 -100 76q-10 14 -6 33q4 14 10 18q53 35 146 72q10 0 61 -9t66 -11q16 -2 38.5 14t51.5 16q16 0 36.5 -8t26.5 -8l57 6q18 2 48 -41t24 -72q-14 -72 -53 -77h-68 q-31 -8 -41 -74q-18 -111 -18 -170q0 -72 18 -174q10 -57 11 -88q0 -16 -5.5 -51t-5.5 -76q0 -25 4 -80q2 -29 -4 -78q-8 -59 -16 -84q-18 -47 -25 -65q-10 -74 -22 -152t-92 -129q-61 -39 -138 -109q-10 -10 -57 -45q-35 -25 -76 2q-27 16 -75 15q-27 -2 -43 -10 q-29 -12 -37 -15.5t-19 -3.5q-10 0 -35 10q-31 10 -53 17q-39 6 -78 14t-67 29q-37 27 -103 39q-45 8 -104 51q-10 10 -26.5 46t-36 49t-27.5 42q-8 41 -17 82q-18 76 0 168q2 70 13 184q4 29 0 64q-10 33 -10 104q0 141 22 268q12 66 -6 111q-29 74 -53 78q-12 2 -36 -4 t-34 -6q-12 0 -23 4q-25 10 -38 76zM500 2032q4 18 28.5 51t34.5 31q6 0 24.5 -10.5t28.5 -12.5q23 -10 56 -41q20 -41 63 -80q16 -14 22.5 -46t21 -48t25.5 -41.5t26.5 -42t24.5 -35t13 -26.5q18 -84 2 -113q-10 -25 -24 -25t-43 25q-10 12 -41 37q-4 2 -41 53 q-2 -4 -74 47q-10 8 -39 92q-6 18 -30.5 40t-44 42.5t-29.5 54t-4 48.5z" />
<glyph unicode="&#xda;" horiz-adv-x="1521" d="M25 1389q-6 55 18 98q20 35 39.5 39t38 7t37.5 3q27 0 68.5 -11.5t66.5 -11.5q12 0 40.5 6.5t72.5 6.5q41 0 64.5 -12.5t41.5 -12.5q25 0 39 8.5t29 8.5q16 0 36.5 -24t36.5 -21q12 0 37 17t37 17q20 0 31 -39q8 -39 -2 -73q-14 -49 -59.5 -39t-66 -4.5t-71.5 -51.5 q-49 -43 -45 -92q10 -27 23 -110q4 -117 20 -238q6 -39 6 -67q0 -20 -7 -81t-5 -130q2 -150 33 -246q12 -39 41 -70q12 -14 47 -47q23 -12 39 -29q10 -12 28 -18q66 -20 103 -20q33 0 51 6q49 18 53 18q72 20 107 60q10 6 32.5 24.5t34.5 95.5q6 55 19 160q4 25 16 133 q2 41 -10 117q-10 57 -6 119q2 27 14 84t12 69q-4 102 -13 122t-9 30q2 6 -10 55q-20 66 -93 96q-80 35 -100 76q-10 14 -6 33q4 14 10 18q53 35 146 72q10 0 61 -9t66 -11q16 -2 38.5 14t51.5 16q16 0 36.5 -8t26.5 -8l57 6q18 2 48 -41t24 -72q-14 -72 -53 -77h-68 q-31 -8 -41 -74q-18 -111 -18 -170q0 -72 18 -174q10 -57 11 -88q0 -16 -5.5 -51t-5.5 -76q0 -25 4 -80q2 -29 -4 -78q-8 -59 -16 -84q-18 -47 -25 -65q-10 -74 -22 -152t-92 -129q-61 -39 -138 -109q-10 -10 -57 -45q-35 -25 -76 2q-27 16 -75 15q-27 -2 -43 -10 q-29 -12 -37 -15.5t-19 -3.5q-10 0 -35 10q-31 10 -53 17q-39 6 -78 14t-67 29q-37 27 -103 39q-45 8 -104 51q-10 10 -26.5 46t-36 49t-27.5 42q-8 41 -17 82q-18 76 0 168q2 70 13 184q4 29 0 64q-10 33 -10 104q0 141 22 268q12 66 -6 111q-29 74 -53 78q-12 2 -36 -4 t-34 -6q-12 0 -23 4q-25 10 -38 76zM653 1649q0 12 14.5 35.5t15.5 37t17 46.5q0 29 14.5 50t20.5 54q2 14 41 33q6 4 21 49q37 55 55 68q31 25 60.5 48t64.5 23q31 0 60.5 -24.5t29.5 -59.5q0 -65 -84 -122q-12 -6 -17 -23.5t-14 -21.5q-12 -23 -61 -56 q-23 -10 -42.5 -38.5t-33.5 -37.5q-12 -23 -39 -51q-10 -10 -30 -28q-29 -20 -54 -21q-39 0 -39 39z" />
<glyph unicode="&#xdb;" horiz-adv-x="1521" d="M25 1389q-6 55 18 98q20 35 39.5 39t38 7t37.5 3q27 0 68.5 -11.5t66.5 -11.5q12 0 40.5 6.5t72.5 6.5q41 0 64.5 -12.5t41.5 -12.5q25 0 39 8.5t29 8.5q16 0 36.5 -24t36.5 -21q12 0 37 17t37 17q20 0 31 -39q8 -39 -2 -73q-14 -49 -59.5 -39t-66 -4.5t-71.5 -51.5 q-49 -43 -45 -92q10 -27 23 -110q4 -117 20 -238q6 -39 6 -67q0 -20 -7 -81t-5 -130q2 -150 33 -246q12 -39 41 -70q12 -14 47 -47q23 -12 39 -29q10 -12 28 -18q66 -20 103 -20q33 0 51 6q49 18 53 18q72 20 107 60q10 6 32.5 24.5t34.5 95.5q6 55 19 160q4 25 16 133 q2 41 -10 117q-10 57 -6 119q2 27 14 84t12 69q-4 102 -13 122t-9 30q2 6 -10 55q-20 66 -93 96q-80 35 -100 76q-10 14 -6 33q4 14 10 18q53 35 146 72q10 0 61 -9t66 -11q16 -2 38.5 14t51.5 16q16 0 36.5 -8t26.5 -8l57 6q18 2 48 -41t24 -72q-14 -72 -53 -77h-68 q-31 -8 -41 -74q-18 -111 -18 -170q0 -72 18 -174q10 -57 11 -88q0 -16 -5.5 -51t-5.5 -76q0 -25 4 -80q2 -29 -4 -78q-8 -59 -16 -84q-18 -47 -25 -65q-10 -74 -22 -152t-92 -129q-61 -39 -138 -109q-10 -10 -57 -45q-35 -25 -76 2q-27 16 -75 15q-27 -2 -43 -10 q-29 -12 -37 -15.5t-19 -3.5q-10 0 -35 10q-31 10 -53 17q-39 6 -78 14t-67 29q-37 27 -103 39q-45 8 -104 51q-10 10 -26.5 46t-36 49t-27.5 42q-8 41 -17 82q-18 76 0 168q2 70 13 184q4 29 0 64q-10 33 -10 104q0 141 22 268q12 66 -6 111q-29 74 -53 78q-12 2 -36 -4 t-34 -6q-12 0 -23 4q-25 10 -38 76zM442 1585q-10 27 67 166q23 31 52 74q2 2 39 75q6 25 112 121q39 35 74 35q27 2 53 -18q29 -27 58.5 -52.5t53 -68.5t41 -57.5t31 -47t15.5 -34.5q10 -8 24 -45l48 -66q30 -43 26 -61q-10 -39 -26 -39q-10 0 -30 9t-23 19.5t-26.5 17.5 t-43 28.5t-39 44t-37.5 42.5q-25 29 -50.5 37t-36.5 22.5t-16.5 18.5t-15.5 4t-72 -20q-37 -12 -45 -53q-2 -12 -30.5 -25.5t-36.5 -32.5q-4 -8 -33 -24.5t-35 -32.5t-28.5 -23.5t-28.5 -19.5q-12 -16 -21 -16q-12 0 -20 22z" />
</font>
</defs>
</svg>
