<svg xmlns:svg="http://www.w3.org/2000/svg" xmlns="http://www.w3.org/2000/svg" width="142.40224mm" height="142.40224mm" viewBox="0 0 504.57486 504.57485" version="1.1"><style>.s0{fill:none;stroke-width:5;stroke:#000;}.s1{fill:none;stroke-dasharray:4;stroke:#000;}.s2{fill:#000;font-family:sans-serif;font-size:54;letter-spacing:0;line-height:125;word-spacing:0;}</style><g transform="translate(2.2874294,-550.07477)"><rect width="99.57486" height="99.57486" x="200.21257" y="752.57477" class="s0"/><rect width="99.57486" height="99.57486" x="200.21257" y="652.57477" class="s1"/><rect width="99.57486" height="99.57486" x="200.21257" y="552.57477" class="s0"/><rect width="99.57486" height="99.57486" x="300.21259" y="752.57477" class="s1"/><rect width="99.57486" height="99.57486" x="400.21259" y="752.57477" class="s0"/><rect width="99.57486" height="99.57486" x="200.21257" y="852.57477" class="s1"/><rect width="99.57486" height="99.57486" x="200.21257" y="952.57477" class="s0"/><rect width="99.57486" height="99.57486" x="100.21257" y="752.57477" class="s1"/><rect width="99.57486" height="99.57486" x="0.21257058" y="752.57477" class="s0"/><path d="m241.16121 591.17866-0.47421-0.15807-0.26346-2.1603 0.26346-0.26345q2.63451-0.76401 6.66532-2.4501 4.0308-1.68609 5.76958-2.58183l0.68498 0.26346q-0.42153 11.53917-0.42153 13.85754l0 9.77405q0 3.60928 0.079 6.79704 0.079 3.16142 0.23711 3.74101 0.15807 0.55325 0.5269 0.86939 0.39518 0.31614 1.08015 0.42153 0.68497 0.079 4.0835 0.26345l0.18441 0.21076 0 1.18553-0.18441 0.21076q-5.76959-0.21076-8.14065-0.21076-1.79147 0-8.77293 0.21076l-0.18442-0.21076 0-1.18553 0.21076-0.21076q3.95177-0.2898 4.50502-0.42153 0.57959-0.13172 0.86939-0.44786 0.31614-0.34249 0.50056-1.26457 0.18441-0.92208 0.28979-5.45344 0.13173-4.53137 0.13173-4.63675l0-10.37998q0-7.6401-0.0527-8.29872-0.0264-0.65863-0.44787-0.65863-0.10538 0-0.2898 0.0527-0.18441 0.0527-1.15918 0.47421l-2.60817 1.15919q-1.6334 0.71132-3.08238 1.50167z"/><path d="m438.18423 820.98818-0.31614-0.26345 0-1.21188 8.82562-9.35252q5.45344-5.76959 7.0605-8.931 1.60705-3.16142 1.60705-5.90131 0-3.21411-1.94954-5.34807-1.94954-2.13395-5.26903-2.13395-2.13396 0-3.71466 0.65862-1.58071 0.65863-2.13396 1.47533-0.5269 0.8167-1.55436 4.58406l-0.23711 0.21076-1.08015 0-0.26345-0.23711q0.60594-3.55659 0.84304-7.03415 2.47645-2.42375 4.6104-3.08238 2.1603-0.68498 4.50502-0.68498 2.79259 0 5.34806 1.05381 2.55548 1.0538 4.10985 3.42487 1.55436 2.34471 1.55436 5.45344 0 2.31837-0.92208 4.66309-0.89573 2.31837-2.66086 4.50502-1.73878 2.1603-4.76847 5.18999l-8.21968 8.37776 10.40633 0q4.79481 0 7.98257-0.34249l0.18442 0.21076q-0.15807 0.89574-0.15807 2.34472 0 1.31726 0.15807 2.08127l-0.18442 0.28979q-1.89685-0.10538-5.82227-0.18441-3.92543-0.079-5.18999-0.079-2.55548 0-6.87609 0.0527-4.3206 0.079-5.87496 0.21076z"/><path d="m239.80442 1019.895q-0.47421-3.1087-1.76512-7.482l0.13173-0.3952 0.97477-0.3689 0.36883 0.1845q0.92208 2.4237 1.97588 4.0044 1.05381 1.5807 3.02969 2.4238 1.97589 0.843 4.26792 0.843 2.89796 0 4.58405-1.2119 1.71244-1.2118 2.63452-3.2931 0.92208-2.0813 0.92208-4.6894 0-3.5039-1.84416-5.5062-1.81782-2.0022-5.05827-2.0022-1.1065 0-1.97589 0.2108-0.86939 0.2107-2.6872 0.9484l-0.2898-0.2635 0.5796-2.8716q2.13395 0.1317 2.84527 0.1317 3.08238 0 4.87385-2.1866 1.81782-2.18665 1.81782-5.16365 0-2.60817-1.89685-4.37329-1.87051-1.76513-4.63675-1.76513-1.81781 0-3.45121 0.73767-1.60706 0.73766-2.66086 1.79146-0.44787 0.89574-1.42264 3.53025l-0.26345 0.23711-1.18553 0-0.21076-0.23711 1.58071-6.11207q3.29314-3.71466 8.931-3.71466 4.29426 0 6.92877 2.29202 2.66086 2.26569 2.66086 5.7169 0 2.63451-1.55436 4.84751-1.55437 2.18664-4.32061 4.13619 4.55771 0.5532 6.40187 2.7399 1.87051 2.1603 1.87051 5.2427 0 5.0582-4.58406 9.1154-4.58405 4.0308-10.59074 4.0308-1.79147 0-3.34584-0.3161-1.55436-0.2898-3.63563-1.2119z"/><path d="m45.758433 821.09357-0.210761-0.21076 0-1.13284 0.210761-0.21076q3.899081-0.10538 4.6104-0.23711 0.737663-0.13172 1.08015-0.55324 0.342487-0.42153 0.500558-2.05492 0.184416-1.6334 0.184416-3.47756l0-1.94954-5.769586 0q-5.031922 0-8.509481 0.15807l-0.447867-1.42264q4.584055-8.58852 15.306527-24.86981l3.714665-1.50168 0.658629 0.31614q-0.289797 4.47868-0.289797 11.09131l-0.07903 7.42933 0 5.45344q3.635629-0.0263 5.611515-0.15807l0.237106 0.26345q-0.05269 1.00112-0.05269 1.44899 0.02634 0.86939 0.07904 1.71243l-0.263451 0.23711q-2.555479-0.15807-4.267913-0.15807l-1.343602 0 0 1.76512q0 2.95066 0.15807 4.18888 0.158071 1.23822 0.500558 1.60705 0.342487 0.34249 1.369947 0.5269 1.053806 0.15808 3.609285 0.18442l0.237106 0.21076 0 1.13284-0.210761 0.21076q-4.636745-0.21076-7.771817-0.21076-5.110957 0-8.851967 0.21076zm-4.873851-13.17257 11.249375 0 0.237106-18.73139q-2.529133 3.60928-6.375524 9.90577-3.846391 6.29649-5.110957 8.82562z"/><path d="m240.6343 819.82904q-0.63228-2.05492-2.60817-6.79704l0.0527-0.34249 0.92207-0.5269 0.31615 0.079q2.18664 3.97812 2.71355 4.53137 0.55324 0.5269 2.47644 1.26456 1.92319 0.71132 4.05715 0.71132 2.66086 0 4.71578-1.15918 2.05492-1.15919 3.05604-3.42487 1.00111-2.26568 1.00111-5.1373 0-2.81893-1.00111-4.84751-0.97477-2.05492-3.00335-3.10873-2.02857-1.0538-4.37329-1.0538-1.47533 0-2.68721 0.39517-1.18553 0.39518-2.00223 1.02747-0.79035 0.60593-1.89685 1.81781l-1.08015-0.31614 0.2898-5.66421q0.10538-1.60705 0.10538-3.24045l0-4.68943q0-2.10762-0.13173-4.03081-0.079-1.18553-0.079-1.50167l0.34249-0.26346q4.0308 0.31615 9.19445 0.31615 3.92543 0 9.40521-0.31615l0.10539 0.26346q-0.18442 1.29091-0.18442 2.3974 0 0.55325 0.079 1.84416l-0.26345 0.15807q-3.00334-0.21076-8.06161-0.21076-6.87608 0-7.98258 0.0527-0.39517 3.10873-0.55325 10.95958 2.16031-1.58071 3.89909-2.13395 1.73877-0.5796 3.76735-0.5796 2.87162 0 5.50614 1.31726 2.63451 1.31726 3.92542 3.82005 1.31726 2.50278 1.31726 5.40075 0 5.34806-4.42599 9.85308-4.39963 4.47868-11.27572 4.47868-1.84416 0-3.05603-0.31615-1.18553-0.31614-2.58183-1.02746z"/></g></svg>
